<svg width="385" height="370" viewBox="0 0 385 370" fill="none" xmlns="http://www.w3.org/2000/svg">
<path d="M100.839 72.8489L89.5099 75.9343C88.6286 76.1747 87.9219 76.8319 87.6201 77.6941L83.7388 88.7771C82.9785 90.9474 80.0603 91.3048 78.7997 89.3812L72.3641 79.5596C71.864 78.7962 71.0199 78.3272 70.1066 78.307L58.367 78.0409C56.0681 77.9884 54.8266 75.3224 56.2667 73.5294L63.6186 64.3734C64.1898 63.662 64.3752 62.7131 64.1124 61.8388L60.7384 50.5912C60.0773 48.3891 62.2291 46.384 64.3797 47.1999L75.359 51.3633C76.2129 51.6877 77.1712 51.5693 77.9226 51.0496L87.5771 44.3648C89.4672 43.0556 92.0384 44.4823 91.928 46.7795L91.3618 58.5082C91.3183 59.4196 91.7252 60.296 92.4518 60.8492L101.792 67.9649C103.621 69.3584 103.058 72.2442 100.839 72.8489Z" fill="url(#paint0_linear)"/>
<path d="M36.2632 156.933L28.124 159.15C27.4912 159.322 26.9837 159.796 26.7669 160.415L23.9789 168.377C23.4334 169.936 21.3363 170.193 20.4303 168.811L15.8069 161.754C15.4478 161.205 14.8408 160.869 14.1848 160.854L5.75117 160.663C4.09948 160.626 3.20801 158.711 4.24216 157.423L9.52469 150.845C9.93528 150.333 10.0687 149.653 9.88016 149.024L7.45575 140.945C6.98113 139.363 8.52649 137.923 10.0711 138.508L17.9598 141.499C18.5736 141.731 19.2612 141.647 19.8015 141.273L26.7367 136.471C28.0952 135.531 29.9421 136.556 29.8626 138.206L29.4552 146.632C29.4237 147.287 29.7162 147.916 30.2386 148.314L36.9495 153.427C38.2615 154.425 37.8576 156.498 36.2632 156.933Z" fill="url(#paint1_linear)"/>
<path d="M280.864 357.499C281.349 360.966 285.218 362.811 288.241 361.045C304.918 351.301 349.578 319.485 359.783 253.592C368.4 197.947 378.36 168.594 383.806 155.581C384.957 152.829 381.926 150.207 379.366 151.738C351.115 168.618 263.275 231.88 280.864 357.499Z" fill="#BDD0FB"/>
<path d="M272.842 358.387C272.896 358.455 272.957 358.518 273.025 358.577C273.599 359.069 274.461 359.002 274.952 358.428C275.509 357.779 330.888 292.59 354.481 217.854C354.707 217.134 354.309 216.367 353.59 216.139C352.87 215.912 352.102 216.311 351.875 217.031C328.455 291.222 273.43 356.005 272.877 356.65C272.445 357.155 272.444 357.883 272.842 358.387Z" fill="white"/>
<g filter="url(#filter0_b)">
<path d="M174.284 361.99C271.717 360.5 309.504 321.363 336.985 227.002C367.902 90.2666 306.693 19.0044 248.296 7.26432C189.898 -4.47577 90.2786 34.3369 35.9407 131.768C-18.3973 229.199 2.83827 364.611 174.284 361.99Z" fill="url(#paint2_linear)"/>
<path d="M336.479 226.871C322.747 274.015 306.466 307.265 281.524 328.928C256.592 350.581 222.927 360.723 174.276 361.467C88.702 362.775 40.7636 329.649 20.9229 284.189C1.05947 238.677 9.28251 180.641 36.3976 132.023C63.5142 83.4009 101.927 49.4103 140.839 29.0404C179.762 8.66447 219.143 1.93714 248.193 7.77722C306.208 19.4404 367.345 90.3312 336.479 226.871Z" stroke="url(#paint3_linear)" stroke-width="1.04632"/>
<path d="M336.479 226.871C322.747 274.015 306.466 307.265 281.524 328.928C256.592 350.581 222.927 360.723 174.276 361.467C88.702 362.775 40.7636 329.649 20.9229 284.189C1.05947 238.677 9.28251 180.641 36.3976 132.023C63.5142 83.4009 101.927 49.4103 140.839 29.0404C179.762 8.66447 219.143 1.93714 248.193 7.77722C306.208 19.4404 367.345 90.3312 336.479 226.871Z" stroke="url(#paint4_linear)" stroke-width="1.04632"/>
</g>
<path d="M132.913 254.126C128.181 236.352 118.092 221.876 105.751 213.048C94.7177 205.158 87.0573 193.339 84.6419 180.005C84.3884 178.604 84.0736 177.196 83.6978 175.784C78.0071 154.409 60.2976 140.567 44.1417 144.869C27.9857 149.17 19.5024 169.985 25.193 191.36C26.3565 195.732 28.0231 199.786 30.0765 203.434C36.6293 215.079 38.7652 228.762 35.543 241.735C32.665 253.329 32.678 266.544 36.2249 279.868C41.5154 299.74 53.5045 315.494 67.851 323.835C73.278 326.99 78.1107 331.111 82.044 335.996C88.5804 344.115 98.1352 348.251 107.205 345.837C116.99 343.232 123.473 333.732 124.443 322.322C124.992 315.865 126.804 309.599 129.556 303.727C136.052 289.862 137.696 272.095 132.913 254.126Z" fill="#91B3FA"/>
<path opacity="0.57" d="M55.8524 166.1C61.7241 179.665 67.1554 193.408 72.4418 207.207C73.765 210.656 75.0322 214.126 76.3123 217.592L78.2303 222.791L80.1039 228.007C81.3394 231.489 82.6231 234.952 83.8205 238.449L87.4111 248.937C89.7153 255.959 92.0793 262.959 94.2522 270.025C95.3437 273.555 96.5041 277.064 97.5242 280.617L100.633 291.258C104.634 305.488 108.279 319.826 111.192 334.319L110.568 334.451L107.976 323.69L107.334 321L106.625 318.325L105.197 312.979L103.779 307.631C103.31 305.847 102.774 304.081 102.275 302.307C101.252 298.762 100.258 295.21 99.213 291.672C94.9401 277.548 90.4796 263.48 85.7298 249.507C83.3014 242.538 80.9329 235.549 78.4561 228.597L76.6122 223.378L74.725 218.175C73.4694 214.704 72.2126 211.235 70.9214 207.778C68.3987 200.841 65.8252 193.923 63.1957 187.026C60.6031 180.115 57.9442 173.226 55.264 166.35L55.8524 166.1Z" fill="white"/>
<g opacity="0.5">
<path opacity="0.5" d="M39.0266 207.104C38.8725 207.083 38.7292 206.998 38.6413 206.856C28.0774 189.887 28.9296 176.651 31.5051 168.539C34.3027 159.724 39.5395 155.01 39.7612 154.814C39.9828 154.617 40.321 154.638 40.5183 154.859C40.7155 155.081 40.6946 155.42 40.4729 155.616C40.421 155.663 35.2095 160.366 32.5107 168.917C30.0205 176.806 29.2225 189.693 39.5524 206.287C39.7098 206.54 39.6327 206.87 39.3804 207.026C39.27 207.096 39.1455 207.119 39.0266 207.104Z" fill="white"/>
</g>
<path d="M319.517 145.057L254.988 288.126L252.22 294.265L232.339 338.344C230.76 341.846 226.838 343.625 223.171 342.483L210.016 338.386C206.355 337.246 204.116 333.548 204.805 329.77L213.476 282.139L214.679 275.505L242.772 121.156C243.022 119.768 243.446 118.427 244.015 117.168C245.734 113.337 248.82 110.22 252.737 108.478L254.6 107.645L285.226 119.632L317.361 127.189L318.485 128.951C320.706 132.583 321.494 136.868 320.766 140.97C320.531 142.365 320.111 143.738 319.517 145.057Z" fill="url(#paint5_linear)"/>
<path d="M320.766 140.971C309.132 141.991 294.89 140.357 280.176 135.775C265.574 131.228 253.002 124.548 244.016 117.168C245.735 113.337 248.822 110.22 252.738 108.478L254.601 107.645L285.227 119.632L317.362 127.189L318.486 128.951C320.706 132.584 321.494 136.869 320.766 140.971Z" fill="url(#paint6_linear)"/>
<path d="M300.637 123.548C333.309 123.548 359.795 97.0622 359.795 64.3903C359.795 31.7183 333.309 5.23242 300.637 5.23242C267.965 5.23242 241.479 31.7183 241.479 64.3903C241.479 97.0622 267.965 123.548 300.637 123.548Z" fill="url(#paint7_linear)"/>
<path d="M300.637 123.548C333.309 123.548 359.795 97.0622 359.795 64.3903C359.795 31.7183 333.309 5.23242 300.637 5.23242C267.965 5.23242 241.479 31.7183 241.479 64.3903C241.479 97.0622 267.965 123.548 300.637 123.548Z" fill="url(#paint8_radial)" fill-opacity="0.62"/>
<path d="M364.861 80.8999C363.787 84.347 359.306 86.3149 354.864 85.2503C316.826 75.6769 279.3 63.9896 242.552 50.2744C238.29 48.6302 235.718 44.4653 236.793 41.0169C236.812 40.9555 236.831 40.8928 236.85 40.8301C237.924 37.3831 242.405 35.4139 246.847 36.4797C284.885 46.0532 322.411 57.7391 359.159 71.4557C363.421 73.1012 365.992 77.2661 364.918 80.7131C364.899 80.7745 364.88 80.8372 364.861 80.8999Z" fill="#7D97F4"/>
<path d="M334.027 117.008C333.41 115.981 332.251 115.329 331.012 115.308C316.844 115.066 281.303 111.895 247.802 88.2993C246.704 87.5251 245.248 87.4164 244.103 88.0203C242.958 88.6255 242.346 89.827 242.549 91.072L244.274 101.668C244.838 105.135 247.075 108.245 250.335 110.106C262.565 117.086 294.127 133.34 320.246 131.672C323.701 131.451 326.824 129.856 328.814 127.293C330.466 125.165 332.367 122.501 333.959 120.215C334.618 119.268 334.645 118.036 334.027 117.008Z" fill="#7D97F4"/>
<path d="M265.404 202.444C264.063 206.24 259.899 208.231 256.102 206.89C252.306 205.549 250.316 201.385 251.656 197.588L260.398 172.843C261.739 169.047 265.903 167.056 269.7 168.397C273.496 169.738 275.486 173.902 274.146 177.699L265.404 202.444Z" fill="#7646EE"/>
<path d="M254.987 288.126L252.22 294.266C238.899 291.759 225.845 287.679 213.476 282.138L214.678 275.504C227.476 281.437 241.092 285.701 254.987 288.126Z" fill="url(#paint9_linear)"/>
<path d="M300.877 326.951H40.6133V367.258H300.877V326.951Z" fill="url(#paint10_linear)"/>
<path d="M332 348H10V370H332V348Z" fill="url(#paint11_linear)"/>
<path d="M334.823 349.734C334.823 350.944 333.918 351.924 332.803 351.924H8.68613C7.5696 351.924 6.66553 350.943 6.66553 349.734C6.66553 348.523 7.57078 347.543 8.68613 347.543H332.803C333.918 347.543 334.823 348.523 334.823 349.734Z" fill="#7646EE"/>
<path d="M305.726 327.544C305.726 328.779 305.143 330.017 304.207 330.017H37.7979C36.862 330.017 35.7632 328.779 35.7632 327.544V327.488C35.7632 326.253 36.862 325.197 37.7979 325.197H304.207C305.143 325.197 305.726 326.253 305.726 327.488V327.544Z" fill="#7646EE"/>
<path d="M119.692 126.711L115.693 124.834C115.693 124.834 114.571 116.967 115.384 116.262C116.196 115.557 124.156 113.463 124.246 116.298C124.335 119.135 122.342 123.755 122.342 123.755L119.692 126.711Z" fill="url(#paint12_linear)"/>
<path d="M158.218 306.801C157.648 292.478 154.261 256.524 154.261 256.524L150.153 233.101L166.763 233.169L164.661 259.113L165.918 261.571C167.021 263.663 167.497 266.062 167.291 268.417L163.779 308.526L166.321 312.061L166.003 313.97L150.347 323.125L156.533 313.172C157.718 311.261 158.308 309.046 158.218 306.801Z" fill="url(#paint13_linear)"/>
<path d="M176.768 253.442L166.764 232.908L180.14 231.072L188.925 254.797C196.261 261.078 198.318 267.773 200.152 273.973C202.108 280.591 205.645 299.615 207.309 303.817C208.703 307.336 212.472 315.097 213.66 317.527C213.995 318.212 213.971 319.023 213.568 319.669C213.094 320.427 212.132 321.208 210.174 321.201C206.379 321.185 205.006 320.118 204.942 319.01C204.901 318.301 203.779 310.816 200.524 301.835C197.786 294.279 182.812 265.224 178.127 256.192L177.878 255.71C177.147 254.302 176.725 253.493 176.725 253.493C176.738 253.476 176.753 253.461 176.768 253.442Z" fill="url(#paint14_linear)"/>
<path d="M162.449 106.764C162.449 106.764 165.861 89.7632 176.917 93.859C187.973 97.9548 210.322 114.791 198.848 146.614C187.375 178.437 193.296 183.592 200.588 183.352C207.882 183.111 207.301 193.102 194.595 196.021C181.889 198.939 166.714 190.236 161.862 165.368C157.011 140.502 153.687 111.319 162.449 106.764Z" fill="url(#paint15_linear)"/>
<path d="M150.382 143.446C150.382 143.446 147.529 139.576 139.715 143.403C131.9 147.23 116.724 151.817 116.058 149.653C115.391 147.489 120.13 126.497 120.13 126.497L115.862 124.541C115.862 124.541 96.9889 156.799 112.57 160.712C128.151 164.624 144.411 155.778 144.411 155.778L150.382 143.446Z" fill="url(#paint16_linear)"/>
<path d="M104.656 122.395C104.675 122.502 104.706 122.611 104.748 122.723C104.799 122.86 104.953 122.929 105.09 122.878C105.227 122.827 105.296 122.674 105.245 122.537C105.118 122.2 105.14 121.92 105.311 121.677C106.015 120.679 108.952 120.506 110.024 120.523C110.17 120.525 110.291 120.409 110.292 120.262C110.295 120.116 110.179 119.994 110.031 119.993C109.863 119.99 105.884 119.942 104.878 121.371C104.663 121.677 104.588 122.02 104.656 122.395Z" fill="url(#paint17_linear)"/>
<path d="M124.457 116.184L113.273 118.437L112.793 118.533L109.347 119.228C109.073 119.283 108.884 119.533 108.906 119.81L108.982 120.808C109.004 121.086 109.229 121.305 109.508 121.318L113.024 121.475L113.514 121.497L124.907 122.008C125.01 122.014 125.112 122.005 125.211 121.985C125.51 121.925 125.781 121.758 125.968 121.508L126.058 121.389L125.704 119.025L125.69 116.625L125.584 116.517C125.363 116.3 125.072 116.175 124.769 116.16C124.664 116.156 124.561 116.162 124.457 116.184Z" fill="url(#paint18_linear)"/>
<path d="M124.766 116.161C124.505 116.968 124.39 118.004 124.476 119.121C124.561 120.23 124.83 121.229 125.208 121.985C125.507 121.925 125.778 121.757 125.965 121.508L126.055 121.389L125.702 119.024L125.687 116.625L125.581 116.516C125.36 116.301 125.069 116.176 124.766 116.161Z" fill="url(#paint19_linear)"/>
<path d="M129.537 114.542C127.168 114.725 125.397 116.793 125.58 119.16C125.763 121.529 127.831 123.299 130.198 123.116C132.567 122.933 134.337 120.866 134.155 118.499C133.973 116.13 131.905 114.359 129.537 114.542Z" fill="url(#paint20_linear)"/>
<path d="M129.738 114.01C129.477 114.03 129.265 114.316 129.268 114.648C129.329 117.499 129.549 120.347 129.925 123.174C129.973 123.503 130.226 123.752 130.488 123.732C130.493 123.732 130.497 123.73 130.502 123.73C130.765 123.71 130.976 123.425 130.973 123.092C130.912 120.241 130.692 117.393 130.316 114.566C130.268 114.238 130.015 113.988 129.753 114.008C129.747 114.01 129.744 114.01 129.738 114.01Z" fill="#91B3FA"/>
<path d="M126.681 115.609C126.743 115.67 126.77 115.763 126.752 115.851C126.54 116.859 126.188 119.429 127.317 122.185C127.354 122.276 127.338 122.381 127.277 122.451C127.215 122.523 127.121 122.546 127.035 122.511L126.312 122.217C126.075 122.121 125.891 121.912 125.812 121.65C125.515 120.67 124.875 118.17 125.418 116.346C125.489 116.105 125.653 115.91 125.867 115.81C126.045 115.728 126.263 115.636 126.452 115.561C126.53 115.531 126.617 115.549 126.681 115.609Z" fill="#91B3FA"/>
<path d="M119.53 119.05C119.238 119.073 119.019 119.327 119.042 119.619C119.065 119.911 119.32 120.13 119.612 120.107L121.514 119.959C121.806 119.936 122.025 119.682 122.002 119.39C121.979 119.098 121.724 118.88 121.432 118.903L119.53 119.05Z" fill="url(#paint21_linear)"/>
<path d="M113.272 118.436L112.792 118.532C112.754 119.517 112.832 120.508 113.024 121.474L113.514 121.495C113.3 120.494 113.22 119.46 113.272 118.436Z" fill="url(#paint22_linear)"/>
<path d="M131.431 122.176C131.432 122.188 131.435 122.199 131.441 122.211C131.463 122.249 131.513 122.261 131.55 122.239C132.144 121.888 132.641 121.389 133.03 120.757C133.053 120.72 133.042 120.672 133.005 120.649C132.968 120.626 132.918 120.637 132.895 120.674C132.52 121.285 132.04 121.764 131.468 122.102C131.442 122.117 131.428 122.147 131.431 122.176Z" fill="white"/>
<path d="M133.291 119.905C133.294 119.935 133.312 119.962 133.341 119.973C133.382 119.99 133.428 119.969 133.445 119.928C133.646 119.42 133.706 119.052 133.709 119.037C133.715 118.993 133.686 118.952 133.642 118.946C133.599 118.939 133.558 118.969 133.551 119.012C133.551 119.016 133.491 119.379 133.297 119.87C133.291 119.881 133.29 119.894 133.291 119.905Z" fill="white"/>
<path d="M204.046 316.692L204.709 322.332C204.834 323.402 205.674 324.251 206.743 324.378C208.55 324.592 211.448 324.816 214.287 324.526C215.534 324.4 216.347 323.142 215.973 321.947C215.289 319.768 214.038 316.496 212.221 314.567L205.968 314.541C204.811 314.536 203.912 315.543 204.046 316.692Z" fill="url(#paint23_linear)"/>
<path d="M163.904 189.087C158.655 166.432 172.237 153.687 172.237 153.687C163.734 145.457 148.194 141.665 148.194 141.665C148.194 141.665 133.306 152.456 135.032 160.956C136.044 165.939 145.344 190.816 145.344 190.816C145.344 190.816 154.021 194.967 163.904 189.087Z" fill="url(#paint24_linear)"/>
<path d="M175.708 198.142C173.556 192.868 163.903 189.086 163.903 189.086C154.025 193.806 145.345 190.463 145.345 190.463C145.345 190.463 143.371 196.446 144.694 202.019C146.017 207.593 148.321 243.992 148.321 243.992C161.614 246.213 188.081 241.369 188.081 241.369C179.658 229.24 177.86 203.417 175.708 198.142Z" fill="url(#paint25_linear)"/>
<path d="M157.958 126.75L162.222 146.273C162.63 147.993 161.065 147.705 159.33 147.371C156.488 146.823 152.826 145.704 151.609 143.485C151.485 143.26 151.424 143.004 151.391 142.749L149.58 129.217C149.437 128.144 150.02 127.105 151.013 126.67L154.62 125.088C156.006 124.476 157.608 125.275 157.958 126.75Z" fill="url(#paint26_linear)"/>
<path d="M152.938 108.156C152.938 108.156 147.787 110.307 144.259 117.725C140.732 125.142 143.329 128.584 146.607 129.068C149.885 129.553 154.791 129.5 159.999 124.721C165.208 119.942 159.634 105.609 152.938 108.156Z" fill="url(#paint27_linear)"/>
<path d="M156.529 120.74C156.529 120.74 160.453 109.883 150.814 109.715L148.539 111.291C148.539 111.291 145.027 105.25 150.844 102.395C156.66 99.5415 163.446 101.946 165.883 109.776C168.322 117.607 168.723 122.844 164.597 126.57C160.472 130.295 158.796 126.046 158.796 126.046C158.796 126.046 161.048 122.555 160.145 120.679C159.241 118.804 157.13 121.054 157.13 121.054L156.529 120.74Z" fill="url(#paint28_linear)"/>
<path d="M157.604 121.955C157.604 121.955 159.589 116.363 162.197 118.604C164.804 120.846 160.048 123.77 158.188 124.715L157.604 121.955Z" fill="url(#paint29_linear)"/>
<path d="M172.238 153.688C172.238 153.688 202.22 180.929 198.42 185.774C194.618 190.62 176.737 205.313 176.737 205.313C176.737 205.313 182.642 213.529 179.675 212.841C176.706 212.154 174.021 208.497 172.946 207.278C171.871 206.059 172.527 210.652 170.916 208.215C169.305 205.777 170.035 202.54 172.045 201.468C174.055 200.396 185.634 184.373 188.318 183.979C180.624 178.816 165.498 164.308 165.498 164.308C165.498 164.308 169.692 153.702 172.238 153.688Z" fill="url(#paint30_linear)"/>
<path d="M214.955 319.139C214.955 319.139 208.095 307.123 207.33 302.552C203.528 279.86 199.439 271.616 199.439 271.616C199.439 271.616 192.038 275.717 187.623 274.738C193.099 285.707 200.914 302.942 200.914 302.942L204.575 321.18C204.575 321.18 216.473 326.316 214.955 319.139Z" fill="url(#paint31_linear)"/>
<path d="M170.955 152.528C170.955 152.528 191.677 157.486 186.372 159.797C181.067 162.108 165.213 165.019 165.213 165.019C165.213 165.019 168.463 154.629 170.955 152.528Z" fill="url(#paint32_linear)"/>
<path d="M148.193 141.665C148.193 141.665 135.133 134.875 134.98 138.319C134.826 141.762 136.812 153.542 136.812 153.542L148.193 141.665Z" fill="url(#paint33_linear)"/>
<path d="M149.309 324.934L154.293 324.954C155.225 324.958 156.107 324.441 156.68 323.704C158.243 321.692 161.478 317.674 163.018 317.578C165.091 317.447 164.795 324.997 164.795 324.997L165.957 325.002L167.467 315.67C167.671 314.43 167.424 313.018 166.841 311.972C166.821 311.926 166.813 311.876 166.777 311.833C166.755 311.807 166.732 311.779 166.71 311.752C166.489 311.395 166.233 311.061 165.933 310.763C165.082 309.629 164.329 308.487 164.329 308.487L167.266 273.13C167.279 272.982 167.22 272.839 167.11 272.742C167 272.645 166.849 272.606 166.704 272.636C164.997 272.993 160.04 273.837 155.75 272.641C155.605 272.6 155.449 272.638 155.332 272.732C155.214 272.826 155.149 272.982 155.158 273.133C155.66 282.631 159 308.324 157.809 309.829C156.588 311.371 149.549 322.054 149.079 322.137C147.501 322.415 147.711 324.928 149.309 324.934Z" fill="url(#paint34_linear)"/>
<path d="M157.593 125.003C157.588 126.324 158.654 127.399 159.974 127.405C161.294 127.41 162.369 126.344 162.376 125.024C162.381 123.703 161.315 122.628 159.994 122.622C158.673 122.617 157.598 123.683 157.593 125.003Z" fill="url(#paint35_linear)"/>
<path d="M120.13 126.497C120.13 126.497 121.691 124.116 122.341 123.754C122.991 123.393 122.374 119.365 120.576 117.338C118.78 115.311 119.074 117.49 119.473 119.062C119.873 120.633 117.965 121.895 117.837 122.954C117.71 124.015 119.87 126.885 120.13 126.497Z" fill="url(#paint36_linear)"/>
<path d="M124.151 115.857C124.543 116.101 122.71 120.034 121.395 119.931C120.078 119.827 118.395 120.576 117.843 120.576C117.292 120.574 116.026 119.629 115.09 118.072C113.539 115.493 119.915 113.221 124.151 115.857Z" fill="url(#paint37_linear)"/>
<path d="M192.409 152.747C192.386 152.747 192.363 152.743 192.339 152.735C192.224 152.697 192.162 152.573 192.201 152.458C193.831 147.619 194.92 142.888 195.439 138.397C195.453 138.277 195.562 138.191 195.682 138.205C195.803 138.219 195.888 138.328 195.874 138.448C195.351 142.97 194.256 147.73 192.615 152.599C192.587 152.689 192.502 152.747 192.409 152.747Z" fill="#BDD0FB"/>
<path d="M195.971 130.216C195.855 130.216 195.758 130.111 195.753 129.995C195.423 122.911 193.534 116.453 190.139 110.816C184.265 101.055 172.326 99.1873 172.207 99.1694C172.088 99.1515 172.005 99.0389 172.022 98.9186C172.04 98.7984 172.149 98.7165 172.271 98.7331C172.392 98.751 184.532 100.642 190.515 110.583C193.947 116.284 195.856 122.816 196.19 129.974C196.197 130.094 196.102 130.216 195.982 130.216C195.978 130.216 195.975 130.216 195.971 130.216Z" fill="#BDD0FB"/>
<path d="M30.1762 192.342L24.6169 197.246C24.1852 197.627 23.9682 198.197 24.0364 198.77L24.9242 206.128C25.0982 207.57 23.5444 208.584 22.2939 207.846L15.9118 204.075C15.4148 203.781 14.8063 203.751 14.2834 203.994L7.55846 207.113C6.24189 207.723 4.79553 206.56 5.11275 205.143L6.72742 197.908C6.85261 197.346 6.69313 196.757 6.30105 196.335L1.25706 190.903C0.269615 189.838 0.930172 188.104 2.37477 187.967L9.75449 187.267C10.3278 187.213 10.8392 186.879 11.1195 186.376L14.7259 179.899C15.433 178.631 17.2857 178.723 17.8628 180.055L20.8087 186.857C21.0376 187.387 21.5125 187.77 22.0777 187.88L29.351 189.31C30.779 189.59 31.2647 191.382 30.1762 192.342Z" fill="url(#paint38_linear)"/>
<path d="M63.6229 114.288L52.4856 117.321C51.6193 117.558 50.9246 118.204 50.628 119.051L46.8132 129.947C46.0665 132.08 43.1965 132.431 41.9579 130.54L35.6313 120.885C35.1398 120.134 34.3093 119.674 33.4114 119.654L21.8711 119.392C19.6109 119.34 18.3911 116.719 19.8068 114.957L27.0343 105.956C27.5961 105.256 27.7778 104.324 27.5201 103.465L24.2031 92.4086C23.5541 90.2427 25.669 88.2728 27.7824 89.0739L38.5761 93.1667C39.4153 93.4846 40.3572 93.3702 41.0953 92.8593L50.5859 86.2882C52.4444 85.001 54.9713 86.4044 54.8628 88.6616L54.3057 100.192C54.2623 101.089 54.6627 101.949 55.3769 102.493L64.5597 109.489C66.3569 110.857 65.8037 113.694 63.6229 114.288Z" fill="url(#paint39_linear)"/>
<path d="M142.929 51.2382L128.09 48.4565C126.936 48.2402 125.75 48.6049 124.917 49.434L114.213 60.081C112.117 62.1667 108.539 60.9422 108.159 58.0107L106.219 43.039C106.068 41.8746 105.354 40.8586 104.31 40.3238L90.8766 33.4335C88.2459 32.0836 88.3047 28.3039 90.9751 27.0359L104.615 20.564C105.676 20.0611 106.42 19.0682 106.607 17.909L109.009 3.00371C109.48 0.0850984 113.093 -1.02809 115.124 1.12152L125.493 12.0948C126.299 12.9482 127.474 13.35 128.634 13.1696L143.552 10.8472C146.473 10.393 148.649 13.4856 147.232 16.0805L140.002 29.3339C139.44 30.3652 139.419 31.6063 139.95 32.653L146.768 46.1226C148.104 48.7597 145.835 51.7833 142.929 51.2382Z" fill="url(#paint40_linear)"/>
<defs>
<filter id="filter0_b" x="1.04642" y="-3.13864" width="352.61" height="373.537" filterUnits="userSpaceOnUse" color-interpolation-filters="sRGB">
<feFlood flood-opacity="0" result="BackgroundImageFix"/>
<feGaussianBlur in="BackgroundImage" stdDeviation="4.18529"/>
<feComposite in2="SourceAlpha" operator="in" result="effect1_backgroundBlur"/>
<feBlend mode="normal" in="SourceGraphic" in2="effect1_backgroundBlur" result="shape"/>
</filter>
<linearGradient id="paint0_linear" x1="-26.1866" y1="-499.705" x2="-3.22906" y2="-375.092" gradientUnits="userSpaceOnUse">
<stop stop-color="#FF928E"/>
<stop offset="1" stop-color="#FE7062"/>
</linearGradient>
<linearGradient id="paint1_linear" x1="-98.0134" y1="-487.908" x2="-75.0557" y2="-363.294" gradientUnits="userSpaceOnUse">
<stop stop-color="#FF928E"/>
<stop offset="1" stop-color="#FE7062"/>
</linearGradient>
<linearGradient id="paint2_linear" x1="459.831" y1="418.529" x2="-59.7132" y2="35.9374" gradientUnits="userSpaceOnUse">
<stop stop-color="#2729D7" stop-opacity="0.52"/>
<stop offset="1" stop-color="white" stop-opacity="0.34"/>
</linearGradient>
<linearGradient id="paint3_linear" x1="331.696" y1="246.409" x2="317.032" y2="242.884" gradientUnits="userSpaceOnUse">
<stop stop-color="white"/>
<stop offset="1" stop-color="white" stop-opacity="0"/>
</linearGradient>
<linearGradient id="paint4_linear" x1="48.1211" y1="94.1951" x2="73.907" y2="105.878" gradientUnits="userSpaceOnUse">
<stop stop-color="white"/>
<stop offset="1" stop-color="#EEDDFF" stop-opacity="0"/>
</linearGradient>
<linearGradient id="paint5_linear" x1="329.243" y1="-9.35289" x2="155.743" y2="503.954" gradientUnits="userSpaceOnUse">
<stop stop-color="#09005D"/>
<stop offset="1" stop-color="#1A0F91"/>
</linearGradient>
<linearGradient id="paint6_linear" x1="290.198" y1="105.972" x2="275.34" y2="149.93" gradientUnits="userSpaceOnUse">
<stop stop-color="#874FFF"/>
<stop offset="1" stop-color="#6A40E2"/>
</linearGradient>
<linearGradient id="paint7_linear" x1="241.337" y1="-15.7098" x2="363.757" y2="148.039" gradientUnits="userSpaceOnUse">
<stop stop-color="#882AFF"/>
<stop offset="1" stop-color="#4042E2"/>
</linearGradient>
<radialGradient id="paint8_radial" cx="0" cy="0" r="1" gradientUnits="userSpaceOnUse" gradientTransform="translate(282.144 30.3283) rotate(46.0809) scale(39.2196 93.0829)">
<stop stop-color="#E9E6FF" stop-opacity="0.43"/>
<stop offset="1" stop-color="#553BEB" stop-opacity="0"/>
</radialGradient>
<linearGradient id="paint9_linear" x1="236.513" y1="276.847" x2="230.298" y2="295.234" gradientUnits="userSpaceOnUse">
<stop stop-color="#B24FFF"/>
<stop offset="0.962338" stop-color="#4442E3"/>
<stop offset="1" stop-color="#7E40E2"/>
</linearGradient>
<linearGradient id="paint10_linear" x1="180.762" y1="298.096" x2="157.407" y2="395.316" gradientUnits="userSpaceOnUse">
<stop stop-color="#09005D"/>
<stop offset="1" stop-color="#1A0F91"/>
</linearGradient>
<linearGradient id="paint11_linear" x1="180.454" y1="307.314" x2="153.296" y2="408.47" gradientUnits="userSpaceOnUse">
<stop stop-color="#09005D"/>
<stop offset="1" stop-color="#1A0F91"/>
</linearGradient>
<linearGradient id="paint12_linear" x1="119.503" y1="157.527" x2="119.778" y2="90.4387" gradientUnits="userSpaceOnUse">
<stop stop-color="#FEBBBA"/>
<stop offset="1" stop-color="#FF928E"/>
</linearGradient>
<linearGradient id="paint13_linear" x1="166.477" y1="375.452" x2="146.123" y2="125.501" gradientUnits="userSpaceOnUse">
<stop stop-color="#FEBBBA"/>
<stop offset="1" stop-color="#FF928E"/>
</linearGradient>
<linearGradient id="paint14_linear" x1="198.606" y1="377.336" x2="177.673" y2="120.276" gradientUnits="userSpaceOnUse">
<stop stop-color="#FEBBBA"/>
<stop offset="1" stop-color="#FF928E"/>
</linearGradient>
<linearGradient id="paint15_linear" x1="213.503" y1="71.8258" x2="190.108" y2="129.818" gradientUnits="userSpaceOnUse">
<stop stop-color="#09005D"/>
<stop offset="1" stop-color="#1A0F91"/>
</linearGradient>
<linearGradient id="paint16_linear" x1="150.384" y1="143.257" x2="96.9439" y2="128.159" gradientUnits="userSpaceOnUse">
<stop stop-color="#FEBBBA"/>
<stop offset="1" stop-color="#FF928E"/>
</linearGradient>
<linearGradient id="paint17_linear" x1="107.672" y1="122.421" x2="107.28" y2="120.228" gradientUnits="userSpaceOnUse">
<stop stop-color="#09005D"/>
<stop offset="1" stop-color="#1A0F91"/>
</linearGradient>
<linearGradient id="paint18_linear" x1="135.556" y1="117.999" x2="96.3699" y2="121.968" gradientUnits="userSpaceOnUse">
<stop stop-color="#09005D"/>
<stop offset="1" stop-color="#1A0F91"/>
</linearGradient>
<linearGradient id="paint19_linear" x1="126.751" y1="118.895" x2="123.395" y2="119.235" gradientUnits="userSpaceOnUse">
<stop stop-color="#4F52FF"/>
<stop offset="1" stop-color="#4042E2"/>
</linearGradient>
<linearGradient id="paint20_linear" x1="139.006" y1="117.903" x2="119.23" y2="119.907" gradientUnits="userSpaceOnUse">
<stop stop-color="#4F52FF"/>
<stop offset="1" stop-color="#4042E2"/>
</linearGradient>
<linearGradient id="paint21_linear" x1="123.674" y1="119.185" x2="116.852" y2="119.876" gradientUnits="userSpaceOnUse">
<stop stop-color="#4F52FF"/>
<stop offset="1" stop-color="#4042E2"/>
</linearGradient>
<linearGradient id="paint22_linear" x1="113.772" y1="119.927" x2="112.369" y2="120.07" gradientUnits="userSpaceOnUse">
<stop stop-color="#4F52FF"/>
<stop offset="1" stop-color="#4042E2"/>
</linearGradient>
<linearGradient id="paint23_linear" x1="211.572" y1="311.492" x2="223.402" y2="249.278" gradientUnits="userSpaceOnUse">
<stop stop-color="#E1473D"/>
<stop offset="1" stop-color="#E9605A"/>
</linearGradient>
<linearGradient id="paint24_linear" x1="292.606" y1="47.069" x2="135.658" y2="193.554" gradientUnits="userSpaceOnUse">
<stop stop-color="#FFE2E0"/>
<stop offset="1" stop-color="#FF5645"/>
</linearGradient>
<linearGradient id="paint25_linear" x1="180.945" y1="180.69" x2="136.694" y2="290.222" gradientUnits="userSpaceOnUse">
<stop stop-color="#E1473D"/>
<stop offset="1" stop-color="#E9605A"/>
</linearGradient>
<linearGradient id="paint26_linear" x1="151.8" y1="167.05" x2="155.156" y2="143.223" gradientUnits="userSpaceOnUse">
<stop stop-color="#FEBBBA"/>
<stop offset="1" stop-color="#FF928E"/>
</linearGradient>
<linearGradient id="paint27_linear" x1="143.7" y1="136.278" x2="172.34" y2="85.7935" gradientUnits="userSpaceOnUse">
<stop stop-color="#FEBBBA"/>
<stop offset="1" stop-color="#FF928E"/>
</linearGradient>
<linearGradient id="paint28_linear" x1="149.995" y1="92.2377" x2="164.065" y2="127.958" gradientUnits="userSpaceOnUse">
<stop stop-color="#09005D"/>
<stop offset="1" stop-color="#1A0F91"/>
</linearGradient>
<linearGradient id="paint29_linear" x1="149.738" y1="139.704" x2="178.378" y2="89.2197" gradientUnits="userSpaceOnUse">
<stop stop-color="#FEBBBA"/>
<stop offset="1" stop-color="#FF928E"/>
</linearGradient>
<linearGradient id="paint30_linear" x1="187.974" y1="151.701" x2="185.358" y2="209.249" gradientUnits="userSpaceOnUse">
<stop stop-color="#FEBBBA"/>
<stop offset="1" stop-color="#FF928E"/>
</linearGradient>
<linearGradient id="paint31_linear" x1="-195.112" y1="-343.951" x2="-135.049" y2="-247.101" gradientUnits="userSpaceOnUse">
<stop stop-color="#FF928E"/>
<stop offset="1" stop-color="#FE7062"/>
</linearGradient>
<linearGradient id="paint32_linear" x1="161.816" y1="143.331" x2="183.265" y2="168.966" gradientUnits="userSpaceOnUse">
<stop stop-color="#FF928E"/>
<stop offset="1" stop-color="#FE7062"/>
</linearGradient>
<linearGradient id="paint33_linear" x1="-478.641" y1="-414.447" x2="-427.572" y2="-368.236" gradientUnits="userSpaceOnUse">
<stop stop-color="#FF928E"/>
<stop offset="1" stop-color="#FE7062"/>
</linearGradient>
<linearGradient id="paint34_linear" x1="-228.085" y1="-323.504" x2="-168.023" y2="-226.653" gradientUnits="userSpaceOnUse">
<stop stop-color="#FF928E"/>
<stop offset="1" stop-color="#FE7062"/>
</linearGradient>
<linearGradient id="paint35_linear" x1="159.923" y1="139.827" x2="160.034" y2="112.784" gradientUnits="userSpaceOnUse">
<stop stop-color="#E1473D"/>
<stop offset="1" stop-color="#E9605A"/>
</linearGradient>
<linearGradient id="paint36_linear" x1="120.092" y1="152.533" x2="120.324" y2="95.9307" gradientUnits="userSpaceOnUse">
<stop stop-color="#FEBBBA"/>
<stop offset="1" stop-color="#FF928E"/>
</linearGradient>
<linearGradient id="paint37_linear" x1="119.449" y1="135.905" x2="119.586" y2="102.545" gradientUnits="userSpaceOnUse">
<stop stop-color="#FEBBBA"/>
<stop offset="1" stop-color="#FF928E"/>
</linearGradient>
<linearGradient id="paint38_linear" x1="-799.823" y1="-901.927" x2="-724.232" y2="-800.226" gradientUnits="userSpaceOnUse">
<stop stop-color="#FF928E"/>
<stop offset="1" stop-color="#FE7062"/>
</linearGradient>
<linearGradient id="paint39_linear" x1="-69.2211" y1="-491.827" x2="-46.2635" y2="-367.214" gradientUnits="userSpaceOnUse">
<stop stop-color="#FF928E"/>
<stop offset="1" stop-color="#FE7062"/>
</linearGradient>
<linearGradient id="paint40_linear" x1="105.679" y1="0.00048877" x2="137.068" y2="43.4228" gradientUnits="userSpaceOnUse">
<stop stop-color="#FF928E"/>
<stop offset="1" stop-color="#FE7062"/>
</linearGradient>
</defs>
</svg>
