<svg width="384" height="370" viewBox="0 0 384 370" fill="none" xmlns="http://www.w3.org/2000/svg">
<g filter="url(#filter0_b)">
<path d="M145.535 359.679C-7.64471 354.346 -5.00497 220.959 2.91513 161.829C10.8352 102.699 65.6868 17.4943 127.832 5.52672C189.976 -6.44088 267.555 -7.35653 325.38 91.9625C383.204 191.281 385.95 368.049 145.535 359.679Z" fill="url(#paint0_linear)"/>
<path d="M3.42926 161.898C-0.52771 191.44 -3.15118 239.453 14.2905 280.726C23.0065 301.35 36.7304 320.285 57.803 334.399C78.877 348.514 107.335 357.83 145.553 359.16C205.598 361.251 250.408 351.779 282.953 334.885C315.49 317.996 335.792 293.677 346.815 266.012C368.873 210.65 353.796 141.8 324.932 92.2234C296.075 42.6603 262.322 18.1538 228.072 7.50746C193.803 -3.1447 158.972 0.0579703 127.93 6.03609C97.0407 11.9846 67.8917 36.1597 45.4552 66.3017C23.0249 96.4354 7.37521 132.438 3.42926 161.898Z" stroke="url(#paint1_linear)" stroke-width="1.03744"/>
<path d="M3.42926 161.898C-0.52771 191.44 -3.15118 239.453 14.2905 280.726C23.0065 301.35 36.7304 320.285 57.803 334.399C78.877 348.514 107.335 357.83 145.553 359.16C205.598 361.251 250.408 351.779 282.953 334.885C315.49 317.996 335.792 293.677 346.815 266.012C368.873 210.65 353.796 141.8 324.932 92.2234C296.075 42.6603 262.322 18.1538 228.072 7.50746C193.803 -3.1447 158.972 0.0579703 127.93 6.03609C97.0407 11.9846 67.8917 36.1597 45.4552 66.3017C23.0249 96.4354 7.37521 132.438 3.42926 161.898Z" stroke="url(#paint2_linear)" stroke-width="1.03744"/>
</g>
<path d="M95.0303 326.69C108.734 323.382 118.408 302.28 116.639 284.951C114.82 267.117 102.098 265.193 92.2805 243.828C81.1279 219.558 92.0383 210.061 85.2277 173.533C83.6915 165.292 74.7982 117.601 57.5994 115.865C41.697 114.261 16.4959 151.721 22.9449 181.716C27.5438 203.103 44.8497 204.952 50.1363 229.895C54.7741 251.781 42.9848 257.597 47.2696 278.8C52.4844 304.614 77.0367 331.035 95.0303 326.69Z" fill="#91B3FA"/>
<path d="M98.6637 332.138C83.1752 307.6 71.0901 264.265 63.6793 232.233C55.6563 197.553 51.2303 168.282 51.1865 167.99L52.3722 167.812C52.416 168.103 56.8359 197.335 64.8492 231.971C72.2392 263.91 84.2792 307.103 99.6777 331.497L98.6637 332.138Z" fill="#7D97F4"/>
<path d="M279.804 324.948C279.339 333.373 271.695 340.075 262.725 340.075H107.041C98.0378 340.075 90.4701 333.358 90.1365 324.917L79.8275 63.7053C79.3978 52.8217 87.4342 43.9672 97.7798 44.0001L276.617 44.5893C286.919 44.6221 294.779 53.4936 294.18 64.3492L279.804 324.948Z" fill="url(#paint3_linear)"/>
<path d="M276.68 50.1198L98.2759 49.5513C90.8238 49.527 85.0198 55.9103 85.3108 63.7593L94.9881 324.992C95.2145 331.096 100.678 336.016 107.192 336.016L263.204 336.023C269.695 336.023 275.217 331.113 275.539 325.023L289.363 64.3776C289.778 56.5494 284.102 50.1441 276.68 50.1198Z" fill="url(#paint4_linear)"/>
<path opacity="0.53" d="M113.817 69.086C113.913 73.0105 110.977 76.173 107.257 76.162C103.538 76.1511 100.426 72.9703 100.306 69.0459C100.186 65.1068 103.123 61.9139 106.865 61.9248C110.608 61.937 113.721 65.1482 113.817 69.086Z" fill="url(#paint5_linear)"/>
<path opacity="0.53" d="M274.345 69.5629C274.162 73.4788 271.012 76.6352 267.305 76.6254C263.599 76.6145 260.722 73.4411 260.882 69.5239C261.041 65.5934 264.194 62.4053 267.924 62.4175C271.653 62.4273 274.527 65.6323 274.345 69.5629Z" fill="url(#paint6_linear)"/>
<path opacity="0.53" d="M119.963 319.806C120.04 322.908 117.42 325.416 114.113 325.415C110.805 325.415 108.047 322.905 107.952 319.802C107.857 316.689 110.477 314.16 113.802 314.161C117.129 314.162 119.886 316.693 119.963 319.806Z" fill="url(#paint7_linear)"/>
<path opacity="0.53" d="M262.706 319.837C262.562 322.935 259.772 325.439 256.475 325.438C253.178 325.438 250.607 322.933 250.732 319.835C250.859 316.727 253.649 314.201 256.965 314.203C260.279 314.204 262.849 316.731 262.706 319.837Z" fill="url(#paint8_linear)"/>
<path d="M231.942 133.718C231.222 158.916 210.902 178.888 186.529 178.844C162.143 178.801 142.114 158.738 141.799 133.514C141.477 107.696 161.838 86.3739 187.273 86.4445C212.69 86.5151 232.678 107.928 231.942 133.718Z" fill="url(#paint9_linear)"/>
<path d="M224.89 133.702C224.351 154.995 207.208 171.925 186.584 171.886C165.95 171.848 149.059 154.842 148.862 133.53C148.66 111.797 165.832 93.9063 187.211 93.9635C208.58 94.0219 225.441 111.989 224.89 133.702Z" fill="url(#paint10_linear)"/>
<path d="M216.193 133.682C215.841 150.137 202.62 163.271 186.655 163.241C170.683 163.209 157.662 150.017 157.574 133.549C157.485 116.833 170.723 103.127 187.138 103.17C203.546 103.213 216.55 116.978 216.193 133.682Z" fill="url(#paint11_linear)"/>
<path d="M200.243 133.646C200.138 141.175 194.111 147.229 186.783 147.213C179.454 147.197 173.522 141.117 173.537 133.586C173.551 126.002 179.58 119.83 187.002 119.849C194.424 119.867 200.351 126.065 200.243 133.646Z" fill="url(#paint12_linear)"/>
<path d="M178.535 133.693C178.223 133.692 177.972 133.434 177.974 133.115C177.994 127.955 182.116 123.748 187.162 123.759C187.462 123.76 187.765 123.776 188.061 123.806C188.371 123.838 188.597 124.123 188.564 124.443C188.531 124.763 188.255 124.996 187.942 124.964C187.681 124.937 187.416 124.924 187.152 124.923C182.733 124.912 179.121 128.595 179.101 133.116C179.1 133.436 178.845 133.694 178.535 133.693Z" fill="white"/>
<path d="M248.135 252.924C246.89 285.683 218.856 311.482 185.463 311.472C152.044 311.462 124.368 285.61 123.647 252.805C122.903 218.93 151.015 190.693 186.433 190.751C221.824 190.809 249.419 219.098 248.135 252.924Z" fill="url(#paint13_linear)"/>
<path d="M238.4 252.916C237.477 280.618 213.826 302.529 185.533 302.516C157.224 302.504 133.883 280.549 133.404 252.815C132.913 224.32 156.62 200.676 186.352 200.722C216.064 200.767 239.348 224.455 238.4 252.916Z" fill="url(#paint14_linear)"/>
<path d="M226.392 252.904C225.803 274.33 207.56 291.368 185.625 291.357C163.68 291.345 145.686 274.273 145.44 252.827C145.189 230.928 163.465 212.86 186.256 212.892C209.034 212.924 226.993 231.026 226.392 252.904Z" fill="url(#paint15_linear)"/>
<path d="M204.371 252.883C204.205 262.702 195.887 270.588 185.791 270.581C175.693 270.573 167.497 262.671 167.49 252.847C167.481 242.93 175.805 234.831 186.079 234.843C196.35 234.854 204.538 242.969 204.371 252.883Z" fill="url(#paint16_linear)"/>
<path d="M174.389 252.98C173.96 252.98 173.612 252.642 173.613 252.225C173.627 245.478 179.318 239.962 186.297 239.97C186.713 239.97 187.132 239.99 187.542 240.031C187.972 240.072 188.283 240.444 188.237 240.864C188.191 241.283 187.81 241.589 187.376 241.549C187.016 241.514 186.649 241.496 186.283 241.496C180.171 241.49 175.186 246.318 175.168 252.228C175.168 252.643 174.819 252.98 174.389 252.98Z" fill="white"/>
<path d="M335.233 79.2243C334.695 78.3454 334.057 77.5615 333.374 76.8117C333.042 76.4282 332.673 76.0813 332.318 75.721C331.952 75.3704 331.57 75.0381 331.194 74.6984C329.653 73.3838 327.963 72.2444 326.176 71.295C324.391 70.3431 322.526 69.5275 320.594 68.9225C318.677 68.2676 316.691 67.8404 314.701 67.4776C310.709 66.7984 306.635 66.6815 302.604 66.9359C301.592 66.9603 300.589 67.0942 299.584 67.1928L298.076 67.3486C297.573 67.3997 297.076 67.4971 296.577 67.5689C295.58 67.7284 294.578 67.872 293.585 68.051L290.62 68.673C289.627 68.8616 288.653 69.1283 287.677 69.3815C286.7 69.6395 285.719 69.8769 284.748 70.152L281.854 71.0406L280.407 71.4849C279.926 71.637 279.455 71.816 278.978 71.9803C277.079 72.6608 275.161 73.2913 273.299 74.0691L270.489 75.1878L269.786 75.469L269.095 75.7745L267.712 76.3856L264.945 77.6078L264.254 77.9133L263.573 78.2407L262.213 78.8993L259.491 80.2151C259.039 80.4379 258.58 80.6473 258.134 80.8798L256.795 81.5821L254.118 82.9856L252.779 83.688L252.109 84.0398L251.451 84.411L246.186 87.38C232.344 95.5016 217.805 102.411 202.817 108.13C195.32 110.983 187.713 113.546 180.007 115.763C176.156 116.884 172.281 117.914 168.384 118.852C164.488 119.793 160.571 120.652 156.63 121.386C152.691 122.126 148.735 122.766 144.762 123.288C140.79 123.807 136.801 124.191 132.805 124.441C124.817 124.93 116.779 124.863 108.849 123.863C100.937 122.856 93.09 120.896 85.9532 117.371C82.389 115.616 79.0574 113.399 76.0884 110.776C75.705 110.462 75.3569 110.109 75.0026 109.763C74.6496 109.416 74.2905 109.075 73.9412 108.724L72.943 107.623L72.4439 107.073C72.2845 106.884 72.1336 106.687 71.979 106.495L71.0526 105.334C70.7507 104.942 70.4805 104.525 70.1932 104.122C69.6029 103.325 69.111 102.464 68.5949 101.62C68.3247 101.203 68.1141 100.754 67.8804 100.317C67.6528 99.8764 67.4178 99.4407 67.1963 98.9976L66.5937 97.6379C66.3905 97.1851 66.186 96.7335 66.0253 96.2636C65.6844 95.3324 65.3144 94.4097 65.0527 93.4505L64.6218 92.0251L64.2749 90.5753C64.1677 90.0908 64.0265 89.6124 63.9462 89.1206L63.6832 87.6514C63.4885 86.6764 63.3875 85.6807 63.2487 84.6947C63.0344 82.713 62.8762 80.724 62.8616 78.7313C62.8506 76.7398 62.9444 74.7496 63.1769 72.7739C63.4106 70.7995 63.8025 68.8458 64.3418 66.9347C65.4215 63.1149 67.1586 59.479 69.5274 56.2897C70.7093 54.6939 72.041 53.2088 73.492 51.8503C74.9491 50.4967 76.5242 49.2685 78.1846 48.1681C79.845 47.0677 81.5905 46.0914 83.3945 45.2381C85.2009 44.3897 87.0646 43.6593 88.9647 43.0397C92.7663 41.8042 96.7163 41.0166 100.703 40.6697C102.695 40.5054 104.702 40.4457 106.697 40.5735C107.694 40.6368 108.688 40.7452 109.664 40.9363C110.152 41.03 110.635 41.1505 111.102 41.3076C111.568 41.4622 112.027 41.6594 112.393 41.9527L112.586 41.7251C112.167 41.3842 111.687 41.1773 111.205 41.0093C110.722 40.8401 110.228 40.7111 109.731 40.6089C108.737 40.4019 107.73 40.2802 106.722 40.2035C104.705 40.0513 102.682 40.0854 100.668 40.2266C96.6408 40.5285 92.6494 41.2942 88.7931 42.5066C86.8661 43.1164 84.9733 43.837 83.134 44.6806C81.2959 45.5278 79.515 46.5041 77.8157 47.6081C76.1164 48.7122 74.4987 49.949 72.999 51.3184C71.503 52.6927 70.1275 54.1997 68.9017 55.8235C66.4428 59.0675 64.623 62.7863 63.5019 66.6961C62.9395 68.6499 62.5269 70.6474 62.2761 72.6644C62.0266 74.6802 61.9194 76.7106 61.9194 78.7398C61.9231 80.769 62.0728 82.7921 62.2797 84.8066C62.4149 85.8097 62.5122 86.8176 62.7058 87.8158L62.965 89.3167C63.0454 89.8182 63.1854 90.3075 63.2925 90.8041L63.6394 92.288L64.0728 93.75C64.3369 94.7335 64.7094 95.6818 65.0539 96.6385C65.2158 97.1218 65.4239 97.5855 65.6297 98.0518L66.2407 99.4516C66.4647 99.9081 66.7045 100.359 66.9358 100.813C67.1732 101.263 67.3886 101.726 67.6637 102.156C68.1896 103.029 68.6923 103.918 69.2937 104.742C69.587 105.158 69.8633 105.588 70.1725 105.993L71.1196 107.195C71.279 107.394 71.4324 107.598 71.5967 107.792L72.1068 108.362L73.1281 109.5C73.4847 109.864 73.8523 110.217 74.2139 110.576C74.5778 110.934 74.9345 111.299 75.3265 111.624C78.366 114.34 81.7755 116.633 85.4127 118.45C89.0487 120.272 92.8794 121.672 96.7844 122.755C100.692 123.836 104.678 124.596 108.691 125.113C116.72 126.14 124.832 126.222 132.885 125.743C136.913 125.5 140.932 125.119 144.932 124.604C148.932 124.085 152.915 123.449 156.879 122.711C160.843 121.98 164.783 121.124 168.704 120.185C172.624 119.246 176.524 118.227 180.393 117.096C188.133 114.85 195.77 112.256 203.293 109.372C218.334 103.593 232.925 96.6202 246.801 88.4305L252.019 85.4384L252.672 85.0647L253.335 84.7105L254.662 84.0032L257.315 82.5876L258.642 81.8803C259.085 81.6466 259.539 81.4348 259.987 81.2108L262.685 79.8828L264.034 79.2182L264.708 78.8871L265.393 78.5791L268.134 77.346L269.505 76.7289L270.191 76.4209L270.886 76.1373L273.669 75.0064C275.514 74.2189 277.413 73.5822 279.292 72.892C279.764 72.7253 280.23 72.5439 280.708 72.3893L282.139 71.9389L285.003 71.0369C285.964 70.757 286.935 70.5147 287.901 70.253C288.867 69.9961 289.831 69.7235 290.812 69.5299L293.745 68.8933C294.727 68.7095 295.715 68.561 296.701 68.3894C297.196 68.3127 297.686 68.2104 298.182 68.1544L299.67 67.9828C300.664 67.8744 301.654 67.7308 302.653 67.6943C306.634 67.3961 310.656 67.4667 314.601 68.0899C316.567 68.4259 318.528 68.8227 320.425 69.4472C322.336 70.0205 324.18 70.8032 325.95 71.7198C327.721 72.6352 329.406 73.7259 330.942 74.9991C331.316 75.3278 331.699 75.6491 332.063 75.9888C332.419 76.3381 332.787 76.6753 333.121 77.0466C333.803 77.7696 334.449 78.5462 334.974 79.374L335.233 79.2243Z" fill="#BDD0FB"/>
<path d="M300.085 68.7778C300.085 68.7778 302.314 82.0643 297.943 92.5997C297.605 93.4153 296.554 93.643 295.914 93.0344C292.615 89.9048 283.888 81.1514 280.53 73.1649C280.53 73.1661 292.664 69.5691 300.085 68.7778Z" fill="url(#paint17_linear)"/>
<path d="M277.119 74.5718C277.119 74.5718 278.962 87.0853 275.474 97.398C275.119 98.4473 273.862 98.8722 272.934 98.2684C269.769 96.2076 263.157 91.1157 258.971 82.3709C258.971 82.3721 268.482 77.352 277.119 74.5718Z" fill="#91B3FA"/>
<path d="M257.287 83.2236C257.287 83.2236 259.213 96.2995 254.995 103.518C254.57 104.246 253.619 104.459 252.931 103.972C250.512 102.257 244.969 98.0256 241.213 92.8279C241.213 92.8279 254.215 84.8816 257.287 83.2236Z" fill="url(#paint18_linear)"/>
<path d="M238.731 94.3984C238.731 94.3984 241.839 106.873 237.922 114.073C237.525 114.802 236.598 115.049 235.899 114.603C232.893 112.683 225.144 107.373 222.692 102.189C222.692 102.188 236.249 95.9699 238.731 94.3984Z" fill="#91B3FA"/>
<path d="M220.167 103.465L204.839 109.945C204.839 109.945 212.697 121.805 218.025 124.113C218.575 124.351 219.212 124.068 219.426 123.506C220.39 120.988 222.622 113.543 220.167 103.465Z" fill="url(#paint19_linear)"/>
<path d="M202.565 110.882C202.565 110.882 190.562 115.364 187.063 116.181C187.063 116.181 190.715 125.666 195.847 129.88C196.642 130.532 197.828 130.348 198.368 129.472C200.199 126.509 203.817 119.375 202.565 110.882Z" fill="#91B3FA"/>
<path d="M184.703 116.529C184.703 116.529 173.541 120.585 170.295 121.063C170.295 121.063 175.403 131.547 180.25 137.368C180.615 137.807 181.304 137.769 181.619 137.294C183.151 134.992 186.662 128.207 184.703 116.529Z" fill="url(#paint20_linear)"/>
<path d="M168.821 121.28C168.821 121.28 158.032 123.774 153.267 124.175C153.267 124.175 157.333 136.954 163.442 139.948C163.962 140.203 164.59 139.99 164.86 139.478C166.177 136.976 169.754 129.303 168.821 121.28Z" fill="#7D97F4"/>
<path d="M151.791 124.392C151.791 124.392 140.959 126.59 137.331 126.522C137.331 126.522 142.125 138.462 146.894 142.204C147.688 142.826 148.837 142.682 149.467 141.895C150.934 140.059 153.009 135.435 151.791 124.392Z" fill="#91B3FA"/>
<path d="M134.673 126.914C134.673 126.914 124.509 127.506 121.471 127.351C121.471 127.351 122.186 135.863 128.163 142.291C128.799 142.974 129.882 142.997 130.538 142.334C132.349 140.5 135.372 136.016 134.673 126.914Z" fill="#7D97F4"/>
<path d="M118.728 127.152C118.728 127.152 110.247 126.894 105.855 125.731C105.855 125.731 105.164 135.269 110.044 140.47C110.721 141.191 111.826 141.321 112.655 140.782C114.778 139.404 118.496 135.771 118.728 127.152Z" fill="url(#paint21_linear)"/>
<path d="M103.997 125.401C103.997 125.401 95.1782 124.891 92.174 122.921C92.174 122.921 91.1856 132.902 95.4777 138.937C95.8428 139.451 96.572 139.536 97.0382 139.111C98.729 137.575 102.431 133.418 103.997 125.401Z" fill="#91B3FA"/>
<path d="M90.2731 122.298C90.2731 122.298 79.7523 118.421 75.4711 113.925C75.4711 113.925 70.8394 125.57 75.8059 134.347C76.0055 134.702 76.4194 134.875 76.8101 134.761C79.1302 134.091 86.9865 131.214 90.2731 122.298Z" fill="url(#paint22_linear)"/>
<path d="M64.3581 99.8828C64.3581 99.8828 68.3179 108.345 72.7633 111.912C72.7633 111.912 66.6076 120.194 59.1798 122.259C58.5334 122.439 57.8713 122.043 57.7227 121.39C57.0557 118.434 56.195 110.017 64.3581 99.8828Z" fill="url(#paint23_linear)"/>
<path d="M60.0912 79.104C60.0912 79.104 59.7114 88.8081 62.9165 98.287C62.9165 98.287 57.1539 100.892 53.6884 105.317C52.8339 106.409 51.0773 105.754 51.1455 104.368C51.4206 98.7946 53.1224 89.564 60.0912 79.104Z" fill="#7D97F4"/>
<path d="M339.881 313.426C339.881 313.426 341.665 310.784 343.613 308.34C344.374 307.385 345.709 307.184 346.542 307.891C349.371 310.294 355.4 315.456 357.383 317.501C357.681 317.809 357.551 318.358 357.132 318.576C356.78 318.759 356.387 318.805 356.035 318.705L341.859 314.698L339.881 313.426Z" fill="url(#paint24_linear)"/>
<path d="M338.351 314.528L341.246 312.079C341.246 312.079 343.94 312.957 344.305 315.138L340.665 317.481L338.351 314.528Z" fill="url(#paint25_linear)"/>
<path d="M274.193 249.131C269.676 238.995 265.411 223.846 270.379 208.707L273.257 205.83C273.257 205.83 273.258 229.543 279.158 241.319C277.509 243.926 275.859 246.535 274.193 249.131Z" fill="url(#paint26_linear)"/>
<path d="M273.946 201.297L275.032 202.926C275.332 203.374 275.408 203.932 275.24 204.444C274.8 205.779 273.803 208.406 272.398 209.811C270.463 211.746 268.528 207.101 268.141 205.554C267.754 204.005 270.464 200.136 271.237 199.362C272.012 198.589 275.108 198.976 273.946 201.297Z" fill="url(#paint27_linear)"/>
<path d="M288.775 360.833C288.775 360.833 289.331 363.981 289.604 367.098C289.711 368.316 288.771 369.373 287.55 369.424C283.401 369.597 274.523 369.933 271.337 369.79C270.859 369.769 270.546 369.279 270.723 368.833C270.871 368.46 271.157 368.159 271.522 367.991L286.186 361.252L288.775 360.833Z" fill="url(#paint28_linear)"/>
<path d="M289.23 358.982L288.783 362.747C288.783 362.747 286.215 363.943 284.46 362.596L285.524 358.4L289.23 358.982Z" fill="url(#paint29_linear)"/>
<path d="M288.894 288.189C289.087 289.172 289.93 337.26 284.79 358.811C284.706 359.163 284.884 359.526 285.219 359.662C286.008 359.984 287.553 360.451 289.406 360.513C289.979 360.532 290.494 360.159 290.656 359.608C292.125 354.609 302.22 325.677 303.139 301.745C304.165 275.004 299.482 288.186 299.482 288.186L288.894 288.189Z" fill="url(#paint30_linear)"/>
<path d="M311.105 289.05C315.417 299.921 316.825 301.621 318.75 314.031C321.056 328.913 332.316 318.637 338.329 313.804C339.089 313.193 341.347 315.381 341.567 318.457C341.855 322.466 317.563 341.501 310.991 328.044C306.794 319.449 305.631 309.776 302.845 304.424C302.497 303.756 301.929 303.231 301.237 302.934L292.661 299.261L290.241 290.847L311.105 289.05Z" fill="url(#paint31_linear)"/>
<path d="M315.795 250.439C320.312 240.303 324.576 225.154 319.609 210.015L316.731 207.137C316.731 207.137 316.73 230.851 310.83 242.627C312.479 245.234 314.128 247.843 315.795 250.439Z" fill="url(#paint32_linear)"/>
<path d="M288.886 246.812H303.072C304.498 246.812 305.865 246.266 306.897 245.284C308.219 244.025 309.919 241.892 311.124 238.536C311.307 238.027 311.854 237.747 312.372 237.901C314.198 238.442 318.192 239.991 320.287 243.598C320.483 243.935 320.48 244.354 320.269 244.681L311.42 258.374L312.292 292.154C312.292 292.154 290.056 295.642 287.004 292.154L283.953 261.199C283.953 261.199 273.053 254.659 270.001 244.195L279.157 238.963C279.157 238.963 280.223 239.007 281.133 241.459C282.332 244.69 285.442 246.812 288.886 246.812Z" fill="url(#paint33_linear)"/>
<path d="M301.033 236.492L301.361 247.44C301.382 248.142 300.943 248.774 300.277 248.995C298.914 249.446 296.447 250.005 293.687 249.41C292.864 249.232 292.338 248.419 292.482 247.589L293.982 238.964L301.033 236.492Z" fill="url(#paint34_linear)"/>
<path d="M293.529 226.466C293.43 226.591 290.12 235.596 288.665 239.565C288.296 240.57 288.843 241.676 289.865 241.995L293.066 242.579C295.188 242.966 297.296 241.836 298.147 239.853L302.002 235.361C304.097 232.919 303.378 229.144 300.511 227.682C297.688 226.245 294.593 225.133 293.529 226.466Z" fill="url(#paint35_linear)"/>
<path d="M299.899 236.369L298.983 235.912C298.983 235.912 302.648 229.956 298.525 229.498C294.402 229.04 290.737 228.124 290.737 225.833C290.737 223.542 290.737 219.419 295.776 221.251C300.816 223.083 300.358 226.29 303.107 226.748C305.855 227.206 308.146 227.665 307.23 230.413C306.313 233.162 304.481 234.995 305.398 235.91C306.313 236.827 302.19 241.409 299.899 236.369Z" fill="url(#paint36_linear)"/>
<path d="M298.921 238.154C298.921 238.154 299.683 234.126 301.383 234.026C303.083 233.926 304.645 235.41 302.832 237.589C300.579 240.301 298.921 238.154 298.921 238.154Z" fill="url(#paint37_linear)"/>
<path d="M316.042 202.605L314.956 204.234C314.656 204.682 314.58 205.24 314.748 205.752C315.188 207.087 316.185 209.714 317.59 211.118C319.525 213.054 321.46 208.409 321.847 206.862C322.234 205.315 319.524 201.444 318.751 200.669C317.976 199.895 314.88 200.282 316.042 202.605Z" fill="url(#paint38_linear)"/>
<path d="M293.087 226.576C293.08 226.576 293.074 226.574 293.066 226.573C293.041 226.568 292.438 226.438 292.096 225.789C291.72 225.076 291.81 224.047 292.363 222.73C292.385 222.678 292.445 222.651 292.499 222.674C292.553 222.696 292.577 222.757 292.555 222.811C292.034 224.05 291.939 225.046 292.28 225.692C292.577 226.256 293.103 226.369 293.108 226.37C293.164 226.382 293.2 226.437 293.189 226.493C293.178 226.542 293.134 226.576 293.087 226.576Z" fill="#91B3FA"/>
<path d="M189.629 212.283C189.629 212.283 192.441 206.809 189.801 205.167C187.162 203.525 185.047 205.969 183.99 207.191C182.932 208.413 186.486 213.197 187.432 213.587C188.378 213.977 189.629 212.283 189.629 212.283Z" fill="url(#paint39_linear)"/>
<path d="M186.757 211.336C186.757 211.336 195.947 235.498 179.957 245.006C177.694 246.351 177.061 249.335 178.502 251.538C178.813 252.013 179.161 252.49 179.548 252.956C181.399 255.176 184.797 255.186 186.675 252.989C191.805 246.985 200.473 232.589 189.399 212.125L186.757 211.336Z" fill="url(#paint40_linear)"/>
<path d="M171.071 310.356L182.899 307.044L185.863 324.031C185.863 324.031 190.672 324.105 194.642 326.573C198.613 329.039 212.616 341.982 212.616 341.982L215.067 341.418L216.01 342.016L217.374 352.418L213.456 346.884C212.834 346.005 211.127 344.655 211.16 344.56C203.602 340.981 185.42 330.594 180.593 327.823C179.814 327.376 179.189 326.709 178.79 325.904L171.071 310.356Z" fill="url(#paint41_linear)"/>
<path d="M171.835 360.1C171.934 360.098 172.03 360.106 172.128 360.1C171.69 354.633 169.688 330.57 167.683 321.551C165.415 311.348 171.084 290.943 171.084 290.943L181.287 301.146L175.618 320.418C179.503 326.245 174.984 360.366 175.082 360.352L175.075 360.427L176.554 362.461L176.374 363.564L167.34 368.896L170.895 363.122C171.46 362.205 171.772 361.167 171.835 360.1Z" fill="url(#paint42_linear)"/>
<path d="M166.747 369.732H169.63C170.17 369.732 170.678 369.485 171.008 369.056C171.906 367.889 173.769 365.61 174.66 365.55C175.859 365.47 175.706 369.732 175.706 369.732H176.378L177.228 364.437C177.443 363.104 176.779 361.784 175.584 361.16C175.584 361.16 175.31 363.186 173.824 364.082C172.337 364.978 167.778 368.189 167.778 368.189C167.778 368.189 167.219 368.11 166.605 368.221C165.695 368.384 165.821 369.732 166.747 369.732Z" fill="url(#paint43_linear)"/>
<path d="M217.911 353.292L219.04 350.64C219.252 350.143 219.223 349.578 218.959 349.107C218.237 347.823 216.87 345.216 217.165 344.373C217.56 343.239 221.421 345.05 221.421 345.05L221.684 344.432L217.146 341.574C216.005 340.854 214.531 340.947 213.487 341.803C213.487 341.803 215.244 342.849 215.486 344.567C215.728 346.286 216.894 351.739 216.894 351.739C216.894 351.739 216.602 352.221 216.464 352.83C216.259 353.732 217.548 354.143 217.911 353.292Z" fill="url(#paint44_linear)"/>
<path d="M168.486 273.691C168.486 273.691 168.82 275.735 168.332 281.353C167.844 286.97 165.508 300.159 165.984 312.779C165.984 312.779 172.621 314.326 184.155 313.593C184.155 313.593 189.021 293.891 187.836 286.401C186.65 278.911 180.218 273.537 180.218 273.537L168.486 273.691Z" fill="url(#paint45_linear)"/>
<path d="M173.391 236.152L172.581 245.692H180.288L178.371 231.129L173.391 236.152Z" fill="url(#paint46_linear)"/>
<path d="M182.571 244.372C179.911 244.225 173.964 243.954 169.75 244.184C167.532 244.304 165.673 245.896 165.219 248.072L164.192 252.997C163.809 254.831 163.867 256.73 164.358 258.538L168.486 273.69C168.486 273.69 172.157 275.897 180.218 273.536C180.218 273.536 187.297 256.656 184.4 245.859C184.173 245.02 183.438 244.421 182.571 244.372Z" fill="#BDD0FB"/>
<path d="M170.128 225.135C169.853 225.297 167.684 232.946 169.501 236.153C171.318 239.359 176.868 235.768 178.371 231.13C179.876 226.494 177.46 220.811 170.128 225.135Z" fill="url(#paint47_linear)"/>
<path d="M184.511 231.129C185.756 237.228 189.88 235.559 192.8 238.272C197.534 242.67 204.307 238.137 210.891 242.304C215.645 245.313 217.935 253.009 215.653 259.223C212.495 267.829 201.697 271.369 196.103 268.748C190.755 266.243 191.517 258.74 184.322 255.84C181.268 254.609 179.76 255.409 177.93 253.584C174.728 250.39 175.592 244.192 175.925 241.804C176.647 236.622 178.385 235.685 177.554 233.407C175.939 228.977 168.406 229.891 167.778 226.764C167.206 223.917 172.667 218.52 177.805 219.371C185.755 220.685 183.956 228.412 184.511 231.129Z" fill="url(#paint48_linear)"/>
<path opacity="0.52" d="M213.28 257.765C213.374 257.765 213.459 257.702 213.482 257.605C214.5 253.38 214.038 249.915 212.109 247.306C208.907 242.976 202.686 242.548 202.623 242.544C202.525 242.528 202.41 242.625 202.402 242.739C202.395 242.853 202.483 242.952 202.597 242.959C202.658 242.963 208.692 243.382 211.775 247.556C213.627 250.061 214.064 253.41 213.077 257.508C213.05 257.62 213.118 257.732 213.23 257.759C213.247 257.764 213.264 257.765 213.28 257.765Z" fill="white"/>
<path opacity="0.52" d="M192.901 261.634C192.909 261.634 192.918 261.633 192.928 261.63C192.982 261.616 193.017 261.558 193.002 261.502C192.011 257.699 190.27 255.057 187.832 253.65C186.057 252.626 184.397 252.531 182.93 252.447C181.517 252.366 180.296 252.295 179.314 251.422C177.283 249.616 177.4 245.274 179.663 238.517C179.681 238.462 179.652 238.404 179.597 238.385C179.543 238.367 179.484 238.396 179.466 238.451C177.174 245.295 177.076 249.711 179.176 251.578C180.212 252.5 181.467 252.573 182.919 252.655C184.362 252.738 185.998 252.832 187.729 253.831C190.118 255.209 191.825 257.808 192.801 261.556C192.812 261.604 192.855 261.634 192.901 261.634Z" fill="white"/>
<path opacity="0.52" d="M181.566 229.617C181.577 229.617 181.588 229.616 181.599 229.612C181.654 229.594 181.683 229.535 181.665 229.481C180.878 227.137 178.606 227.485 176.201 227.855C174.678 228.088 173.104 228.329 171.769 227.935C170.773 227.639 170.18 227.182 170.01 226.574C169.718 225.54 170.741 224.386 170.751 224.375C170.79 224.332 170.786 224.266 170.744 224.227C170.701 224.188 170.635 224.192 170.596 224.235C170.55 224.284 169.486 225.484 169.809 226.63C170.001 227.311 170.64 227.817 171.709 228.134C173.089 228.543 174.686 228.298 176.232 228.06C178.647 227.689 180.735 227.368 181.468 229.548C181.481 229.589 181.523 229.617 181.566 229.617Z" fill="white"/>
<path d="M151.491 215.47C151.491 215.47 147.408 210.866 149.557 208.619C151.705 206.373 154.361 208.216 155.689 209.137C157.017 210.058 154.762 215.575 153.944 216.187C153.125 216.8 151.491 215.47 151.491 215.47Z" fill="url(#paint49_linear)"/>
<path d="M154.039 213.839C154.039 213.839 151.139 239.527 168.99 244.764C171.516 245.505 172.871 248.238 172.021 250.729C171.838 251.266 171.62 251.815 171.36 252.363C170.118 254.974 166.829 255.827 164.464 254.165C158.004 249.624 146.031 237.831 151.674 215.258L154.039 213.839Z" fill="url(#paint50_linear)"/>
<path d="M89.5506 237.401C89.5506 237.401 42.5519 237.619 56.111 274.102L58.1402 272.411C58.1402 272.411 57.1372 249.886 79.3767 253.715C79.3755 253.715 88.8738 240.714 89.5506 237.401Z" fill="url(#paint51_linear)"/>
<path d="M79.8713 365.359C79.87 365.278 79.8749 365.198 79.8956 365.117C81.1032 360.328 86.0428 357.873 86.0428 357.873L88.419 358.059C89.7847 362.28 90.666 364.34 90.4457 365.494C90.4396 365.527 90.4298 365.557 90.4213 365.588C88.4615 365.763 84.4275 365.877 79.8713 365.359Z" fill="url(#paint52_linear)"/>
<path d="M90.4212 365.589C90.3153 365.974 90.0316 366.274 89.6677 366.35C86.8801 366.936 82.4493 366.464 80.5881 366.221C80.1779 366.167 79.8772 365.787 79.8711 365.359C84.4273 365.877 88.4614 365.763 90.4212 365.589Z" fill="url(#paint53_linear)"/>
<path d="M84.0874 354.176L85.1282 359.184C85.2049 359.552 85.4861 359.826 85.8281 359.859C86.2457 359.897 86.8409 359.921 87.4398 359.833C87.9766 359.754 88.3503 359.208 88.2554 358.623L87.5323 354.178H84.0874V354.176Z" fill="url(#paint54_linear)"/>
<path d="M110.607 365.546C108.07 365.476 106.757 365.176 106.079 364.899C106.078 365.151 106.079 365.408 106.088 365.674C106.096 365.958 106.307 366.186 106.566 366.184L120.498 366.094C120.942 366.092 121.202 365.576 121.009 365.168C119.182 365.319 114.529 365.657 110.607 365.546Z" fill="url(#paint55_linear)"/>
<path d="M121.007 365.167C120.99 365.132 120.976 365.095 120.952 365.062C119.722 363.344 116.589 359.919 110.396 358.436L107.426 358.342C107.426 358.342 106.103 360.641 106.079 364.899C106.757 365.177 108.069 365.475 110.607 365.547C114.529 365.656 119.181 365.318 121.007 365.167Z" fill="url(#paint56_linear)"/>
<path d="M106.876 353.84C106.909 354.062 107.317 357.426 107.474 358.731C107.512 359.042 107.736 359.281 108.019 359.316C108.526 359.376 109.344 359.431 110.06 359.284C110.445 359.205 110.725 358.833 110.725 358.403V353.12L106.876 353.84Z" fill="url(#paint57_linear)"/>
<path d="M86.0704 288.421C86.0704 288.421 81.3169 330.673 83.9571 357.08C83.9571 357.08 87.1257 357.08 88.7106 356.552C88.7106 356.552 93.6503 315.24 95.2486 303.419C95.3082 302.974 95.9448 302.953 96.0325 303.395C98.0044 313.34 105.747 352.341 106.669 356.025C106.669 356.025 109.309 357.081 111.422 356.025C111.422 356.025 107.197 299.513 104.029 289.478L86.0704 288.421Z" fill="url(#paint58_linear)"/>
<path d="M76.5637 239.304C76.5637 239.304 96.6328 236.135 112.478 240.36L111.421 256.733C111.421 256.733 107.196 279.443 104.028 289.478C104.028 289.478 91.8806 291.591 86.0706 288.422C86.0706 288.422 81.3171 259.901 78.6769 255.676C78.6769 255.677 76.0366 244.585 76.5637 239.304Z" fill="url(#paint59_linear)"/>
<path d="M90.5061 224.873L88.5073 238.393C88.5073 238.393 94.0934 240.959 98.0045 238.284L97.1621 228.742L90.5061 224.873Z" fill="url(#paint60_linear)"/>
<path d="M99.1153 216.068C99.1786 216.182 100.384 223 101.125 227.22C101.432 228.963 100.15 230.584 98.3825 230.688L96.7636 230.784C93.7898 230.961 91.1714 228.843 90.721 225.898L89.5513 218.254C89.5513 218.254 97.5864 213.295 99.1153 216.068Z" fill="url(#paint61_linear)"/>
<path d="M87.8057 218.273C87.1849 217.501 86.6445 216.253 87.9652 214.941C89.303 213.613 90.8209 213.944 91.7837 214.39C92.2098 214.587 92.7344 214.499 93.0387 214.141C93.1738 213.982 93.3735 213.873 93.6705 213.908C94.2304 213.971 94.7295 213.601 94.7965 213.042C94.9109 212.083 95.4209 210.954 97.1166 210.627C100.225 210.026 101.776 213.138 101.722 215.324C101.667 217.512 98.2584 217.971 96.3242 217.608C94.9036 217.341 93.6754 218.589 93.124 219.271C92.9231 219.518 92.8489 219.842 92.9207 220.152L93.4125 222.265C93.0716 222.923 92.7381 223.593 92.2597 224.153C91.9152 224.557 91.5378 224.78 91.1373 224.874C90.5579 223.795 88.9365 223.612 88.183 223.587C87.8945 223.578 87.6256 223.451 87.4357 223.233C86.8672 222.581 85.9773 221.127 87.6803 219.698C88.1039 219.343 88.1526 218.704 87.8057 218.273Z" fill="url(#paint62_linear)"/>
<path d="M91.6971 227.135C91.6971 227.135 91.6302 223.32 90.0867 222.962C88.5432 222.604 86.8767 223.72 88.1975 226.004C89.8396 228.844 91.6971 227.135 91.6971 227.135Z" fill="url(#paint63_linear)"/>
<path d="M56.005 273.905C56.005 273.905 53.9296 279.694 56.7585 280.978C59.5874 282.263 61.3658 279.566 62.2545 278.218C63.1431 276.869 59.0007 272.59 58.0135 272.326C57.0251 272.063 56.005 273.905 56.005 273.905Z" fill="url(#paint64_linear)"/>
<path d="M101.957 259.074C101.957 259.074 147.307 246.73 124.788 214.984L123.264 217.141C123.264 217.141 130.048 238.643 107.575 240.686C107.576 240.686 101.755 255.698 101.957 259.074Z" fill="url(#paint65_linear)"/>
<path d="M124.943 215.147C124.943 215.147 125.454 209.018 122.389 208.507C119.324 207.995 118.303 211.06 117.793 212.593C117.281 214.125 122.389 217.189 123.412 217.189C124.432 217.191 124.943 215.147 124.943 215.147Z" fill="url(#paint66_linear)"/>
<path d="M99.0564 216.274C99.0052 216.274 98.9602 216.236 98.9541 216.184C98.9468 216.126 98.9858 216.074 99.043 216.067C99.0491 216.065 99.6078 215.983 99.9864 215.439C100.369 214.891 100.447 214.081 100.219 213.032C100.052 212.264 99.6967 211.739 99.1635 211.473C98.1179 210.949 96.7132 211.581 96.6986 211.587C96.645 211.61 96.5841 211.588 96.561 211.536C96.5366 211.484 96.5597 211.422 96.6121 211.398C96.6729 211.37 98.1215 210.719 99.256 211.286C99.8476 211.582 100.24 212.154 100.421 212.987C100.662 214.097 100.572 214.964 100.153 215.56C99.7198 216.177 99.0966 216.267 99.0698 216.271C99.0649 216.274 99.0612 216.274 99.0564 216.274Z" fill="#91B3FA"/>
<path d="M340.944 86.7017C353.605 86.7017 363.869 76.4379 363.869 63.7769C363.869 51.1159 353.605 40.8521 340.944 40.8521C328.283 40.8521 318.019 51.1159 318.019 63.7769C318.019 76.4379 328.283 86.7017 340.944 86.7017Z" fill="url(#paint67_linear)"/>
<path d="M343.276 34.9434C343.276 35.8612 342.533 36.6062 341.613 36.6062C340.696 36.6062 339.951 35.8624 339.951 34.9434V23.7238C339.951 22.806 340.694 22.061 341.613 22.061C342.531 22.061 343.276 22.8048 343.276 23.7238V34.9434Z" fill="url(#paint68_linear)"/>
<path d="M343.276 104.34C343.276 105.258 342.533 106.003 341.613 106.003C340.696 106.003 339.951 105.259 339.951 104.34V93.1208C339.951 92.203 340.694 91.458 341.613 91.458C342.531 91.458 343.276 92.2018 343.276 93.1208V104.34Z" fill="url(#paint69_linear)"/>
<path d="M383.999 64.0324C383.999 64.9502 383.256 65.6952 382.336 65.6952H371.117C370.199 65.6952 369.454 64.9514 369.454 64.0324C369.454 63.1146 370.198 62.3696 371.117 62.3696H382.336C383.256 62.3696 383.999 63.1146 383.999 64.0324Z" fill="url(#paint70_linear)"/>
<path d="M313.356 64.0324C313.356 64.9502 312.612 65.6952 311.693 65.6952H300.473C299.556 65.6952 298.811 64.9514 298.811 64.0324C298.811 63.1146 299.554 62.3696 300.473 62.3696H311.693C312.612 62.3696 313.356 63.1146 313.356 64.0324Z" fill="url(#paint71_linear)"/>
<path d="M363.602 27.5469L363.512 27.4921C362.712 27.0076 361.67 27.262 361.186 28.063L355.369 37.6587C354.884 38.4585 355.14 39.5004 355.94 39.9849L356.03 40.0397C356.829 40.5242 357.871 40.2697 358.356 39.4688L364.172 29.8731C364.658 29.0733 364.402 28.0325 363.602 27.5469Z" fill="url(#paint72_linear)"/>
<path d="M327.22 87.5693L327.13 87.5145C326.33 87.0301 325.288 87.2845 324.804 88.0854L318.986 97.6812C318.502 98.4809 318.758 99.5229 319.557 100.007L319.647 100.062C320.447 100.547 321.489 100.292 321.974 99.4913L327.791 89.8955C328.275 89.0958 328.02 88.0538 327.22 87.5693Z" fill="url(#paint73_linear)"/>
<path d="M377.294 83.3834L367.698 77.5673C366.898 77.0828 365.857 77.3372 365.372 78.1382L365.317 78.2283C364.833 79.028 365.087 80.07 365.888 80.5545L375.484 86.3718C376.284 86.8563 377.326 86.6006 377.81 85.8009L377.865 85.7108C378.349 84.9098 378.094 83.8679 377.294 83.3834Z" fill="url(#paint74_linear)"/>
<path d="M317.271 47.0011L307.676 41.185C306.876 40.7005 305.834 40.9549 305.35 41.7558L305.295 41.8459C304.81 42.6457 305.065 43.6877 305.866 44.1721L315.461 49.9895C316.261 50.4739 317.303 50.2195 317.788 49.4185L317.842 49.3285C318.327 48.5275 318.071 47.4855 317.271 47.0011Z" fill="url(#paint75_linear)"/>
<path d="M321.973 28.0627C321.489 27.2629 320.447 27.0073 319.647 27.4918L319.557 27.5466C318.757 28.031 318.501 29.073 318.986 29.8728L324.803 39.4685C325.288 40.2682 326.33 40.5239 327.13 40.0394L327.22 39.9846C328.019 39.5001 328.275 38.4582 327.79 37.6584L321.973 28.0627Z" fill="url(#paint76_linear)"/>
<path d="M358.356 88.0852C357.871 87.2854 356.829 87.0298 356.03 87.5143L355.94 87.569C355.14 88.0535 354.884 89.0955 355.369 89.8952L361.186 99.491C361.67 100.291 362.712 100.546 363.512 100.062L363.602 100.007C364.402 99.5226 364.658 98.4806 364.173 97.6809L358.356 88.0852Z" fill="url(#paint77_linear)"/>
<path d="M317.787 78.1369C317.303 77.3372 316.261 77.0815 315.461 77.566L305.865 83.3821C305.066 83.8666 304.81 84.9085 305.295 85.7083L305.349 85.7984C305.834 86.5981 306.876 86.8538 307.675 86.3693L317.271 80.552C318.071 80.0675 318.327 79.0255 317.842 78.2258L317.787 78.1369Z" fill="url(#paint78_linear)"/>
<path d="M377.864 41.8442L377.809 41.7541C377.325 40.9544 376.283 40.6987 375.483 41.1832L365.887 46.9993C365.088 47.4838 364.832 48.5258 365.317 49.3255L365.371 49.4156C365.856 50.2154 366.898 50.471 367.697 49.9865L377.293 44.1692C378.094 43.6859 378.35 42.6451 377.864 41.8442Z" fill="url(#paint79_linear)"/>
<defs>
<filter id="filter0_b" x="-8.29955" y="-8.29955" width="374.478" height="376.565" filterUnits="userSpaceOnUse" color-interpolation-filters="sRGB">
<feFlood flood-opacity="0" result="BackgroundImageFix"/>
<feGaussianBlur in="BackgroundImage" stdDeviation="4.14977"/>
<feComposite in2="SourceAlpha" operator="in" result="effect1_backgroundBlur"/>
<feBlend mode="normal" in="SourceGraphic" in2="effect1_backgroundBlur" result="shape"/>
</filter>
<linearGradient id="paint0_linear" x1="-241.868" y1="269.017" x2="774.87" y2="19.2116" gradientUnits="userSpaceOnUse">
<stop stop-color="white" stop-opacity="0.34"/>
<stop offset="1" stop-color="#9A78FA" stop-opacity="0.52"/>
</linearGradient>
<linearGradient id="paint1_linear" x1="-16.4436" y1="232.22" x2="-0.914489" y2="228.323" gradientUnits="userSpaceOnUse">
<stop stop-color="white"/>
<stop offset="1" stop-color="white" stop-opacity="0"/>
</linearGradient>
<linearGradient id="paint2_linear" x1="285.327" y1="77.0557" x2="258.3" y2="89.839" gradientUnits="userSpaceOnUse">
<stop stop-color="white"/>
<stop offset="1" stop-color="#EEDDFF" stop-opacity="0"/>
</linearGradient>
<linearGradient id="paint3_linear" x1="187.207" y1="-28.5311" x2="186.792" y2="165.949" gradientUnits="userSpaceOnUse">
<stop stop-color="#09005D"/>
<stop offset="1" stop-color="#1A0F91"/>
</linearGradient>
<linearGradient id="paint4_linear" x1="85.3006" y1="192.788" x2="289.385" y2="192.788" gradientUnits="userSpaceOnUse">
<stop stop-color="#09005D"/>
<stop offset="1" stop-color="#1A0F91"/>
</linearGradient>
<linearGradient id="paint5_linear" x1="387.941" y1="258.262" x2="74.4233" y2="47.0581" gradientUnits="userSpaceOnUse">
<stop stop-color="#4F52FF"/>
<stop offset="1" stop-color="#4042E2"/>
</linearGradient>
<linearGradient id="paint6_linear" x1="405.927" y1="233.564" x2="280.228" y2="84.4769" gradientUnits="userSpaceOnUse">
<stop stop-color="#4F52FF"/>
<stop offset="1" stop-color="#4042E2"/>
</linearGradient>
<linearGradient id="paint7_linear" x1="225.25" y1="155.807" x2="73.9715" y2="378.704" gradientUnits="userSpaceOnUse">
<stop stop-color="#4F52FF"/>
<stop offset="1" stop-color="#4042E2"/>
</linearGradient>
<linearGradient id="paint8_linear" x1="189.904" y1="150.662" x2="281.985" y2="383.791" gradientUnits="userSpaceOnUse">
<stop stop-color="#4F52FF"/>
<stop offset="1" stop-color="#4042E2"/>
</linearGradient>
<linearGradient id="paint9_linear" x1="268.251" y1="17.9765" x2="135.973" y2="204.334" gradientUnits="userSpaceOnUse">
<stop stop-color="#4F52FF"/>
<stop offset="1" stop-color="#4042E2"/>
</linearGradient>
<linearGradient id="paint10_linear" x1="190.125" y1="103.854" x2="182.312" y2="173.866" gradientUnits="userSpaceOnUse">
<stop stop-color="#09005D"/>
<stop offset="1" stop-color="#1A0F91"/>
</linearGradient>
<linearGradient id="paint11_linear" x1="268.528" y1="18.1738" x2="136.251" y2="204.531" gradientUnits="userSpaceOnUse">
<stop stop-color="#4F52FF"/>
<stop offset="1" stop-color="#4042E2"/>
</linearGradient>
<linearGradient id="paint12_linear" x1="188.031" y1="123.322" x2="185.287" y2="147.908" gradientUnits="userSpaceOnUse">
<stop stop-color="#09005D"/>
<stop offset="1" stop-color="#1A0F91"/>
</linearGradient>
<linearGradient id="paint13_linear" x1="294.803" y1="109.587" x2="116.485" y2="341.254" gradientUnits="userSpaceOnUse">
<stop stop-color="#4F52FF"/>
<stop offset="1" stop-color="#4042E2"/>
</linearGradient>
<linearGradient id="paint14_linear" x1="190.152" y1="213.609" x2="179.937" y2="305.145" gradientUnits="userSpaceOnUse">
<stop stop-color="#09005D"/>
<stop offset="1" stop-color="#1A0F91"/>
</linearGradient>
<linearGradient id="paint15_linear" x1="295.316" y1="109.981" x2="116.998" y2="341.649" gradientUnits="userSpaceOnUse">
<stop stop-color="#4F52FF"/>
<stop offset="1" stop-color="#4042E2"/>
</linearGradient>
<linearGradient id="paint16_linear" x1="187.42" y1="239.367" x2="183.833" y2="271.504" gradientUnits="userSpaceOnUse">
<stop stop-color="#09005D"/>
<stop offset="1" stop-color="#1A0F91"/>
</linearGradient>
<linearGradient id="paint17_linear" x1="282.002" y1="47.5136" x2="299.767" y2="97.6875" gradientUnits="userSpaceOnUse">
<stop stop-color="#FEBBBA"/>
<stop offset="1" stop-color="#FF928E"/>
</linearGradient>
<linearGradient id="paint18_linear" x1="241.214" y1="93.7284" x2="257.726" y2="93.7284" gradientUnits="userSpaceOnUse">
<stop stop-color="#FEBBBA"/>
<stop offset="1" stop-color="#FF928E"/>
</linearGradient>
<linearGradient id="paint19_linear" x1="221.815" y1="113.466" x2="205.708" y2="115.839" gradientUnits="userSpaceOnUse">
<stop stop-color="#FEBBBA"/>
<stop offset="1" stop-color="#FF928E"/>
</linearGradient>
<linearGradient id="paint20_linear" x1="186.196" y1="126.607" x2="171.431" y2="128.781" gradientUnits="userSpaceOnUse">
<stop stop-color="#FEBBBA"/>
<stop offset="1" stop-color="#FF928E"/>
</linearGradient>
<linearGradient id="paint21_linear" x1="105.713" y1="151.277" x2="128.859" y2="69.0374" gradientUnits="userSpaceOnUse">
<stop stop-color="#FEBBBA"/>
<stop offset="1" stop-color="#FF928E"/>
</linearGradient>
<linearGradient id="paint22_linear" x1="75.8546" y1="142.875" x2="98.9999" y2="60.6361" gradientUnits="userSpaceOnUse">
<stop stop-color="#FEBBBA"/>
<stop offset="1" stop-color="#FF928E"/>
</linearGradient>
<linearGradient id="paint23_linear" x1="97.589" y1="13.8375" x2="41.4834" y2="184.648" gradientUnits="userSpaceOnUse">
<stop stop-color="#FEBBBA"/>
<stop offset="1" stop-color="#FF928E"/>
</linearGradient>
<linearGradient id="paint24_linear" x1="-1956.87" y1="2353.11" x2="-1936.09" y2="2335.61" gradientUnits="userSpaceOnUse">
<stop stop-color="#09005D"/>
<stop offset="1" stop-color="#1A0F91"/>
</linearGradient>
<linearGradient id="paint25_linear" x1="339.605" y1="313.185" x2="343.092" y2="316.438" gradientUnits="userSpaceOnUse">
<stop stop-color="#FEBBBA"/>
<stop offset="1" stop-color="#FF928E"/>
</linearGradient>
<linearGradient id="paint26_linear" x1="270.727" y1="204.094" x2="276.403" y2="261.015" gradientUnits="userSpaceOnUse">
<stop stop-color="#FEBBBA"/>
<stop offset="1" stop-color="#FF928E"/>
</linearGradient>
<linearGradient id="paint27_linear" x1="271.661" y1="204" x2="277.336" y2="260.921" gradientUnits="userSpaceOnUse">
<stop stop-color="#FEBBBA"/>
<stop offset="1" stop-color="#FF928E"/>
</linearGradient>
<linearGradient id="paint28_linear" x1="288.892" y1="267.593" x2="287.795" y2="280.203" gradientUnits="userSpaceOnUse">
<stop stop-color="#09005D"/>
<stop offset="1" stop-color="#1A0F91"/>
</linearGradient>
<linearGradient id="paint29_linear" x1="289.23" y1="360.819" x2="284.46" y2="360.819" gradientUnits="userSpaceOnUse">
<stop stop-color="#FEBBBA"/>
<stop offset="1" stop-color="#FF928E"/>
</linearGradient>
<linearGradient id="paint30_linear" x1="292.167" y1="314.646" x2="309.712" y2="405.661" gradientUnits="userSpaceOnUse">
<stop stop-color="#09005D"/>
<stop offset="1" stop-color="#1A0F91"/>
</linearGradient>
<linearGradient id="paint31_linear" x1="316.935" y1="309.872" x2="334.48" y2="400.886" gradientUnits="userSpaceOnUse">
<stop stop-color="#09005D"/>
<stop offset="1" stop-color="#1A0F91"/>
</linearGradient>
<linearGradient id="paint32_linear" x1="319.261" y1="205.401" x2="313.585" y2="262.322" gradientUnits="userSpaceOnUse">
<stop stop-color="#FEBBBA"/>
<stop offset="1" stop-color="#FF928E"/>
</linearGradient>
<linearGradient id="paint33_linear" x1="328.94" y1="4.76566" x2="312.318" y2="122.783" gradientUnits="userSpaceOnUse">
<stop stop-color="#FF928E"/>
<stop offset="1" stop-color="#FE7062"/>
</linearGradient>
<linearGradient id="paint34_linear" x1="306.518" y1="260.35" x2="293.636" y2="236.663" gradientUnits="userSpaceOnUse">
<stop stop-color="#FEBBBA"/>
<stop offset="1" stop-color="#FF928E"/>
</linearGradient>
<linearGradient id="paint35_linear" x1="296.075" y1="228.638" x2="295.369" y2="255.829" gradientUnits="userSpaceOnUse">
<stop stop-color="#FEBBBA"/>
<stop offset="1" stop-color="#FF928E"/>
</linearGradient>
<linearGradient id="paint36_linear" x1="453.324" y1="574.603" x2="444.551" y2="554.865" gradientUnits="userSpaceOnUse">
<stop stop-color="#09005D"/>
<stop offset="1" stop-color="#1A0F91"/>
</linearGradient>
<linearGradient id="paint37_linear" x1="302.96" y1="253.745" x2="301.203" y2="236.122" gradientUnits="userSpaceOnUse">
<stop stop-color="#FEBBBA"/>
<stop offset="1" stop-color="#FF928E"/>
</linearGradient>
<linearGradient id="paint38_linear" x1="318.327" y1="205.308" x2="312.652" y2="262.228" gradientUnits="userSpaceOnUse">
<stop stop-color="#FEBBBA"/>
<stop offset="1" stop-color="#FF928E"/>
</linearGradient>
<linearGradient id="paint39_linear" x1="188.002" y1="201.178" x2="186.238" y2="219.523" gradientUnits="userSpaceOnUse">
<stop stop-color="#FEBBBA"/>
<stop offset="1" stop-color="#FF928E"/>
</linearGradient>
<linearGradient id="paint40_linear" x1="177.23" y1="261.461" x2="204.089" y2="187.607" gradientUnits="userSpaceOnUse">
<stop stop-color="#FEBBBA"/>
<stop offset="1" stop-color="#FF928E"/>
</linearGradient>
<linearGradient id="paint41_linear" x1="253.93" y1="283.33" x2="219.854" y2="310.756" gradientUnits="userSpaceOnUse">
<stop stop-color="#FEBBBA"/>
<stop offset="1" stop-color="#FF928E"/>
</linearGradient>
<linearGradient id="paint42_linear" x1="195.182" y1="578.921" x2="110.557" y2="-410.143" gradientUnits="userSpaceOnUse">
<stop stop-color="#FEBBBA"/>
<stop offset="1" stop-color="#FF928E"/>
</linearGradient>
<linearGradient id="paint43_linear" x1="179.575" y1="356.737" x2="135.25" y2="422.672" gradientUnits="userSpaceOnUse">
<stop stop-color="#4F52FF"/>
<stop offset="1" stop-color="#4042E2"/>
</linearGradient>
<linearGradient id="paint44_linear" x1="6.42023" y1="27.8944" x2="-78.084" y2="-99.6468" gradientUnits="userSpaceOnUse">
<stop stop-color="#4F52FF"/>
<stop offset="1" stop-color="#4042E2"/>
</linearGradient>
<linearGradient id="paint45_linear" x1="242.976" y1="207.847" x2="159.034" y2="315.891" gradientUnits="userSpaceOnUse">
<stop stop-color="#FF928E"/>
<stop offset="1" stop-color="#FE7062"/>
</linearGradient>
<linearGradient id="paint46_linear" x1="180.288" y1="238.411" x2="172.58" y2="238.411" gradientUnits="userSpaceOnUse">
<stop stop-color="#FEBBBA"/>
<stop offset="1" stop-color="#FF928E"/>
</linearGradient>
<linearGradient id="paint47_linear" x1="167.45" y1="238.408" x2="182.429" y2="216.505" gradientUnits="userSpaceOnUse">
<stop stop-color="#FEBBBA"/>
<stop offset="1" stop-color="#FF928E"/>
</linearGradient>
<linearGradient id="paint48_linear" x1="216.543" y1="244.437" x2="167.738" y2="244.437" gradientUnits="userSpaceOnUse">
<stop stop-color="#E1473D"/>
<stop offset="1" stop-color="#E9605A"/>
</linearGradient>
<linearGradient id="paint49_linear" x1="150.309" y1="204.309" x2="156.575" y2="221.641" gradientUnits="userSpaceOnUse">
<stop stop-color="#FEBBBA"/>
<stop offset="1" stop-color="#FF928E"/>
</linearGradient>
<linearGradient id="paint50_linear" x1="175.718" y1="260.027" x2="131.356" y2="195.158" gradientUnits="userSpaceOnUse">
<stop stop-color="#FEBBBA"/>
<stop offset="1" stop-color="#FF928E"/>
</linearGradient>
<linearGradient id="paint51_linear" x1="88.2431" y1="73.4638" x2="80.7631" y2="152.419" gradientUnits="userSpaceOnUse">
<stop stop-color="#FF928E"/>
<stop offset="1" stop-color="#FE7062"/>
</linearGradient>
<linearGradient id="paint52_linear" x1="90.4791" y1="361.804" x2="79.8708" y2="361.804" gradientUnits="userSpaceOnUse">
<stop stop-color="#09005D"/>
<stop offset="1" stop-color="#1A0F91"/>
</linearGradient>
<linearGradient id="paint53_linear" x1="63.7465" y1="348.888" x2="102.764" y2="379.524" gradientUnits="userSpaceOnUse">
<stop stop-color="#4F52FF"/>
<stop offset="1" stop-color="#4042E2"/>
</linearGradient>
<linearGradient id="paint54_linear" x1="86.9989" y1="349.357" x2="84.881" y2="367.84" gradientUnits="userSpaceOnUse">
<stop stop-color="#FEBBBA"/>
<stop offset="1" stop-color="#FF928E"/>
</linearGradient>
<linearGradient id="paint55_linear" x1="122.953" y1="357.981" x2="85.2218" y2="387.607" gradientUnits="userSpaceOnUse">
<stop stop-color="#4F52FF"/>
<stop offset="1" stop-color="#4042E2"/>
</linearGradient>
<linearGradient id="paint56_linear" x1="106.079" y1="361.955" x2="121.008" y2="361.955" gradientUnits="userSpaceOnUse">
<stop stop-color="#09005D"/>
<stop offset="1" stop-color="#1A0F91"/>
</linearGradient>
<linearGradient id="paint57_linear" x1="109.308" y1="351.722" x2="107.327" y2="369.011" gradientUnits="userSpaceOnUse">
<stop stop-color="#FEBBBA"/>
<stop offset="1" stop-color="#FF928E"/>
</linearGradient>
<linearGradient id="paint58_linear" x1="97.0775" y1="351.168" x2="99.4541" y2="276.703" gradientUnits="userSpaceOnUse">
<stop stop-color="#4F52FF"/>
<stop offset="1" stop-color="#4042E2"/>
</linearGradient>
<linearGradient id="paint59_linear" x1="110.332" y1="75.5567" x2="102.852" y2="154.512" gradientUnits="userSpaceOnUse">
<stop stop-color="#FF928E"/>
<stop offset="1" stop-color="#FE7062"/>
</linearGradient>
<linearGradient id="paint60_linear" x1="88.5069" y1="232.187" x2="98.004" y2="232.187" gradientUnits="userSpaceOnUse">
<stop stop-color="#FEBBBA"/>
<stop offset="1" stop-color="#FF928E"/>
</linearGradient>
<linearGradient id="paint61_linear" x1="884.919" y1="-501.077" x2="897.533" y2="-512.655" gradientUnits="userSpaceOnUse">
<stop stop-color="#FEBBBA"/>
<stop offset="1" stop-color="#FF928E"/>
</linearGradient>
<linearGradient id="paint62_linear" x1="86.4325" y1="221.587" x2="101.439" y2="213.313" gradientUnits="userSpaceOnUse">
<stop stop-color="#4F52FF"/>
<stop offset="1" stop-color="#4042E2"/>
</linearGradient>
<linearGradient id="paint63_linear" x1="883.244" y1="-502.912" x2="895.859" y2="-514.49" gradientUnits="userSpaceOnUse">
<stop stop-color="#FEBBBA"/>
<stop offset="1" stop-color="#FF928E"/>
</linearGradient>
<linearGradient id="paint64_linear" x1="59.0579" y1="284.698" x2="58.4265" y2="266.289" gradientUnits="userSpaceOnUse">
<stop stop-color="#FEBBBA"/>
<stop offset="1" stop-color="#FF928E"/>
</linearGradient>
<linearGradient id="paint65_linear" x1="132.421" y1="77.6497" x2="124.941" y2="156.605" gradientUnits="userSpaceOnUse">
<stop stop-color="#FF928E"/>
<stop offset="1" stop-color="#FE7062"/>
</linearGradient>
<linearGradient id="paint66_linear" x1="119.206" y1="205.508" x2="124.569" y2="223.13" gradientUnits="userSpaceOnUse">
<stop stop-color="#FEBBBA"/>
<stop offset="1" stop-color="#FF928E"/>
</linearGradient>
<linearGradient id="paint67_linear" x1="376.213" y1="17.591" x2="480.933" y2="-119.542" gradientUnits="userSpaceOnUse">
<stop stop-color="#FEBBBA"/>
<stop offset="1" stop-color="#FF928E"/>
</linearGradient>
<linearGradient id="paint68_linear" x1="360.022" y1="5.22672" x2="464.742" y2="-131.904" gradientUnits="userSpaceOnUse">
<stop stop-color="#FEBBBA"/>
<stop offset="1" stop-color="#FF928E"/>
</linearGradient>
<linearGradient id="paint69_linear" x1="393.495" y1="30.7881" x2="498.216" y2="-106.342" gradientUnits="userSpaceOnUse">
<stop stop-color="#FEBBBA"/>
<stop offset="1" stop-color="#FF928E"/>
</linearGradient>
<linearGradient id="paint70_linear" x1="388.836" y1="44.9208" x2="457.818" y2="-63.9548" gradientUnits="userSpaceOnUse">
<stop stop-color="#FEBBBA"/>
<stop offset="1" stop-color="#FF928E"/>
</linearGradient>
<linearGradient id="paint71_linear" x1="307.635" y1="57.5993" x2="335.892" y2="-59.5871" gradientUnits="userSpaceOnUse">
<stop stop-color="#FEBBBA"/>
<stop offset="1" stop-color="#FF928E"/>
</linearGradient>
<linearGradient id="paint72_linear" x1="373.629" y1="15.6182" x2="478.349" y2="-121.514" gradientUnits="userSpaceOnUse">
<stop stop-color="#FEBBBA"/>
<stop offset="1" stop-color="#FF928E"/>
</linearGradient>
<linearGradient id="paint73_linear" x1="379.6" y1="20.178" x2="484.32" y2="-116.956" gradientUnits="userSpaceOnUse">
<stop stop-color="#FEBBBA"/>
<stop offset="1" stop-color="#FF928E"/>
</linearGradient>
<linearGradient id="paint74_linear" x1="404.345" y1="39.0749" x2="509.066" y2="-98.0584" gradientUnits="userSpaceOnUse">
<stop stop-color="#FEBBBA"/>
<stop offset="1" stop-color="#FF928E"/>
</linearGradient>
<linearGradient id="paint75_linear" x1="348.883" y1="-3.27885" x2="453.604" y2="-140.412" gradientUnits="userSpaceOnUse">
<stop stop-color="#FEBBBA"/>
<stop offset="1" stop-color="#FF928E"/>
</linearGradient>
<linearGradient id="paint76_linear" x1="350.647" y1="-1.93103" x2="455.367" y2="-139.064" gradientUnits="userSpaceOnUse">
<stop stop-color="#FEBBBA"/>
<stop offset="1" stop-color="#FF928E"/>
</linearGradient>
<linearGradient id="paint77_linear" x1="402.581" y1="37.7267" x2="507.301" y2="-99.4055" gradientUnits="userSpaceOnUse">
<stop stop-color="#FEBBBA"/>
<stop offset="1" stop-color="#FF928E"/>
</linearGradient>
<linearGradient id="paint78_linear" x1="366.432" y1="10.1231" x2="471.152" y2="-127.01" gradientUnits="userSpaceOnUse">
<stop stop-color="#FEBBBA"/>
<stop offset="1" stop-color="#FF928E"/>
</linearGradient>
<linearGradient id="paint79_linear" x1="386.797" y1="25.6727" x2="491.517" y2="-111.46" gradientUnits="userSpaceOnUse">
<stop stop-color="#FEBBBA"/>
<stop offset="1" stop-color="#FF928E"/>
</linearGradient>
</defs>
</svg>
