<svg width="60" height="60" viewBox="0 0 60 60" fill="none" xmlns="http://www.w3.org/2000/svg">
<path d="M30 0C13.4313 0 0 13.4313 0 30C0 46.5687 13.4313 60 30 60C46.5687 60 60 46.5687 60 30C60 13.4313 46.5687 0 30 0ZM32.5905 46.2653V50.4906H28.5489V46.3128C21.9169 45.4046 19.0127 39.9553 19.0127 39.9553L23.1409 36.502C23.1409 36.502 25.7768 41.0905 30.5449 41.0905C33.1788 41.0905 35.1768 39.6808 35.1768 37.2719C35.1768 31.641 20.0055 32.3242 20.0055 21.8777C20.0055 17.3366 23.5971 14.065 28.5469 13.2909V9.06977H32.5884V13.2909C36.0396 13.745 40.1266 15.5614 40.1266 19.4688V22.4659H34.7681V21.0128C34.7681 19.5142 32.8588 18.5152 30.7224 18.5152C27.9978 18.5152 26.0018 19.8775 26.0018 21.7848C26.0018 27.5519 41.1731 26.1442 41.1731 37.0903C41.1731 41.5901 37.8127 45.4913 32.5905 46.2653Z" fill="url(#paint0_linear)"/>
<defs>
<linearGradient id="paint0_linear" x1="-7" y1="6.09824e-06" x2="86.5745" y2="4.32722" gradientUnits="userSpaceOnUse">
<stop stop-color="#A267E6"/>
<stop offset="1" stop-color="#7566E6"/>
</linearGradient>
</defs>
</svg>
