<svg width="60" height="60" viewBox="0 0 60 60" fill="none" xmlns="http://www.w3.org/2000/svg">
<path d="M30 0C13.44 0 0 13.44 0 30C0 46.56 13.44 60 30 60C46.56 60 60 46.56 60 30C60 13.44 46.56 0 30 0ZM52.38 21.36L44.04 24.81C43.2886 22.7884 42.1085 20.9533 40.5809 19.4308C39.0532 17.9084 37.2142 16.7345 35.19 15.99L38.64 7.65C44.94 10.05 49.95 15.06 52.38 21.36ZM30 39C25.02 39 21 34.98 21 30C21 25.02 25.02 21 30 21C34.98 21 39 25.02 39 30C39 34.98 34.98 39 30 39ZM21.39 7.62L24.9 15.96C22.8519 16.7064 20.9912 17.8901 19.4472 19.4289C17.9033 20.9677 16.7132 22.8245 15.96 24.87L7.62 21.39C8.82296 18.2585 10.6703 15.4145 13.0424 13.0424C15.4145 10.6703 18.2585 8.82296 21.39 7.62ZM7.62 38.61L15.96 35.16C16.708 37.2002 17.8931 39.0522 19.4322 40.5861C20.9714 42.12 22.8273 43.2989 24.87 44.04L21.36 52.38C18.2351 51.1716 15.3981 49.3219 13.0316 46.9503C10.6651 44.5786 8.82162 41.7375 7.62 38.61ZM38.64 52.38L35.19 44.04C37.2236 43.2865 39.0688 42.0992 40.5971 40.5605C42.1254 39.0218 43.3003 37.1687 44.04 35.13L52.38 38.64C51.1731 41.7609 49.3274 44.5952 46.9613 46.9613C44.5952 49.3274 41.7609 51.1731 38.64 52.38Z" fill="url(#paint0_linear)"/>
<defs>
<linearGradient id="paint0_linear" x1="-9" y1="3.5" x2="72.2665" y2="8.14994" gradientUnits="userSpaceOnUse">
<stop stop-color="#A267E6"/>
<stop offset="1" stop-color="#7566E6"/>
</linearGradient>
</defs>
</svg>
