<svg width="100" height="100" viewBox="0 0 100 100" fill="none" xmlns="http://www.w3.org/2000/svg">
<mask id="path-1-inside-1" fill="white">
<path fill-rule="evenodd" clip-rule="evenodd" d="M50 0C22.3858 0 0 22.3858 0 50C0 77.6142 22.3858 100 50 100C77.6142 100 100 77.6142 100 50C100 22.3858 77.6142 0 50 0ZM30 70.0029H40.3407L34.4003 50.2016H30V70.0029ZM56.4017 41.401H69.6026C70.271 41.4014 70.9306 41.5542 71.5312 41.8476C72.1318 42.141 72.6577 42.5674 73.0689 43.0944C73.4801 43.6214 73.7658 44.2351 73.9044 44.889C74.043 45.543 74.0308 46.2199 73.8687 46.8684L70.3 61.1363C69.8241 63.0402 68.7255 64.7304 67.1788 65.9383C65.632 67.1462 63.726 67.8024 61.7635 67.8027H43.4209L38.8006 52.4017V49.6735C38.801 47.1663 39.6545 44.7339 41.2207 42.7761L47.6011 34.8006V26H49.8013C51.5518 26 53.2307 26.6954 54.4685 27.9332C55.7063 29.171 56.4017 30.8499 56.4017 32.6004V41.401Z"/>
</mask>
<path fill-rule="evenodd" clip-rule="evenodd" d="M50 0C22.3858 0 0 22.3858 0 50C0 77.6142 22.3858 100 50 100C77.6142 100 100 77.6142 100 50C100 22.3858 77.6142 0 50 0ZM30 70.0029H40.3407L34.4003 50.2016H30V70.0029ZM56.4017 41.401H69.6026C70.271 41.4014 70.9306 41.5542 71.5312 41.8476C72.1318 42.141 72.6577 42.5674 73.0689 43.0944C73.4801 43.6214 73.7658 44.2351 73.9044 44.889C74.043 45.543 74.0308 46.2199 73.8687 46.8684L70.3 61.1363C69.8241 63.0402 68.7255 64.7304 67.1788 65.9383C65.632 67.1462 63.726 67.8024 61.7635 67.8027H43.4209L38.8006 52.4017V49.6735C38.801 47.1663 39.6545 44.7339 41.2207 42.7761L47.6011 34.8006V26H49.8013C51.5518 26 53.2307 26.6954 54.4685 27.9332C55.7063 29.171 56.4017 30.8499 56.4017 32.6004V41.401Z" fill="url(#paint0_linear)"/>
<path d="M40.3407 70.0029V71.0029H41.6847L41.2985 69.7155L40.3407 70.0029ZM30 70.0029H29V71.0029H30V70.0029ZM34.4003 50.2016L35.3581 49.9142L35.1443 49.2016H34.4003V50.2016ZM30 50.2016V49.2016H29V50.2016H30ZM69.6026 41.401L69.6032 40.401H69.6026V41.401ZM56.4017 41.401H55.4017V42.401H56.4017V41.401ZM71.5312 41.8476L71.0922 42.7461L71.0922 42.7461L71.5312 41.8476ZM73.0689 43.0944L73.8573 42.4792V42.4792L73.0689 43.0944ZM73.8687 46.8684L74.8388 47.111L74.8388 47.1109L73.8687 46.8684ZM70.3 61.1363L69.3299 60.8936L69.3299 60.8938L70.3 61.1363ZM61.7635 67.8027V68.8027H61.7636L61.7635 67.8027ZM43.4209 67.8027L42.4631 68.0901L42.6768 68.8027H43.4209V67.8027ZM38.8006 52.4017H37.8006V52.5485L37.8428 52.6891L38.8006 52.4017ZM38.8006 49.6735L37.8006 49.6734V49.6735H38.8006ZM41.2207 42.7761L40.4399 42.1514L40.4399 42.1514L41.2207 42.7761ZM47.6011 34.8006L48.382 35.4253L48.6011 35.1514V34.8006H47.6011ZM47.6011 26V25H46.6011V26H47.6011ZM54.4685 27.9332L53.7614 28.6403V28.6403L54.4685 27.9332ZM1 50C1 22.938 22.938 1 50 1V-1C21.8335 -1 -1 21.8335 -1 50H1ZM50 99C22.938 99 1 77.062 1 50H-1C-1 78.1665 21.8335 101 50 101V99ZM99 50C99 77.062 77.062 99 50 99V101C78.1665 101 101 78.1665 101 50H99ZM50 1C77.062 1 99 22.938 99 50H101C101 21.8335 78.1665 -1 50 -1V1ZM40.3407 69.0029H30V71.0029H40.3407V69.0029ZM33.4425 50.4889L39.3828 70.2902L41.2985 69.7155L35.3581 49.9142L33.4425 50.4889ZM30 51.2016H34.4003V49.2016H30V51.2016ZM31 70.0029V50.2016H29V70.0029H31ZM69.6026 40.401H56.4017V42.401H69.6026V40.401ZM71.9701 40.9491C71.233 40.589 70.4236 40.4015 69.6032 40.401L69.6019 42.401C70.1185 42.4013 70.6281 42.5194 71.0922 42.7461L71.9701 40.9491ZM73.8573 42.4792C73.3526 41.8324 72.7072 41.3091 71.9701 40.9491L71.0922 42.7461C71.5564 42.9728 71.9627 43.3023 72.2805 43.7095L73.8573 42.4792ZM74.8827 44.6817C74.7126 43.8792 74.3619 43.126 73.8573 42.4792L72.2805 43.7095C72.5982 44.1168 72.819 44.591 72.9261 45.0964L74.8827 44.6817ZM74.8388 47.1109C75.0377 46.315 75.0527 45.4843 74.8827 44.6817L72.9261 45.0964C73.0332 45.6017 73.0238 46.1247 72.8985 46.6259L74.8388 47.1109ZM71.2701 61.3789L74.8388 47.111L72.8985 46.6257L69.3299 60.8936L71.2701 61.3789ZM67.7943 66.7264C69.5167 65.3813 70.7402 63.499 71.2702 61.3788L69.3299 60.8938C68.908 62.5814 67.9343 64.0795 66.5633 65.1502L67.7943 66.7264ZM61.7636 68.8027C63.9491 68.8024 66.0718 68.0716 67.7943 66.7264L66.5633 65.1502C65.1923 66.2208 63.5028 66.8025 61.7633 66.8027L61.7636 68.8027ZM43.4209 68.8027H61.7635V66.8027H43.4209V68.8027ZM37.8428 52.6891L42.4631 68.0901L44.3787 67.5154L39.7584 52.1144L37.8428 52.6891ZM37.8006 49.6735V52.4017H39.8006V49.6735H37.8006ZM40.4399 42.1514C38.7318 44.2865 37.8011 46.9392 37.8006 49.6734L39.8006 49.6737C39.801 47.3935 40.5772 45.1813 42.0016 43.4008L40.4399 42.1514ZM46.8203 34.1759L40.4399 42.1514L42.0016 43.4008L48.382 35.4253L46.8203 34.1759ZM46.6011 26V34.8006H48.6011V26H46.6011ZM49.8013 25H47.6011V27H49.8013V25ZM55.1756 27.2261C53.7502 25.8008 51.8171 25 49.8013 25V27C51.2866 27 52.7111 27.59 53.7614 28.6403L55.1756 27.2261ZM57.4017 32.6004C57.4017 30.5847 56.601 28.6515 55.1756 27.2261L53.7614 28.6403C54.8117 29.6906 55.4017 31.1151 55.4017 32.6004H57.4017ZM57.4017 41.401V32.6004H55.4017V41.401H57.4017Z" fill="url(#paint1_linear)" mask="url(#path-1-inside-1)"/>
<defs>
<linearGradient id="paint0_linear" x1="96.3658" y1="92.7279" x2="-71.9231" y2="-46.474" gradientUnits="userSpaceOnUse">
<stop stop-color="#DEC6F6"/>
<stop offset="1" stop-color="white" stop-opacity="0"/>
</linearGradient>
<linearGradient id="paint1_linear" x1="50" y1="45" x2="9" y2="91" gradientUnits="userSpaceOnUse">
<stop stop-color="#C5ABE7" stop-opacity="0"/>
<stop offset="1" stop-color="white"/>
</linearGradient>
</defs>
</svg>
