<svg width="100" height="100" viewBox="0 0 100 100" fill="none" xmlns="http://www.w3.org/2000/svg">
<mask id="path-1-inside-1" fill="white">
<path fill-rule="evenodd" clip-rule="evenodd" d="M50 100C77.6142 100 100 77.6142 100 50C100 22.3858 77.6142 0 50 0C22.3858 0 0 22.3858 0 50C0 77.6142 22.3858 100 50 100ZM68.75 67.0833V57.7083H75V67.0833C75 70.5208 72.1875 73.3333 68.75 73.3333H31.25C27.8125 73.3333 25 70.5208 25 67.0833V57.7083H31.25V67.0833H68.75ZM38.7812 43.3646L34.375 38.9583L50 23.3333L65.625 38.9583L61.2188 43.3646L53.125 35.3021V60.8333H46.875V35.3021L38.7812 43.3646Z"/>
</mask>
<path fill-rule="evenodd" clip-rule="evenodd" d="M50 100C77.6142 100 100 77.6142 100 50C100 22.3858 77.6142 0 50 0C22.3858 0 0 22.3858 0 50C0 77.6142 22.3858 100 50 100ZM68.75 67.0833V57.7083H75V67.0833C75 70.5208 72.1875 73.3333 68.75 73.3333H31.25C27.8125 73.3333 25 70.5208 25 67.0833V57.7083H31.25V67.0833H68.75ZM38.7812 43.3646L34.375 38.9583L50 23.3333L65.625 38.9583L61.2188 43.3646L53.125 35.3021V60.8333H46.875V35.3021L38.7812 43.3646Z" fill="url(#paint0_linear)"/>
<path d="M68.75 57.7083V56.7083H67.75V57.7083H68.75ZM68.75 67.0833V68.0833H69.75V67.0833H68.75ZM75 57.7083H76V56.7083H75V57.7083ZM25 57.7083V56.7083H24V57.7083H25ZM31.25 57.7083H32.25V56.7083H31.25V57.7083ZM31.25 67.0833H30.25V68.0833H31.25V67.0833ZM34.375 38.9583L33.6679 38.2512L32.9608 38.9583L33.6679 39.6654L34.375 38.9583ZM38.7812 43.3646L38.0741 44.0717L38.7799 44.7774L39.487 44.0731L38.7812 43.3646ZM50 23.3333L50.7071 22.6262L50 21.9191L49.2929 22.6262L50 23.3333ZM65.625 38.9583L66.3321 39.6654L67.0392 38.9583L66.3321 38.2512L65.625 38.9583ZM61.2188 43.3646L60.513 44.0731L61.2201 44.7774L61.9259 44.0717L61.2188 43.3646ZM53.125 35.3021L53.8307 34.5936L52.125 32.8945V35.3021H53.125ZM53.125 60.8333V61.8333H54.125V60.8333H53.125ZM46.875 60.8333H45.875V61.8333H46.875V60.8333ZM46.875 35.3021H47.875V32.8945L46.1693 34.5936L46.875 35.3021ZM99 50C99 77.062 77.062 99 50 99V101C78.1665 101 101 78.1665 101 50H99ZM50 1C77.062 1 99 22.938 99 50H101C101 21.8335 78.1665 -1 50 -1V1ZM1 50C1 22.938 22.938 1 50 1V-1C21.8335 -1 -1 21.8335 -1 50H1ZM50 99C22.938 99 1 77.062 1 50H-1C-1 78.1665 21.8335 101 50 101V99ZM67.75 57.7083V67.0833H69.75V57.7083H67.75ZM75 56.7083H68.75V58.7083H75V56.7083ZM76 67.0833V57.7083H74V67.0833H76ZM68.75 74.3333C72.7398 74.3333 76 71.0731 76 67.0833H74C74 69.9686 71.6352 72.3333 68.75 72.3333V74.3333ZM31.25 74.3333H68.75V72.3333H31.25V74.3333ZM24 67.0833C24 71.0731 27.2602 74.3333 31.25 74.3333V72.3333C28.3648 72.3333 26 69.9686 26 67.0833H24ZM24 57.7083V67.0833H26V57.7083H24ZM31.25 56.7083H25V58.7083H31.25V56.7083ZM32.25 67.0833V57.7083H30.25V67.0833H32.25ZM68.75 66.0833H31.25V68.0833H68.75V66.0833ZM33.6679 39.6654L38.0741 44.0717L39.4884 42.6575L35.0821 38.2512L33.6679 39.6654ZM49.2929 22.6262L33.6679 38.2512L35.0821 39.6654L50.7071 24.0404L49.2929 22.6262ZM66.3321 38.2512L50.7071 22.6262L49.2929 24.0404L64.9179 39.6654L66.3321 38.2512ZM61.9259 44.0717L66.3321 39.6654L64.9179 38.2512L60.5116 42.6575L61.9259 44.0717ZM52.4193 36.0106L60.513 44.0731L61.9245 42.6561L53.8307 34.5936L52.4193 36.0106ZM54.125 60.8333V35.3021H52.125V60.8333H54.125ZM46.875 61.8333H53.125V59.8333H46.875V61.8333ZM45.875 35.3021V60.8333H47.875V35.3021H45.875ZM39.487 44.0731L47.5807 36.0106L46.1693 34.5936L38.0755 42.6561L39.487 44.0731Z" fill="url(#paint1_linear)" mask="url(#path-1-inside-1)"/>
<defs>
<linearGradient id="paint0_linear" x1="96.3658" y1="92.7279" x2="-71.9231" y2="-46.474" gradientUnits="userSpaceOnUse">
<stop stop-color="#DEC6F6"/>
<stop offset="1" stop-color="white" stop-opacity="0"/>
</linearGradient>
<linearGradient id="paint1_linear" x1="50" y1="45" x2="9" y2="91" gradientUnits="userSpaceOnUse">
<stop stop-color="#C5ABE7" stop-opacity="0"/>
<stop offset="1" stop-color="white"/>
</linearGradient>
</defs>
</svg>
