<svg width="462" height="465" viewBox="0 0 462 465" fill="none" xmlns="http://www.w3.org/2000/svg">
<path opacity="0.35" fill-rule="evenodd" clip-rule="evenodd" d="M209.168 464.676C324.212 464.676 417.477 459.338 417.477 452.755C417.477 446.171 324.216 440.833 209.168 440.833C94.1227 440.833 0.86084 446.171 0.86084 452.755C0.86084 459.338 94.1227 464.676 209.168 464.676Z" fill="#8F73FD" fill-opacity="0.86"/>
<path opacity="0.35" fill-rule="evenodd" clip-rule="evenodd" d="M182.763 457.507C275.609 457.507 350.872 455.378 350.872 452.751C350.872 450.125 275.609 447.996 182.763 447.996C89.9176 447.996 14.6538 450.125 14.6538 452.751C14.6538 455.378 89.9207 457.507 182.763 457.507Z" fill="#8176FF" fill-opacity="0.91"/>
<path fill-rule="evenodd" clip-rule="evenodd" d="M151.553 57.6675H319.668C331.53 57.6675 341.235 67.3725 341.235 79.2345V415.466C341.235 427.328 331.53 437.033 319.668 437.033H151.553C139.691 437.033 129.986 427.328 129.986 415.466V79.2345C129.986 67.3725 139.691 57.6675 151.553 57.6675Z" fill="#303A7D"/>
<path fill-rule="evenodd" clip-rule="evenodd" d="M158.594 67.0625H312.628C323.498 67.0625 332.389 75.9535 332.389 86.8231V407.877C332.389 418.746 323.494 427.637 312.628 427.637H158.594C147.725 427.637 138.833 418.743 138.833 407.877V86.8263C138.833 75.9567 147.725 67.0625 158.594 67.0625Z" fill="url(#paint0_linear)"/>
<path fill-rule="evenodd" clip-rule="evenodd" d="M266.807 87.3463L226.131 86.9268C223.999 86.9017 222.293 88.7551 222.283 91.1156L221.98 141.253C221.955 144.706 219.372 147.101 216.251 146.591C214.842 146.356 213.843 146.096 212.237 146.118C205.275 146.422 200.059 151.866 200.638 158.428C201.142 164.107 205.876 168.721 211.683 169.679C212.547 169.82 213.433 169.883 214.338 169.851C219.331 169.635 223.439 166.793 225.151 162.782C226.378 159.808 225.843 151.261 225.852 147.865L226.087 109.107C226.112 105.98 228.254 103.685 231.099 103.707L260.001 104.042C263.674 104.073 266.635 107.727 266.604 111.412L266.46 134.92C266.432 138.366 263.868 140.771 260.737 140.254C259.347 140.029 258.308 139.753 256.714 139.828C249.733 140.066 244.536 145.576 245.115 152.079C245.619 157.758 250.353 162.372 256.163 163.327C257.024 163.471 257.91 163.53 258.815 163.502C263.808 163.327 267.897 160.441 269.631 156.433C270.912 153.472 270.32 144.913 270.329 141.519C270.439 124.895 270.577 108.259 270.63 91.6572C270.633 89.3906 269.049 87.3964 266.807 87.3463Z" fill="white"/>
<path opacity="0.35" fill-rule="evenodd" clip-rule="evenodd" d="M156.397 191.049H184.97C186.833 191.049 188.357 192.573 188.357 194.436V223.895C188.357 225.758 186.833 227.283 184.97 227.283H156.397C154.534 227.283 153.009 225.758 153.009 223.895V194.436C153.006 192.573 154.531 191.049 156.397 191.049Z" fill="white"/>
<path d="M167.437 198.13H160.184V220.207H167.437V198.13Z" fill="white"/>
<path d="M181.181 198.13H173.927V220.207H181.181V198.13Z" fill="white"/>
<path opacity="0.35" fill-rule="evenodd" clip-rule="evenodd" d="M221.323 191.049H249.897C251.76 191.049 253.284 192.573 253.284 194.436V223.895C253.284 225.758 251.76 227.283 249.897 227.283H221.323C219.461 227.283 217.936 225.758 217.936 223.895V194.436C217.936 192.573 219.461 191.049 221.323 191.049Z" fill="white"/>
<path fill-rule="evenodd" clip-rule="evenodd" d="M226.05 197.354L245.172 209.166L226.05 220.981V197.354Z" fill="white"/>
<path opacity="0.35" fill-rule="evenodd" clip-rule="evenodd" d="M286.253 191.049H314.826C316.689 191.049 318.214 192.573 318.214 194.436V223.895C318.214 225.758 316.689 227.283 314.826 227.283H286.253C284.39 227.283 282.866 225.758 282.866 223.895V194.436C282.866 192.573 284.39 191.049 286.253 191.049Z" fill="white"/>
<path fill-rule="evenodd" clip-rule="evenodd" d="M294.921 198.14L312.804 209.185L294.921 220.233V198.14Z" fill="white"/>
<path d="M292.383 198.102H288.278V220.179H292.383V198.102Z" fill="white"/>
<path opacity="0.5" fill-rule="evenodd" clip-rule="evenodd" d="M156.476 348.313H319.695C326.332 348.313 331.764 354.014 331.764 360.964V410.315C331.764 417.265 326.326 422.966 319.695 422.966H156.476C149.845 422.966 144.407 417.275 144.407 410.315V360.964C144.407 354.005 149.839 348.313 156.476 348.313Z" fill="#DF3A92"/>
<path fill-rule="evenodd" clip-rule="evenodd" d="M155.99 348.154H313.214C319.607 348.154 324.838 353.391 324.838 359.781V405.134C324.838 411.521 319.6 416.762 313.214 416.762H155.99C149.603 416.762 144.366 411.53 144.366 405.134V359.781C144.366 353.385 149.597 348.154 155.99 348.154Z" fill="url(#paint1_linear)"/>
<path d="M166.276 357.384H153.027V416.76H166.276V357.384Z" fill="#03C8DE"/>
<path d="M185.013 373.374H171.764V416.758H185.013V373.374Z" fill="#03C8DE"/>
<path d="M203.751 388.889H190.505V416.758H203.751V388.889Z" fill="#03C8DE"/>
<path d="M222.486 369.079H209.241V416.759H222.486V369.079Z" fill="#03C8DE"/>
<path d="M241.227 359.768H227.978V416.759H241.227V359.768Z" fill="#03C8DE"/>
<path d="M259.962 379.579H246.716V416.758H259.962V379.579Z" fill="#03C8DE"/>
<path d="M278.698 388.651H265.452V416.758H278.698V388.651Z" fill="#03C8DE"/>
<path d="M297.44 374.091H284.191V416.758H297.44V374.091Z" fill="#03C8DE"/>
<path d="M316.179 357.145H302.93V416.759H316.179V357.145Z" fill="#03C8DE"/>
<path fill-rule="evenodd" clip-rule="evenodd" d="M24.6322 13.7413H82.4927C86.2652 13.7413 89.352 16.8313 89.352 20.6006V80.255C89.352 84.0274 86.262 87.1142 82.4927 87.1142H24.6322C20.8598 87.1142 17.7729 84.0274 17.7729 80.255V20.6006C17.7729 16.8281 20.8598 13.7413 24.6322 13.7413Z" fill="url(#paint2_linear)"/>
<path fill-rule="evenodd" clip-rule="evenodd" d="M73.2529 22.1034L44.8736 21.8122C43.3866 21.7934 42.1938 23.0895 42.1875 24.7331L41.9747 59.7149C41.9559 62.1255 40.1557 63.7973 37.9768 63.4372C36.9938 63.2745 36.2957 63.0897 35.178 63.1085C30.3193 63.3183 26.6815 67.1189 27.0853 71.699C27.4359 75.6593 30.7388 78.8807 34.793 79.5475C35.3972 79.6446 36.017 79.6884 36.6463 79.6696C40.1307 79.5194 42.9952 77.5377 44.1911 74.7389C45.0458 72.6632 44.6733 66.7025 44.6795 64.3295L44.8423 37.287C44.8611 35.1049 46.3544 33.5052 48.3392 33.5177L68.5069 33.7525C71.0677 33.7744 73.1339 36.3227 73.112 38.893L73.0118 55.2944C72.9931 57.6988 71.2023 59.3768 69.0203 59.0168C68.0498 58.8602 67.3235 58.6661 66.2152 58.7194C61.3439 58.8853 57.7187 62.7297 58.1225 67.266C58.4731 71.2263 61.776 74.4477 65.8302 75.1145C66.4312 75.2147 67.0511 75.2554 67.6804 75.2366C71.1648 75.1145 74.0168 73.1015 75.2283 70.3059C76.1206 68.2397 75.7073 62.2664 75.7136 59.8996C75.7919 48.3006 75.8858 36.6953 75.9233 25.1088C75.9233 23.5309 74.8182 22.1409 73.2529 22.1034Z" fill="white"/>
<path fill-rule="evenodd" clip-rule="evenodd" d="M29.2529 118.596H53.7533C55.3499 118.596 56.6585 119.905 56.6585 121.501V146.762C56.6585 148.359 55.3499 149.668 53.7533 149.668H29.2529C27.6563 149.668 26.3477 148.362 26.3477 146.762V121.501C26.3477 119.905 27.6563 118.596 29.2529 118.596Z" fill="url(#paint3_linear)"/>
<path fill-rule="evenodd" clip-rule="evenodd" d="M49.8409 122.137L37.8255 122.015C37.1962 122.009 36.6922 122.557 36.6891 123.252L36.5983 138.066C36.592 139.086 35.8281 139.794 34.9046 139.644C34.4882 139.575 34.1939 139.496 33.7181 139.506C31.6613 139.594 30.121 141.203 30.29 143.144C30.4372 144.822 31.8366 146.187 33.5522 146.468C33.8089 146.509 34.0687 146.528 34.3348 146.518C35.8094 146.456 37.024 145.614 37.5312 144.43C37.8944 143.551 37.7347 141.027 37.7378 140.022L37.8067 128.571C37.813 127.647 38.4485 126.968 39.2875 126.974L47.8279 127.074C48.9142 127.083 49.7877 128.164 49.7783 129.25L49.7345 136.197C49.7251 137.214 48.9675 137.925 48.0439 137.771C47.6338 137.706 47.327 137.624 46.8543 137.646C44.7912 137.715 43.2572 139.343 43.4262 141.265C43.5765 142.943 44.9728 144.308 46.6915 144.587C46.9451 144.631 47.208 144.646 47.4741 144.637C48.9487 144.587 50.1571 143.732 50.6705 142.549C51.0493 141.672 50.874 139.146 50.8771 138.141C50.9116 133.229 50.9491 128.314 50.9648 123.408C50.9742 122.744 50.5046 122.153 49.8409 122.137Z" fill="white"/>
<path fill-rule="evenodd" clip-rule="evenodd" d="M67.4538 93.3755H99.2956C101.371 93.3755 103.071 95.0754 103.071 97.151V129.979C103.071 132.055 101.371 133.755 99.2956 133.755H67.4538C65.3782 133.755 63.6782 132.055 63.6782 129.979V97.151C63.6782 95.0723 65.3782 93.3755 67.4538 93.3755Z" fill="url(#paint4_linear)"/>
<path fill-rule="evenodd" clip-rule="evenodd" d="M94.2087 97.9774L78.593 97.8177C77.7728 97.8083 77.1185 98.519 77.1154 99.4269L76.9995 118.677C76.9902 120.001 75.9977 120.922 74.8018 120.728C74.2602 120.637 73.8752 120.537 73.2616 120.546C70.588 120.662 68.5844 122.753 68.8098 125.273C69.0039 127.452 70.8197 129.227 73.0518 129.594C73.3836 129.647 73.7249 129.672 74.0724 129.659C75.9883 129.578 77.5662 128.486 78.2236 126.945C78.6932 125.806 78.4897 122.522 78.4929 121.219L78.5836 106.336C78.593 105.137 79.4164 104.254 80.509 104.264L91.6071 104.392C93.0159 104.405 94.1523 105.807 94.1429 107.222L94.0866 116.248C94.0772 117.572 93.091 118.496 91.8889 118.295C91.3567 118.208 90.956 118.101 90.3455 118.132C87.6656 118.223 85.6683 120.34 85.8906 122.835C86.0847 125.014 87.9004 126.789 90.1326 127.155C90.4644 127.211 90.8057 127.233 91.15 127.221C93.0691 127.155 94.6376 126.047 95.3044 124.506C95.7959 123.37 95.5674 120.083 95.5705 118.781C95.6143 112.397 95.6644 106.011 95.6863 99.6366C95.6801 98.7632 95.0696 97.9962 94.2087 97.9774Z" fill="white"/>
<path fill-rule="evenodd" clip-rule="evenodd" d="M131.549 335.283C133.556 338.242 121.834 339.128 104.422 341.61L100.909 325.453C107.925 326.446 128.196 330.337 131.549 335.283Z" fill="#273087"/>
<path fill-rule="evenodd" clip-rule="evenodd" d="M70.223 315.56C60.6151 301.648 40.3316 284.604 37.705 283.819C34.5619 282.879 35.8955 289.144 38.4564 296.729C44.6018 314.943 58.5207 329.999 67.5025 334.541L70.223 315.56Z" fill="#1B2271"/>
<path fill-rule="evenodd" clip-rule="evenodd" d="M86.6433 264.966C63.1416 327.087 59.9984 319.962 64.7915 350.808C67.6059 368.916 76.8162 394.224 76.979 416.404C77.098 432.518 67.3241 435.746 53.5493 444.336L78.1843 441.788L97.3971 434.049C98.5335 432.042 95.0616 423.971 94.6922 417.319C94.1944 408.346 93.1551 388.698 92.9735 375.628C92.7888 362.557 92.0938 348.044 93.9753 335.768C95.9633 322.792 108.955 298.389 114.863 285.907L86.6433 264.966Z" fill="url(#paint5_linear)"/>
<path fill-rule="evenodd" clip-rule="evenodd" d="M86.6447 264.966C76.0161 293.057 69.5545 306.988 66.1045 316.672C65.8916 317.266 63.5468 322.059 63.1147 329.667C66.0012 338.151 76.1914 347.33 84.8696 351.284C84.9071 353.391 89.9256 383.364 93.5571 412.275C93.0562 403.303 93.1564 388.698 92.9717 375.628C92.787 362.557 92.092 348.044 93.9735 335.768C95.9615 322.792 108.954 298.389 114.861 285.907L86.6447 264.966Z" fill="url(#paint6_linear)"/>
<path fill-rule="evenodd" clip-rule="evenodd" d="M96.8773 427.346C82.7613 438.257 75.8801 438.088 59.4317 441.744C53.4021 443.084 45.5536 447.104 42.2695 451.812C54.1785 452.122 65.9904 449.931 77.8587 449.07L77.8555 450.936C81.484 450.623 84.2233 450.26 87.285 449.687C91.07 448.979 92.0874 448.61 94.185 445.044C97.3125 439.734 100.816 435.201 96.8773 427.346Z" fill="url(#paint7_linear)"/>
<path fill-rule="evenodd" clip-rule="evenodd" d="M40.4327 173.094C35.6522 171.682 33.8208 170.314 29.9889 167.152C26.4794 164.26 24.7732 164.742 20.406 164.438C17.482 164.235 16.189 164.141 15.6192 165.675C12.833 173.188 12.8267 177.543 16.1953 179.03C19.4699 180.473 23.8184 182.517 26.1069 182.621C32.0113 182.884 28.8806 180.614 38.044 183.153C40.2887 178.974 40.4484 177.828 40.4327 173.094Z" fill="url(#paint8_linear)"/>
<path fill-rule="evenodd" clip-rule="evenodd" d="M139.761 115.525C139.37 115.321 137.122 115.121 135.453 115.215C133.218 115.34 131.64 115.775 131.878 117.222C132.307 119.826 134.956 121.144 134.981 118.605C134.99 117.084 137.191 115.619 139.761 115.525Z" fill="#0D74BC"/>
<path fill-rule="evenodd" clip-rule="evenodd" d="M140.613 121.398C151.442 117.841 156.395 122.863 159.851 130.661C163.476 138.839 163.608 142.861 166.275 146.03C170.792 151.396 177.32 150.929 190.425 152.914C213.523 156.414 212.9 178.385 204.888 193.431C195.39 211.272 171.628 221.779 153.427 222.712C130.921 223.864 125.082 212.703 125.586 199.823C125.918 191.333 129.227 186.008 128.829 182.639C127.211 168.977 114.807 172.033 115.267 156.821C115.524 148.343 123.996 143.109 123.999 132.389C116.006 112.328 134.267 114.069 140.613 121.398Z" fill="url(#paint9_linear)"/>
<path fill-rule="evenodd" clip-rule="evenodd" d="M206.037 191.13C205.677 191.912 205.295 192.683 204.894 193.434C195.396 211.275 171.634 221.782 153.433 222.715C130.926 223.867 125.088 212.706 125.592 199.827C125.924 191.336 129.233 186.011 128.835 182.643C127.217 168.98 114.813 172.036 115.273 156.824C115.53 148.346 124.001 143.112 124.005 132.393C123.848 132.001 123.707 131.622 123.569 131.247C128.588 133.094 135.525 132.546 143.408 129.475C144.867 134.121 144.319 139.055 144.332 143.97C149.466 141.562 150.603 145.291 150.505 150.566C150.368 158.217 150.48 160.008 152.894 161.445C167.978 170.439 169.177 172.045 180.541 187.908C188.706 199.301 194.203 197.4 206.037 191.13Z" fill="#22043D"/>
<path fill-rule="evenodd" clip-rule="evenodd" d="M39.2456 172.064C36.1494 173.651 33.4164 181.027 37.4518 184.555C67.9568 203.026 87.276 210.01 118.742 194.852C124.903 191.884 132.689 186.052 135.175 182.955C139.163 177.981 135.356 152.641 107.707 172.139C88.6159 185.601 73.7359 186.928 39.2456 172.064Z" fill="url(#paint10_linear)"/>
<path opacity="0.35" fill-rule="evenodd" clip-rule="evenodd" d="M37.4478 184.559C67.9527 203.029 87.2719 210.014 118.738 194.855C124.899 191.887 132.685 186.055 135.171 182.959C139.159 177.984 124.514 153.618 109.722 172.646C88.496 199.943 79.5893 196.502 37.4478 184.559Z" fill="url(#paint11_linear)"/>
<path fill-rule="evenodd" clip-rule="evenodd" d="M83.6129 263.494C82.1854 261.231 72.6181 247.171 75.1477 244.949C77.001 243.267 83.087 245.415 92.4946 253.401L83.6129 263.494Z" fill="#5352CF"/>
<path fill-rule="evenodd" clip-rule="evenodd" d="M67.2938 276.177C60.3876 309.171 55.0468 324.282 88.673 346.688C115.23 364.386 142.063 382.562 149.818 394.493C152.429 398.51 154.031 403.835 156.304 410.447C158.261 416.135 161.313 423.546 164.153 430.593L167.669 404.984L162.628 387.146L156.862 378.633C126.028 342.346 105.813 326.411 102.088 276.991L67.2938 276.177Z" fill="url(#paint12_linear)"/>
<path fill-rule="evenodd" clip-rule="evenodd" d="M67.2946 276.177C63.9198 292.293 60.9206 304.146 62.655 314.662C67.808 326.821 100.564 334.438 112.633 338.032C128.508 358.61 141.619 370.162 156.581 378.298C125.906 342.246 105.805 326.258 102.092 276.991L67.2946 276.177Z" fill="url(#paint13_linear)"/>
<path fill-rule="evenodd" clip-rule="evenodd" d="M156.038 377.369C157.935 384.043 159.516 390.345 160.189 396.09C161.031 403.309 159.929 409.874 160.797 418.559C161.413 424.76 163.389 432.293 167.402 436.4C169.932 424.76 169.988 412.748 171.363 400.927L173.194 401.277C173.567 397.655 173.72 394.897 173.729 391.782C173.742 387.928 173.57 386.864 170.458 384.134C165.824 380.07 163.398 379.382 156.038 377.369Z" fill="url(#paint14_linear)"/>
<path fill-rule="evenodd" clip-rule="evenodd" d="M93.9763 237.068C75.0359 275.682 45.708 277.482 36.4351 283.953C38.3917 283.076 39.6314 286.855 43.2098 291.717C67.5255 324.748 91.6752 326.946 111.323 330.443C118.909 331.792 125.367 330.559 131.55 335.28C108.412 302.624 134.052 305.752 140.163 279.986C141.916 272.595 141.922 261.162 142.232 250.402L93.9763 237.068Z" fill="url(#paint15_linear)"/>
<path opacity="0.35" fill-rule="evenodd" clip-rule="evenodd" d="M93.9761 237.068C90.8768 243.386 87.502 248.714 83.98 253.241C92.7708 266.559 122.553 276.984 128.661 277.832C116.003 298.492 101.455 303.854 112.438 330.628C119.544 331.689 125.674 330.794 131.553 335.283C108.415 302.627 134.055 305.755 140.166 279.989C141.919 272.598 141.925 261.165 142.235 250.405L93.9761 237.068Z" fill="url(#paint16_linear)"/>
<path fill-rule="evenodd" clip-rule="evenodd" d="M144.169 270.976C123.929 268.215 102.45 262.245 85.5974 250.486C80.6228 247.015 76.5686 244.087 75.2036 244.895C100.496 227.248 97.378 209.66 104.359 184.586C106.782 175.883 114.741 166.141 123.813 163.877C134.479 161.219 146.833 166.172 151.76 171.231C156.04 175.623 159.177 182.508 159.584 191.233C160.579 212.587 148.717 249.801 144.169 270.976Z" fill="url(#paint17_linear)"/>
<path fill-rule="evenodd" clip-rule="evenodd" d="M140.037 155.875C139.57 161.385 139.492 162.916 140.434 168.367C138.521 173.692 128.579 176.103 126.929 167.287C127.959 164.763 128.078 162.96 128.172 160.816L132.968 157.175L140.037 155.875Z" fill="#FFA698"/>
<path fill-rule="evenodd" clip-rule="evenodd" d="M140.038 155.875C139.9 157.491 139.499 159.729 139.687 162.628C137.799 165.571 131.503 167.775 127.189 166.661C127.953 164.942 128.107 162.375 128.176 160.819L132.972 157.178L140.038 155.875Z" fill="url(#paint18_linear)"/>
<path fill-rule="evenodd" clip-rule="evenodd" d="M122.056 134.089C120.678 142.78 118.856 149.821 121.433 156.786C123.64 162.753 127.797 162.512 132.208 160.775C136.707 159.003 139.108 157.841 142.345 154.395C143.457 153.903 144.678 153.938 145.967 152.811C147.89 151.132 149.317 147.977 148.043 145.748C147.476 144.755 145.87 145.306 144.69 146.997C143.213 149.11 142.643 146.881 142.746 145.291C143.031 140.908 142.076 138.081 141.585 133.463C135.524 135.927 127.503 139.086 122.056 134.089Z" fill="url(#paint19_linear)"/>
<path fill-rule="evenodd" clip-rule="evenodd" d="M122.058 134.089C121.842 135.451 121.617 136.772 121.397 138.058C127.177 140.754 133.576 140.012 140.485 135.642C141.553 139.765 140.532 142.88 141.142 145.81C141.64 148.199 142.557 149.319 144.001 148.937C146.039 148.396 145.863 147.031 148.387 146.571C148.308 146.286 148.196 146.01 148.045 145.75C147.479 144.758 145.873 145.309 144.693 147C143.215 149.113 142.645 146.884 142.748 145.293C143.033 140.91 142.078 138.084 141.587 133.466C135.526 135.927 127.505 139.085 122.058 134.089Z" fill="#FFA698"/>
<path fill-rule="evenodd" clip-rule="evenodd" d="M125.727 136.484C132.304 138.14 143.099 134.793 143.888 128.31C144.614 122.352 138.124 117.763 132.379 116.21C116.626 111.952 111.313 132.852 125.727 136.484Z" fill="#5A2D68"/>
<path fill-rule="evenodd" clip-rule="evenodd" d="M125.726 136.484C131.775 138.009 141.389 135.301 143.508 129.813C143.474 129.697 143.443 129.584 143.405 129.472C131.305 134.183 121.431 132.956 117.308 126.235C117.227 130.605 119.819 134.997 125.726 136.484Z" fill="#22043D"/>
<path fill-rule="evenodd" clip-rule="evenodd" d="M132.749 116.305C133.372 115.914 134.64 116.158 135.166 116.249C137.505 116.652 139.342 117.413 140.76 118.903C143.982 122.291 145.003 128.662 144.52 137.556L147.413 137.603C147.795 129.122 147.714 123.54 145.575 120.159C143.691 117.172 139.389 114.727 133.491 115.46C133.084 115.51 132.452 115.751 132.123 116.142L132.749 116.305Z" fill="#0D99BC"/>
<path fill-rule="evenodd" clip-rule="evenodd" d="M133.347 115.468C143.237 115.443 146.029 122.922 145.256 137.161L148.149 137.208C148.531 128.727 148.449 123.145 146.311 119.764C144.289 116.555 140.012 114.191 133.347 115.468Z" fill="url(#paint20_linear)"/>
<path fill-rule="evenodd" clip-rule="evenodd" d="M146.262 136.979C150.567 137.44 153.663 141.503 153.175 146.058C152.69 150.61 148.804 153.929 144.5 153.468C140.195 153.008 137.099 148.945 137.587 144.39C138.073 139.838 141.958 136.519 146.262 136.979Z" fill="#282F7C"/>
<path fill-rule="evenodd" clip-rule="evenodd" d="M147.642 137.455C151.768 137.897 154.736 141.801 154.269 146.177C153.803 150.554 150.077 153.741 145.951 153.3C141.825 152.858 138.857 148.954 139.324 144.578C139.79 140.201 143.516 137.014 147.642 137.455Z" fill="url(#paint21_linear)"/>
<path fill-rule="evenodd" clip-rule="evenodd" d="M148.792 138.691C152.204 139.058 154.659 142.279 154.274 145.889C153.888 149.498 150.808 152.131 147.396 151.765C143.983 151.402 141.529 148.177 141.914 144.568C142.299 140.958 145.379 138.325 148.792 138.691Z" fill="url(#paint22_linear)"/>
<path fill-rule="evenodd" clip-rule="evenodd" d="M149.412 138.983C152.518 139.315 154.734 142.395 154.362 145.864C153.992 149.333 151.175 151.875 148.069 151.543C144.963 151.211 142.75 148.13 143.119 144.662C143.492 141.196 146.306 138.651 149.412 138.983Z" fill="url(#paint23_linear)"/>
<path fill-rule="evenodd" clip-rule="evenodd" d="M29.6617 160.988L25.6012 180.967C25.3539 182.191 24.1236 182.971 22.9026 182.708L16.0715 181.237C14.8506 180.974 14.0804 179.762 14.3309 178.538L18.3913 158.558C18.6387 157.334 19.869 156.555 21.09 156.818L27.921 158.289C29.142 158.552 29.909 159.764 29.6617 160.988Z" fill="url(#paint24_linear)"/>
<path fill-rule="evenodd" clip-rule="evenodd" d="M15.0179 165.602C16.4016 163.389 17.8198 163.589 18.8091 163.777C23.1638 164.613 22.0869 172.277 21.1164 176.941C20.3963 180.394 19.1378 179.991 16.0604 179.045C12.0594 177.815 13.2303 168.457 15.0179 165.602Z" fill="url(#paint25_linear)"/>
<path fill-rule="evenodd" clip-rule="evenodd" d="M160.534 105.002C157.375 101.145 157.04 99.8682 152.635 97.5671C148.603 95.4602 147.526 94.2455 145.548 90.3354C145.041 89.3335 144.236 87.8277 143.018 86.3438C141.299 84.5875 138.939 82.396 137.862 81.0749C134.709 77.2054 137.993 76.1848 141.234 78.968L146.938 83.8674C153.218 81.7292 153.662 78.6674 157.284 81.172C159.52 82.7154 162.3 86.0683 163.286 88.1408C165.828 93.4785 162.228 91.7504 168.129 99.2044C165.152 102.899 164.901 103.174 160.534 105.002Z" fill="url(#paint26_linear)"/>
<path fill-rule="evenodd" clip-rule="evenodd" d="M148.488 87.6869C148.222 86.1122 143.695 79.4283 142.869 77.3808C141.003 72.7537 144.443 72.7506 146.713 76.3665L150.711 82.7342L148.488 87.6869Z" fill="#FFA698"/>
<path fill-rule="evenodd" clip-rule="evenodd" d="M154.612 98.5158C154.477 96.2242 151.19 91.4468 151.923 89.8721C151.963 89.6091 152.768 89.6717 155.51 90.0912C156.484 90.2384 157.395 89.5684 157.542 88.5948C157.689 87.6212 157.019 86.7101 156.046 86.563C150.57 85.724 148.974 85.3828 148.491 88.5541C147.796 91.115 147.148 93.0591 147.596 94.3113C148.416 96.628 152.586 97.6204 154.612 98.5158Z" fill="#FFA698"/>
<path fill-rule="evenodd" clip-rule="evenodd" d="M154.088 87.9246C154.633 88.7448 155.741 88.9702 156.562 88.4255C157.382 87.8807 157.607 86.7725 157.063 85.9523L153.75 81.034C153.206 80.2138 152.097 79.9915 151.277 80.5362C150.457 81.081 150.232 82.1892 150.776 83.0094L154.088 87.9246Z" fill="#FFA698"/>
<path fill-rule="evenodd" clip-rule="evenodd" d="M156.872 85.3795C157.348 86.0964 158.315 86.2905 159.029 85.8147C159.746 85.3388 159.94 84.3714 159.464 83.6545L156.575 79.3624C156.099 78.6455 155.131 78.4514 154.414 78.9273C153.697 79.4031 153.503 80.3705 153.979 81.0874L156.872 85.3795Z" fill="#FFA698"/>
<path fill-rule="evenodd" clip-rule="evenodd" d="M170.531 154.169C164.652 157.694 153.776 162.866 147.142 168.176C136.792 176.459 152.831 193.675 159.252 191.477C174.448 186.274 193.726 169.497 198.394 161.229C212.069 136.857 181.946 109.398 167.964 94.8623C164.395 93.6821 158.096 97.6924 156.384 102.476C163.81 114.751 188.802 143.212 170.531 154.169Z" fill="url(#paint27_linear)"/>
<path opacity="0.35" fill-rule="evenodd" clip-rule="evenodd" d="M144.169 270.977C143.75 246.695 148.227 206.438 148.199 182.567C207.527 161.288 197.03 131.957 167.962 94.8623C181.947 109.395 212.067 136.857 198.392 161.229C193.759 169.437 174.728 186.03 159.585 191.361C160.533 212.734 148.709 249.842 144.169 270.977Z" fill="url(#paint28_linear)"/>
<path fill-rule="evenodd" clip-rule="evenodd" d="M23.793 157.537C25.1016 153.853 26.7483 151.192 28.6361 149.426C31.0498 147.166 33.8392 146.364 36.8071 146.737C39.7248 147.1 42.8054 148.606 45.8546 150.976C51.1423 155.083 56.3736 161.817 60.5217 169.694C63.7869 175.899 67.4341 178.951 71.1753 180.188C74.9164 181.427 78.7921 180.864 82.4957 179.834C85.0252 179.133 87.3043 178.275 89.3987 177.486C98.3179 174.133 104.041 171.982 112.866 186.756C116.034 192.056 118.398 198.361 120.452 203.852C121.904 207.728 123.203 211.197 124.515 213.579C126.112 216.481 129.271 218.256 132.927 218.964C135.795 219.518 138.966 219.418 141.934 218.695C144.893 217.971 147.647 216.631 149.707 214.703C151.974 212.577 153.392 209.725 153.283 206.194C153.038 198.402 149.795 190.309 146.658 182.489C142.219 171.422 137.996 160.89 142.62 152.234L143.459 152.682C139.044 160.947 143.186 171.278 147.541 182.135C150.709 190.03 153.984 198.201 154.234 206.169C154.353 210.001 152.819 213.091 150.362 215.395C148.18 217.439 145.271 218.857 142.159 219.618C139.06 220.376 135.748 220.479 132.749 219.897C128.829 219.136 125.426 217.208 123.679 214.033C122.339 211.597 121.024 208.094 119.559 204.181C117.518 198.73 115.17 192.469 112.049 187.241C103.631 173.15 98.2021 175.191 89.7337 178.372C87.6237 179.164 85.3289 180.028 82.7492 180.745C78.8923 181.819 74.8381 182.398 70.8778 181.086C66.9176 179.774 63.0794 176.584 59.6827 170.132C55.5972 162.371 50.4567 155.75 45.2723 151.724C42.3546 149.457 39.4337 148.02 36.6944 147.679C34.002 147.344 31.4756 148.07 29.2873 150.115C27.5122 151.777 25.95 154.31 24.6946 157.847L23.793 157.537Z" fill="#CCF4F8"/>
<path fill-rule="evenodd" clip-rule="evenodd" d="M219.743 55.6702H224.508V57.6488H219.743V55.6702ZM369.031 34.1784V28.2552H364.266V34.1784H369.031ZM366.439 13.2375C364.827 10.0724 362.557 7.3425 359.764 5.15105L356.834 8.91096C359.072 10.6547 360.91 12.8837 362.197 15.4133L366.439 13.2375ZM345.025 0.0888092V4.85677H335.492V0.0888092H345.025ZM321.195 0.0888092V4.85677H311.662V0.0888092H321.195ZM297.364 0.0888092V4.85677H287.832V0.0888092H297.364ZM273.531 0.0888092V4.85677H263.998V0.0888092H273.531ZM249.7 0.0888092V4.85677C247.039 4.85677 243.43 4.63137 240.574 5.11349L239.792 0.411265C243.016 -0.117814 246.491 0.0888092 249.7 0.0888092ZM226.089 7.84028C223.71 10.3792 221.872 13.6101 220.829 16.9254L225.378 18.3498C226.242 15.6606 227.661 13.1342 229.598 11.068L226.089 7.84028ZM219.743 31.8367H224.508V41.3695H219.743V31.8367Z" fill="white"/>
<path fill-rule="evenodd" clip-rule="evenodd" d="M447.64 135.63C444.406 134.09 440.972 133.323 437.391 133.314V138.079C440.258 138.088 442.995 138.695 445.584 139.929L447.64 135.63ZM398.07 298.192V293.424H407.603V298.192H398.07ZM421.903 298.192V293.424H431.436V298.192H421.903ZM446.445 296.408C449.71 295.052 452.653 293.011 455.038 290.397L451.513 287.188C449.544 289.314 447.28 290.901 444.604 292.012L446.445 296.408ZM461.271 276.109C461.515 272.925 461.343 269.553 461.343 266.394H456.578C456.578 269.44 456.757 272.681 456.519 275.742L461.271 276.109ZM461.343 252.097H456.578V242.564H461.343V252.097ZM461.343 228.263H456.578V218.73H461.343V228.263ZM461.343 204.433H456.578V194.9H461.343V204.433ZM461.343 180.599H456.578V171.066H461.343V180.599ZM461.337 156.706C461.281 153.218 460.36 149.624 458.782 146.519L454.531 148.676C455.796 151.152 456.525 154.048 456.572 156.831L461.337 156.706Z" fill="white"/>
<path fill-rule="evenodd" clip-rule="evenodd" d="M364.492 326.703H359.727V317.17H364.492V326.703ZM326.492 398.072V393.304H336.025V398.072H326.492ZM351.052 395.627C354.18 394.096 357.063 391.789 359.229 389.059L355.501 386.091C353.682 388.32 351.515 390.092 348.926 391.36L351.052 395.627ZM364.492 374.382C364.52 371.205 364.492 368.015 364.492 364.834H359.727C359.727 368.002 359.755 371.183 359.727 374.351L364.492 374.382ZM364.492 350.536H359.727V341.004H364.492V350.536Z" fill="white"/>
<path opacity="0.5" fill-rule="evenodd" clip-rule="evenodd" d="M213.433 229.421H341.235V336.47H213.433C203.928 336.47 196.136 328.308 196.136 318.331V247.563C196.136 237.585 203.919 229.421 213.433 229.421Z" fill="#DF3A92"/>
<path fill-rule="evenodd" clip-rule="evenodd" d="M226.736 229.421H388.139C396.99 229.421 404.228 236.668 404.228 245.509V308.278C404.228 317.119 396.98 324.367 388.139 324.367H226.736C217.895 324.367 210.647 317.129 210.647 308.278V245.509C210.647 236.662 217.886 229.421 226.736 229.421Z" fill="url(#paint29_linear)"/>
<path opacity="0.5" fill-rule="evenodd" clip-rule="evenodd" d="M210.647 265.924L212.012 264.415L214.761 265.025L215.853 266.406L219.04 266.077L220.371 245.34L221.276 266.544L221.989 265.21L222.835 265.867L223.767 263.294L224.56 261.629L225.624 265.601L228.125 267.029C228.125 267.029 230.743 268.729 230.915 268.303C230.999 268.093 231.625 264.728 232.239 261.353L232.596 266.863L234.418 266.597L234.061 261.09L234.459 265.827L237.683 247.938L237.931 265.285L239.809 248.254L240.952 265.504L243.913 255.765L244.621 261.885L246.127 257.408L247.523 264.85L249.846 259.068L250.898 267.358L253.358 262.148L253.17 268.366L253.258 272.711L254.886 270.044L255.484 272.996C255.484 272.996 256.843 269.305 257.103 270.206C257.362 271.111 258.029 273.609 258.029 273.609C258.029 273.609 259.535 269.07 259.667 269.583C259.801 270.097 261.354 269.909 261.457 269.389C262.422 264.606 263.192 260.101 264.453 255.577L263.905 271.512L264.998 273.631L265.79 263.654L267.321 256.522L267.737 262.793L266.814 273.059C266.426 277.394 268.176 265.141 268.999 260.671C268.999 260.671 269.591 257.527 269.672 258.736C269.754 259.941 269.876 264.828 269.876 264.828L269.262 273.728L270.007 273.663L273.382 242.172L273.203 275.726C275.589 269.302 276.287 265.363 277.123 259.249L276.678 270.689L276.4 275.579L278.259 267.358L279.615 263.604L280.357 265.711L281.425 263.651L281.528 263.936L281.781 267.846L283.603 267.545L283.428 264.856L283.87 264.239L284.853 265.47L285.294 270.626L285.951 268.45L286.293 270.56L287.783 268.86L288.074 270.247L290.444 271.224L292.648 272.686L294.789 262.652L295.021 272.185L298.045 254.804L298.54 270.833C301.924 260.267 302.469 230.929 302.362 240.81L302.134 262.01L302.534 261.566L303.492 263.911L304.895 262.361L307.644 262.972L308.736 264.352L311.923 264.023L313.254 243.286L314.159 264.49L314.872 263.156L315.718 263.814L316.651 261.24L317.443 259.575L318.507 263.548L321.008 264.975C321.008 264.975 323.626 266.675 323.798 266.249C323.97 265.827 326.384 252.318 326.384 252.318L327.345 263.776L329.79 250.211L330.735 264.819L331.828 262.07L332.517 263.845L331.865 253.764L332.698 246.201L333.844 263.451L336.809 253.711L337.516 259.828L339.022 255.352L340.418 262.793L342.741 257.011L343.793 265.301L346.254 260.091L346.066 266.309L346.154 270.654L347.782 267.987L348.38 270.939C348.38 270.939 349.738 267.248 349.998 268.15C350.258 269.051 350.925 271.553 350.925 271.553C350.925 271.553 352.428 267.013 352.562 267.527C352.697 268.037 354.246 267.852 354.353 267.333C355.317 262.549 356.087 258.044 357.349 253.52L356.801 269.455L357.894 271.571L358.686 261.594L360.217 254.463L360.633 260.736L359.709 271.002C359.321 275.338 361.071 263.084 361.895 258.614C361.895 258.614 362.489 255.474 362.568 256.679C362.646 257.884 362.771 262.771 362.771 262.771L362.158 271.672L362.903 271.606L366.277 240.115L366.096 273.669C368.481 267.245 369.18 263.307 370.015 257.192L369.571 268.632L369.292 273.522L371.152 265.301L372.507 261.55L373.249 263.657L374.317 261.597L375.294 264.246L376.762 262.183L377.745 263.413L378.186 268.569L378.844 266.393L379.185 268.503L379.758 267.849L380.707 261.24L382.056 270.213L381.949 268.591L383.336 269.164L385.537 270.626L387.679 260.592L387.91 270.125L390.934 252.744L391.429 268.77C393.599 258.586 394.244 228.829 395.252 238.75L398.357 269.261L401.532 267.029L402.305 269.627L404.211 268.256V288.452L403.288 287.669L400.83 288.483L398.232 287.403L396.335 312.937C395.549 323.49 395.402 292.782 391.752 281.755L391.667 298.338L388.201 280.265L388.211 290.13L385.816 279.686L383.653 281.145L382.792 281.496L382.56 277.952L382.078 287.901L380.985 282.109L381.07 283.402L381.048 283.527L379.514 281.73L379.226 283.906L378.512 281.636L378.202 286.965L377.247 288.214L375.729 286.041L374.821 288.759L373.7 286.599L373.011 288.762L371.562 284.842L369.493 276.283L369.893 281.355L370.626 293.21C369.637 286.858 368.835 282.764 366.29 276.051L367.323 310.798L363.15 278.105L362.402 278.017L363.241 287.25C363.241 287.25 363.241 292.306 363.191 293.555C363.141 294.801 362.467 291.532 362.467 291.532C361.531 286.883 359.468 274.151 359.969 278.65L361.153 289.303L360.896 295.787L359.183 288.364L358.141 278.011L357.102 280.178L358.053 296.692C356.679 291.974 355.796 287.294 354.71 282.313C354.591 281.771 353.035 281.539 352.916 282.068C352.794 282.594 351.178 277.858 351.178 277.858C351.178 277.858 350.574 280.428 350.336 281.358C350.098 282.288 348.646 278.428 348.646 278.428L348.123 281.471L346.429 278.665L346.451 283.161L346.799 289.601L344.206 284.147L343.364 292.703L340.894 286.661L339.689 294.331L338.07 289.657L337.516 295.975L334.307 285.816L334.17 289.294L333.791 283.446L333.024 284.886L331.271 272.983L332.93 298.498L331.293 285.966L331.487 303.924L327.808 285.321L327.138 297.161C327.138 297.161 324.383 283.114 324.199 282.673C324.017 282.231 321.44 283.925 321.44 283.925L318.977 285.343L318.012 289.432L317.18 287.685L316.184 284.999L315.354 285.659L314.606 284.26L314.24 306.193L312.383 284.686L309.19 284.266L308.132 285.666L305.399 286.232L303.959 284.592L303.06 286.996L302.45 286.301L303.452 315.006C303.809 325.24 302.519 294.851 298.868 283.825L298.781 300.408L295.315 282.335L295.325 292.199L292.93 281.755L290.766 283.214L288.422 284.166L288.162 285.594L286.628 283.793L286.34 285.969L285.626 283.696L285.316 289.025L285.031 289.4L284.427 280.093L282.674 281.424L283.134 288.511L282.846 288.101L281.935 290.819L280.817 288.659L280.128 290.822L278.679 286.902L276.61 278.343L277.01 283.415L277.746 295.27C276.757 288.918 275.955 284.823 273.407 278.111L274.44 312.858L270.267 280.168L269.519 280.081L270.358 289.31C270.358 289.31 270.358 294.366 270.308 295.615C270.258 296.861 269.584 293.592 269.584 293.592C268.648 288.943 266.585 276.211 267.086 280.71L268.27 291.363L268.013 297.85L266.3 290.427L265.258 280.077L264.219 282.241L265.17 298.755C263.796 294.037 262.91 289.357 261.824 284.376C261.705 283.834 260.149 283.603 260.03 284.128C259.908 284.654 258.289 279.918 258.289 279.918C258.289 279.918 257.685 282.488 257.447 283.418C257.209 284.348 255.756 280.491 255.756 280.491L255.234 283.534L253.54 280.732L253.562 285.227L253.909 291.67L251.314 286.213L250.475 294.77L248.005 288.727L246.8 296.397L245.181 291.723L244.63 298.044L241.421 287.885L240.714 305.717L238.403 288.036L238.594 305.993L236.187 293.815L235.827 288.252L234.528 287.031L233.879 286.589L234.459 295.511L234.249 299.231C234.249 299.231 231.494 285.183 231.309 284.742C231.128 284.301 228.551 285.994 228.551 285.994L226.087 287.413L225.123 291.501L224.29 289.757L223.295 287.071L222.465 287.732L221.717 286.332L221.351 308.266L219.494 286.758L216.301 286.339L215.243 287.738L212.51 288.302L211.07 286.661L210.65 287.785V265.924H210.647Z" fill="white"/>
<path opacity="0.5" fill-rule="evenodd" clip-rule="evenodd" d="M210.647 269.975L212.012 269.023L214.761 269.408L215.853 270.278L219.04 270.072L220.371 256.992L221.276 270.366L221.989 269.524L222.835 269.937L223.767 268.315L224.56 267.264L225.624 269.771L228.125 270.673C228.125 270.673 230.743 271.743 230.915 271.477C230.999 271.346 231.625 269.22 232.239 267.094L232.596 270.573L234.418 270.407L234.061 266.932L234.459 269.918L237.683 258.635L237.931 269.577L239.809 258.833L240.952 269.715L243.913 263.573L244.621 267.433L246.127 264.609L247.523 269.302L249.846 265.654L250.898 270.883L253.358 267.595L253.17 271.518L253.258 274.257L254.886 272.573L255.484 274.436C255.484 274.436 256.843 272.107 257.103 272.676C257.362 273.246 258.029 274.821 258.029 274.821C258.029 274.821 259.535 271.959 259.667 272.282C259.801 272.604 261.354 272.485 261.457 272.16C262.422 269.142 263.192 266.302 264.453 263.447L263.905 273.5L264.998 274.837L265.79 268.544L267.321 264.045L267.737 268.002L266.814 274.477C266.426 277.213 268.176 269.483 268.999 266.662C268.999 266.662 269.591 264.681 269.672 265.441C269.754 266.202 269.876 269.286 269.876 269.286L269.262 274.899L270.007 274.858L273.382 254.995L273.203 276.158C275.589 272.107 276.287 269.621 277.123 265.767L276.678 272.983L276.4 276.067L278.259 270.883L279.615 268.516L280.357 269.843L281.425 268.544L281.528 268.722L281.781 271.189L283.603 270.998L283.428 269.302L283.87 268.913L284.853 269.69L285.294 272.942L285.951 271.568L286.293 272.899L287.783 271.825L288.074 272.698L290.444 273.315L292.648 274.235L294.789 267.905L295.021 273.919L298.045 262.956L298.54 273.065C301.924 266.399 302.469 247.894 302.362 254.127L302.134 267.501L302.534 267.223L303.492 268.704L304.895 267.727L307.644 268.112L308.736 268.982L311.923 268.776L313.254 255.696L314.159 269.07L314.872 268.228L315.718 268.644L316.651 267.022L317.443 265.971L318.507 268.478L321.008 269.38C321.008 269.38 323.626 270.451 323.798 270.184C323.97 269.918 326.384 261.397 326.384 261.397L327.345 268.625L329.79 260.069L330.735 269.283L331.828 267.548L332.517 268.669L331.865 262.311L332.698 257.54L333.844 268.422L336.809 262.28L337.516 266.14L339.022 263.316L340.418 268.009L342.741 264.361L343.793 269.59L346.254 266.302L346.066 270.222L346.154 272.961L347.782 271.277L348.38 273.14C348.38 273.14 349.738 270.811 349.998 271.38C350.258 271.95 350.925 273.525 350.925 273.525C350.925 273.525 352.428 270.663 352.562 270.986C352.697 271.308 354.246 271.189 354.353 270.864C355.317 267.846 356.087 265.006 357.349 262.151L356.801 272.204L357.894 273.54L358.686 267.248L360.217 262.749L360.633 266.706L359.709 273.18C359.321 275.917 361.071 268.187 361.895 265.366C361.895 265.366 362.489 263.385 362.568 264.145C362.646 264.906 362.771 267.99 362.771 267.99L362.158 273.603L362.903 273.562L366.277 253.698L366.096 274.862C368.481 270.811 369.18 268.325 370.015 264.471L369.571 271.687L369.292 274.771L371.152 269.586L372.507 267.22L373.249 268.547L374.317 267.248L375.294 268.916L376.762 267.614L377.745 268.387L378.186 271.64L378.844 270.266L379.185 271.596L379.758 271.183L380.707 267.016L382.056 272.676L381.949 271.656L383.336 272.016L385.537 272.936L387.679 266.606L387.91 272.62L390.934 261.657L391.429 271.765C393.599 265.341 394.244 246.573 395.252 252.828L398.357 272.072L401.532 270.663L402.305 272.304L404.211 271.44V284.178L403.288 283.687L400.83 284.2L398.232 283.521L396.335 299.625C395.549 306.284 395.402 286.911 391.752 279.955L391.667 290.415L388.201 279.013L388.211 285.237L385.816 278.65L383.653 279.57L382.792 279.789L382.56 277.554L382.078 283.831L380.985 280.177L381.07 280.991L381.048 281.073L379.514 279.94L379.226 281.311L378.512 279.877L378.202 283.236L377.247 284.025L375.729 282.654L374.821 284.366L373.7 283.004L373.011 284.369L371.562 281.896L369.493 276.499L369.893 279.698L370.626 287.178C369.637 283.17 368.835 280.588 366.29 276.355L367.323 298.273L363.15 277.651L362.402 277.595L363.241 283.418C363.241 283.418 363.241 286.608 363.191 287.394C363.141 288.179 362.467 286.119 362.467 286.119C361.531 283.186 359.468 275.156 359.969 277.992L361.153 284.711L360.896 288.802L359.183 284.119L358.141 277.588L357.102 278.953L358.053 289.369C356.679 286.395 355.796 283.44 354.71 280.3C354.591 279.958 353.035 279.811 352.916 280.146C352.794 280.478 351.178 277.491 351.178 277.491C351.178 277.491 350.574 279.113 350.336 279.698C350.098 280.284 348.646 277.851 348.646 277.851L348.123 279.77L346.429 278.002L346.451 280.838L346.799 284.902L344.206 281.461L343.364 286.858L340.894 283.045L339.689 287.885L338.07 284.936L337.516 288.921L334.307 282.513L334.17 284.704L333.791 281.016L333.024 281.924L331.271 274.417L332.93 290.512L331.293 282.607L331.487 293.933L327.808 282.2L327.138 289.67C327.138 289.67 324.383 280.81 324.199 280.531C324.017 280.253 321.44 281.32 321.44 281.32L318.977 282.212L318.012 284.792L317.18 283.69L316.184 281.996L315.354 282.413L314.606 281.53L314.24 295.364L312.383 281.799L309.19 281.536L308.132 282.419L305.399 282.776L303.959 281.74L303.06 283.258L302.45 282.82L303.452 300.927C303.809 307.383 302.519 288.214 298.868 281.258L298.781 291.717L295.315 280.315L295.325 286.539L292.93 279.952L290.766 280.872L288.422 281.474L288.162 282.375L286.628 281.239L286.34 282.61L285.626 281.176L285.316 284.538L285.031 284.776L284.427 278.906L282.674 279.745L283.134 284.216L282.846 283.956L281.935 285.669L280.817 284.307L280.128 285.672L278.679 283.198L276.61 277.801L277.01 280.998L277.746 288.477C276.757 284.47 275.955 281.887 273.407 277.654L274.44 299.572L270.267 278.95L269.519 278.894L270.358 284.717C270.358 284.717 270.358 287.907 270.308 288.693C270.258 289.479 269.584 287.419 269.584 287.419C268.648 284.485 266.585 276.455 267.086 279.291L268.27 286.01L268.013 290.102L266.3 285.418L265.258 278.888L264.219 280.253L265.17 290.668C263.796 287.691 262.91 284.739 261.824 281.599C261.705 281.257 260.149 281.11 260.03 281.442C259.908 281.774 258.289 278.787 258.289 278.787C258.289 278.787 257.685 280.409 257.447 280.995C257.209 281.58 255.756 279.147 255.756 279.147L255.234 281.067L253.54 279.298L253.562 282.134L253.909 286.198L251.314 282.757L250.475 288.154L248.005 284.341L246.8 289.181L245.181 286.232L244.63 290.217L241.421 283.809L240.714 295.057L238.403 283.903L238.594 295.23L236.187 287.547L235.827 284.038L234.528 283.267L233.879 282.989L234.459 288.618L234.249 290.962C234.249 290.962 231.494 282.103 231.309 281.821C231.128 281.542 228.551 282.61 228.551 282.61L226.087 283.502L225.123 286.082L224.29 284.98L223.295 283.286L222.465 283.703L221.717 282.82L221.351 296.654L219.494 283.089L216.301 282.826L215.243 283.709L212.51 284.066L211.07 283.033L210.65 283.74V269.975H210.647Z" fill="white"/>
<path opacity="0.5" fill-rule="evenodd" clip-rule="evenodd" d="M341.63 21.5649H341.236V47.662C341.236 53.1656 336.734 57.6675 331.23 57.6675H283.958V170.377C283.958 178.814 290.87 185.726 299.307 185.726H341.633V21.5649H341.63Z" fill="#DF3A92"/>
<g filter="url(#filter0_d)">
<path fill-rule="evenodd" clip-rule="evenodd" d="M309.992 21.5648H429.025C436.789 21.5648 443.138 27.92 443.138 35.6778V158.402C443.138 166.16 436.783 172.515 429.025 172.515H309.992C302.234 172.515 295.879 166.163 295.879 158.402V35.6778C295.876 27.9169 302.228 21.5648 309.992 21.5648Z" fill="url(#paint30_linear)"/>
</g>
<g filter="url(#filter1_d)">
<path fill-rule="evenodd" clip-rule="evenodd" d="M443.136 133.37V158.402C443.136 166.16 436.78 172.515 429.023 172.515H309.989C302.232 172.515 295.876 166.163 295.876 158.402V133.37H443.136Z" fill="white"/>
</g>
<path opacity="0.35" fill-rule="evenodd" clip-rule="evenodd" d="M314.907 140.454H334.602C335.885 140.454 336.937 141.506 336.937 142.789V163.095C336.937 164.378 335.885 165.43 334.602 165.43H314.907C313.623 165.43 312.571 164.378 312.571 163.095V142.789C312.571 141.506 313.62 140.454 314.907 140.454Z" fill="#03C8DE"/>
<path d="M322.516 145.335H317.517V160.55H322.516V145.335Z" fill="#03C8DE"/>
<path d="M331.99 145.335H326.991V160.55H331.99V145.335Z" fill="#03C8DE"/>
<path opacity="0.35" fill-rule="evenodd" clip-rule="evenodd" d="M359.655 140.454H379.35C380.633 140.454 381.685 141.506 381.685 142.789V163.095C381.685 164.378 380.633 165.43 379.35 165.43H359.655C358.371 165.43 357.319 164.378 357.319 163.095V142.789C357.319 141.506 358.371 140.454 359.655 140.454Z" fill="#03C8DE"/>
<path fill-rule="evenodd" clip-rule="evenodd" d="M362.913 144.8L376.093 152.942L362.913 161.085V144.8Z" fill="#03C8DE"/>
<path opacity="0.35" fill-rule="evenodd" clip-rule="evenodd" d="M404.404 140.454H424.099C425.383 140.454 426.435 141.506 426.435 142.789V163.095C426.435 164.378 425.383 165.43 424.099 165.43H404.404C403.121 165.43 402.069 164.378 402.069 163.095V142.789C402.072 141.506 403.121 140.454 404.404 140.454Z" fill="#03C8DE"/>
<path fill-rule="evenodd" clip-rule="evenodd" d="M410.376 145.341L422.702 152.955L410.376 160.569V145.341Z" fill="#03C8DE"/>
<path d="M408.63 145.316H405.803V160.531H408.63V145.316Z" fill="#03C8DE"/>
<path fill-rule="evenodd" clip-rule="evenodd" d="M353.579 95.9768H385.43C386.184 95.9768 386.801 96.6937 386.801 97.5703V100.325C386.801 101.202 386.184 101.919 385.43 101.919H353.579C352.824 101.919 352.208 101.202 352.208 100.325V97.5703C352.208 96.6937 352.824 95.9768 353.579 95.9768Z" fill="white"/>
<path opacity="0.5" fill-rule="evenodd" clip-rule="evenodd" d="M340.036 108.227H398.976C399.853 108.227 400.57 108.944 400.57 109.821V112.576C400.57 113.452 399.853 114.169 398.976 114.169H340.036C339.159 114.169 338.442 113.452 338.442 112.576V109.821C338.442 108.944 339.159 108.227 340.036 108.227Z" fill="white"/>
<path opacity="0.5" fill-rule="evenodd" clip-rule="evenodd" d="M389.15 49.3367C389.607 51.2338 389.67 53.4691 390.361 55.5103C391.927 60.1311 393.73 60.1937 393.508 64.6518C393.163 71.5862 390.224 70.8223 387.929 75.5558C385.781 79.9857 387.112 88.2787 368.845 85.5175C365.808 85.0604 360.176 86.7009 356.122 86.2094C348.035 85.2264 350.49 75.2834 349.381 71.727C348.035 67.4067 343.496 65.4282 344.206 59.6741C345.074 52.6583 350.537 54.3269 352.96 48.3192C356.162 40.3768 362.859 36.6075 369.59 39.3781C375.651 41.8701 380.137 38.7582 384.031 41.4287C385.747 42.6027 388.085 44.9131 389.15 49.3367ZM369.552 44.4529C359.475 44.4529 351.307 52.6207 351.307 62.6983C351.307 72.7758 359.475 80.9436 369.552 80.9436C379.626 80.9436 387.797 72.7758 387.797 62.6983C387.797 52.6207 379.626 44.4529 369.552 44.4529Z" fill="white"/>
<path opacity="0.5" fill-rule="evenodd" clip-rule="evenodd" d="M357.149 38.392C359.287 38.1384 361.751 38.3576 364.08 37.8661C369.355 36.7516 369.655 34.7793 374.517 35.6026C382.081 36.8831 380.86 40.0106 385.753 43.1412C390.336 46.0746 399.606 45.6927 394.2 65.3782C393.301 68.6497 394.372 75.0425 393.304 79.4285C391.175 88.1724 380.585 84.1871 376.54 84.9415C371.625 85.8557 368.863 90.5798 362.643 89.0521C355.06 87.1894 357.599 81.4133 351.322 77.9727C343.023 73.4239 339.761 65.5879 343.674 58.5628C347.196 52.2389 344.366 46.9105 347.8 42.9847C349.319 41.2472 352.158 38.9837 357.149 38.392ZM349.241 59.2578C347.929 70.3121 355.831 80.3395 366.885 81.6481C377.939 82.9599 387.967 75.0581 389.275 64.0038C390.587 52.9495 382.685 42.9252 371.631 41.6134C360.577 40.3017 350.552 48.2035 349.241 59.2578Z" fill="white"/>
<path fill-rule="evenodd" clip-rule="evenodd" d="M369.59 41.2031C381.468 41.2031 391.098 50.833 391.098 62.7106C391.098 74.5883 381.468 84.2182 369.59 84.2182C357.712 84.2182 348.083 74.5883 348.083 62.7106C348.079 50.833 357.709 41.2031 369.59 41.2031ZM369.59 46.7757C360.787 46.7757 353.652 53.9104 353.652 62.7138C353.652 71.5171 360.787 78.6519 369.59 78.6519C378.39 78.6519 385.528 71.5171 385.528 62.7138C385.525 53.9104 378.39 46.7757 369.59 46.7757Z" fill="white"/>
<path fill-rule="evenodd" clip-rule="evenodd" d="M369.58 50.1196C373.362 50.1196 376.424 53.1845 376.424 56.9632C376.424 60.745 373.359 63.8099 369.58 63.8099C365.799 63.8099 362.734 60.745 362.734 56.9632C362.737 53.1845 365.802 50.1196 369.58 50.1196ZM374.874 64.0823C377.823 64.7053 380.052 67.335 380.052 70.4626V70.5565C377.582 73.6057 373.81 75.553 369.58 75.553C365.351 75.553 361.578 73.6026 359.108 70.5533V70.4594C359.108 67.3319 361.341 64.7022 364.286 64.0792C365.702 65.3189 367.552 66.0671 369.58 66.0671C371.609 66.0734 373.459 65.322 374.874 64.0823Z" fill="white"/>
<defs>
<filter id="filter0_d" x="283.879" y="13.5648" width="171.259" height="174.95" filterUnits="userSpaceOnUse" color-interpolation-filters="sRGB">
<feFlood flood-opacity="0" result="BackgroundImageFix"/>
<feColorMatrix in="SourceAlpha" type="matrix" values="0 0 0 0 0 0 0 0 0 0 0 0 0 0 0 0 0 0 127 0"/>
<feOffset dy="4"/>
<feGaussianBlur stdDeviation="6"/>
<feColorMatrix type="matrix" values="0 0 0 0 0.433319 0 0 0 0 0.433319 0 0 0 0 0.433319 0 0 0 0.09 0"/>
<feBlend mode="normal" in2="BackgroundImageFix" result="effect1_dropShadow"/>
<feBlend mode="normal" in="SourceGraphic" in2="effect1_dropShadow" result="shape"/>
</filter>
<filter id="filter1_d" x="283.876" y="125.37" width="171.259" height="63.1456" filterUnits="userSpaceOnUse" color-interpolation-filters="sRGB">
<feFlood flood-opacity="0" result="BackgroundImageFix"/>
<feColorMatrix in="SourceAlpha" type="matrix" values="0 0 0 0 0 0 0 0 0 0 0 0 0 0 0 0 0 0 127 0"/>
<feOffset dy="4"/>
<feGaussianBlur stdDeviation="6"/>
<feColorMatrix type="matrix" values="0 0 0 0 0.433319 0 0 0 0 0.433319 0 0 0 0 0.433319 0 0 0 0.09 0"/>
<feBlend mode="normal" in2="BackgroundImageFix" result="effect1_dropShadow"/>
<feBlend mode="normal" in="SourceGraphic" in2="effect1_dropShadow" result="shape"/>
</filter>
<linearGradient id="paint0_linear" x1="236.616" y1="100.717" x2="234.501" y2="409.463" gradientUnits="userSpaceOnUse">
<stop stop-color="#FA5DB1"/>
<stop offset="1" stop-color="#FEBFBF"/>
</linearGradient>
<linearGradient id="paint1_linear" x1="230.605" y1="356.15" x2="239.366" y2="413.793" gradientUnits="userSpaceOnUse">
<stop stop-color="#1C8EF4"/>
<stop offset="1" stop-color="#00CFDD"/>
</linearGradient>
<linearGradient id="paint2_linear" x1="29.9409" y1="31.2516" x2="71.5012" y2="64.9893" gradientUnits="userSpaceOnUse">
<stop stop-color="#1C8EF4"/>
<stop offset="1" stop-color="#00CFDD"/>
</linearGradient>
<linearGradient id="paint3_linear" x1="42.5571" y1="119.126" x2="40.5997" y2="147.016" gradientUnits="userSpaceOnUse">
<stop stop-color="#6D6AFE"/>
<stop offset="1" stop-color="#3FB0F7"/>
</linearGradient>
<linearGradient id="paint4_linear" x1="73.8613" y1="127.451" x2="97.744" y2="92.5822" gradientUnits="userSpaceOnUse">
<stop stop-color="#965CF2"/>
<stop offset="1" stop-color="#FF8ADC"/>
</linearGradient>
<linearGradient id="paint5_linear" x1="68.5848" y1="354.351" x2="87.6466" y2="358.107" gradientUnits="userSpaceOnUse">
<stop stop-color="#FFB89E"/>
<stop offset="1" stop-color="#FFA799"/>
</linearGradient>
<linearGradient id="paint6_linear" x1="115.348" y1="313.946" x2="44.7582" y2="382.935" gradientUnits="userSpaceOnUse">
<stop stop-color="#FF8A78"/>
<stop offset="1" stop-color="#FFA799"/>
</linearGradient>
<linearGradient id="paint7_linear" x1="72.5398" y1="443.342" x2="77.6462" y2="449.815" gradientUnits="userSpaceOnUse">
<stop stop-color="#3E4795"/>
<stop offset="1" stop-color="#273088"/>
</linearGradient>
<linearGradient id="paint8_linear" x1="27.3881" y1="174.148" x2="33.4792" y2="175.601" gradientUnits="userSpaceOnUse">
<stop stop-color="#FF8A78"/>
<stop offset="1" stop-color="#FFA799"/>
</linearGradient>
<linearGradient id="paint9_linear" x1="164.136" y1="156.15" x2="151.509" y2="178.726" gradientUnits="userSpaceOnUse">
<stop stop-color="#5A2D68"/>
<stop offset="1" stop-color="#22043D"/>
</linearGradient>
<linearGradient id="paint10_linear" x1="84.6694" y1="175.024" x2="102.916" y2="213.737" gradientUnits="userSpaceOnUse">
<stop stop-color="#A77EF7"/>
<stop offset="1" stop-color="#5E65D6"/>
</linearGradient>
<linearGradient id="paint11_linear" x1="86.5967" y1="181.356" x2="101.141" y2="212.382" gradientUnits="userSpaceOnUse">
<stop stop-color="#A77EF7"/>
<stop offset="1" stop-color="#5E65D6"/>
</linearGradient>
<linearGradient id="paint12_linear" x1="120.174" y1="348.772" x2="126.194" y2="342.529" gradientUnits="userSpaceOnUse">
<stop stop-color="#FFB89E"/>
<stop offset="1" stop-color="#FFA799"/>
</linearGradient>
<linearGradient id="paint13_linear" x1="119.497" y1="308.737" x2="104.998" y2="344.226" gradientUnits="userSpaceOnUse">
<stop stop-color="#FF8A78"/>
<stop offset="1" stop-color="#FFA799"/>
</linearGradient>
<linearGradient id="paint14_linear" x1="156.844" y1="411.037" x2="169.459" y2="400.296" gradientUnits="userSpaceOnUse">
<stop stop-color="#3E4795"/>
<stop offset="1" stop-color="#273088"/>
</linearGradient>
<linearGradient id="paint15_linear" x1="73.0723" y1="276.939" x2="118.699" y2="288.209" gradientUnits="userSpaceOnUse">
<stop stop-color="#3E4795"/>
<stop offset="1" stop-color="#273088"/>
</linearGradient>
<linearGradient id="paint16_linear" x1="75.0273" y1="276.727" x2="119.282" y2="287.908" gradientUnits="userSpaceOnUse">
<stop stop-color="#3E4795"/>
<stop offset="1" stop-color="#273088"/>
</linearGradient>
<linearGradient id="paint17_linear" x1="114.129" y1="208.628" x2="143.064" y2="254.008" gradientUnits="userSpaceOnUse">
<stop stop-color="#A77EF7"/>
<stop offset="1" stop-color="#5E65D6"/>
</linearGradient>
<linearGradient id="paint18_linear" x1="133.581" y1="161.161" x2="134.504" y2="164.063" gradientUnits="userSpaceOnUse">
<stop stop-color="#FF8A78"/>
<stop offset="1" stop-color="#FFA799"/>
</linearGradient>
<linearGradient id="paint19_linear" x1="132.202" y1="140.383" x2="135.996" y2="156.704" gradientUnits="userSpaceOnUse">
<stop stop-color="#FFB89E"/>
<stop offset="1" stop-color="#FFA799"/>
</linearGradient>
<linearGradient id="paint20_linear" x1="140.247" y1="135.96" x2="141.082" y2="119.982" gradientUnits="userSpaceOnUse">
<stop stop-color="#1C8EF4"/>
<stop offset="1" stop-color="#00CFDD"/>
</linearGradient>
<linearGradient id="paint21_linear" x1="146.366" y1="142.555" x2="147.516" y2="150.115" gradientUnits="userSpaceOnUse">
<stop stop-color="#3E4795"/>
<stop offset="1" stop-color="#273088"/>
</linearGradient>
<linearGradient id="paint22_linear" x1="144.986" y1="144.371" x2="142.684" y2="143.736" gradientUnits="userSpaceOnUse">
<stop stop-color="#1C8EF4"/>
<stop offset="1" stop-color="#00CFDD"/>
</linearGradient>
<linearGradient id="paint23_linear" x1="151.107" y1="142.217" x2="147.064" y2="147.425" gradientUnits="userSpaceOnUse">
<stop stop-color="#1C8EF4"/>
<stop offset="1" stop-color="#00CFDD"/>
</linearGradient>
<linearGradient id="paint24_linear" x1="21.3389" y1="175.553" x2="22.9648" y2="161.213" gradientUnits="userSpaceOnUse">
<stop stop-color="#1C8EF4"/>
<stop offset="1" stop-color="#00CFDD"/>
</linearGradient>
<linearGradient id="paint25_linear" x1="14.6996" y1="171.667" x2="21.4861" y2="171.71" gradientUnits="userSpaceOnUse">
<stop stop-color="#FF8A78"/>
<stop offset="1" stop-color="#FFA799"/>
</linearGradient>
<linearGradient id="paint26_linear" x1="152.873" y1="89.0644" x2="147.605" y2="85.5551" gradientUnits="userSpaceOnUse">
<stop stop-color="#FF8A78"/>
<stop offset="1" stop-color="#FFA799"/>
</linearGradient>
<linearGradient id="paint27_linear" x1="163.871" y1="144.885" x2="192.114" y2="185.396" gradientUnits="userSpaceOnUse">
<stop stop-color="#A77EF7"/>
<stop offset="1" stop-color="#5E65D6"/>
</linearGradient>
<linearGradient id="paint28_linear" x1="159.699" y1="186.123" x2="201.033" y2="222.599" gradientUnits="userSpaceOnUse">
<stop stop-color="#A77EF7"/>
<stop offset="1" stop-color="#5E65D6"/>
</linearGradient>
<linearGradient id="paint29_linear" x1="313.567" y1="235.11" x2="301.364" y2="318.309" gradientUnits="userSpaceOnUse">
<stop stop-color="#6D6AFE"/>
<stop offset="1" stop-color="#3FB0F7"/>
</linearGradient>
<linearGradient id="paint30_linear" x1="394.365" y1="18.8652" x2="359.477" y2="128.579" gradientUnits="userSpaceOnUse">
<stop stop-color="#1C8EF4"/>
<stop offset="1" stop-color="#00CFDD"/>
</linearGradient>
</defs>
</svg>
