<svg width="1360" height="1126" viewBox="0 0 1360 1126" fill="none" xmlns="http://www.w3.org/2000/svg">
<g opacity="0.23">
<mask id="mask0" mask-type="alpha" maskUnits="userSpaceOnUse" x="4" y="0" width="1491" height="974">
<path d="M1495 0H4.6084V973.233H1495V0Z" fill="url(#paint0_linear)"/>
</mask>
<g mask="url(#mask0)">
<g opacity="0.0909">
<path opacity="0.0909" d="M40.6738 50.7222C52.6961 56.6474 170.085 130.241 169.083 137.454C168.31 142.922 227.907 180.076 233.088 181.565C243.307 184.513 354.627 235.808 358.806 229.024C361.468 224.702 423.526 253.097 427.391 252.239C429.824 251.695 472.76 274.337 475.995 276.455C485.298 282.495 613.679 364.332 611.217 374.465C608.813 384.484 726.23 459.165 735.705 463.258C737.651 464.088 765.503 478.458 767.335 478.143C773.776 477.055 891.193 530.469 897.176 522.683C905.906 511.319 1082.95 591.153 1094.89 599.225C1098.89 601.944 1153.71 633.574 1154.31 636.98C1155.4 643.135 1241.1 698.695 1237.03 704.248C1233.77 708.713 1288.3 743.836 1289.02 746.727C1289.3 747.958 1309.05 759.178 1310.63 759.951C1313.15 761.182 1342.2 776.239 1343.57 775.552C1345.72 774.435 1384.14 791.81 1384.68 788.662C1385.17 785.885 1416.51 800.083 1418.06 799.31C1418.89 798.881 1435.46 807.468 1436.86 808.184C1441.64 810.617 1493.22 845.138 1493.11 846.426C1493.11 846.569 1492.45 847.8 1492.45 847.8L1491.85 847.514C1491.85 847.428 1440.7 811.704 1435.49 809.042C1434.14 808.355 1418.23 800.111 1417.43 800.512C1415.91 801.256 1385.14 787.345 1384.68 790.093C1384.14 793.27 1345.12 775.58 1342.89 776.725C1342.37 776.983 1333.58 772.661 1332.9 772.661C1331.75 772.661 1311.06 761.726 1309.45 760.953C1307.85 760.152 1287.61 748.645 1287.3 747.385C1286.58 744.437 1231.65 709.085 1234.94 704.591C1239.01 699.038 1153.85 643.85 1152.79 637.725C1152.19 634.347 1097.92 603.032 1093.94 600.341C1082.12 592.355 905.82 512.865 897.118 524.171C893.226 529.209 811.674 491.539 807.781 494.688C805.463 496.549 768.967 479.03 766.791 479.431C764.845 479.775 736.65 465.205 734.76 464.403C725.171 460.253 606.838 385.028 609.242 374.952C611.675 364.847 484.01 283.468 474.793 277.485C471.587 275.396 429.137 252.983 426.732 253.527C422.925 254.385 361.182 226.162 358.549 230.427C356.488 233.747 302.387 208.872 299.468 211.134C296.147 213.71 236.494 183.912 231.885 182.567C226.59 181.049 166.393 143.294 167.137 137.941C168.139 130.785 51.9519 57.8783 39.9868 52.0103L40.6738 50.7222Z" fill="#9857F8"/>
</g>
<g opacity="0.1818">
<path opacity="0.1818" d="M43.9658 50.5508C68.039 62.4013 172.289 138.485 170.286 152.883C168.769 163.875 221.724 202.06 232.086 205.037C252.524 210.905 357.49 249.376 365.848 235.837C371.172 227.221 429.767 248.289 437.524 246.543C442.361 245.455 484.039 266.666 490.508 270.873C509.085 282.953 621.866 368.14 616.971 388.406C612.162 408.443 715.325 486.044 734.303 494.259C738.224 495.948 765.332 509.087 768.995 508.457C781.848 506.253 893.827 546.155 905.821 530.583C923.282 507.884 1092.57 566.822 1116.41 582.938C1124.43 588.348 1176.24 620.092 1177.44 626.934C1179.59 639.271 1251.66 696.205 1243.53 707.34C1237.01 716.271 1282.98 752.137 1284.41 757.919C1285.01 760.352 1303.76 771.516 1306.91 773.062C1311.92 775.523 1340.17 789.378 1342.95 787.946C1347.27 785.742 1382.45 797.793 1383.51 791.496C1384.45 785.914 1413.16 795.818 1416.28 794.244C1417.97 793.414 1434.06 801.285 1436.83 802.717C1446.37 807.611 1492.48 845.51 1492.25 848.115C1492.22 848.43 1491.65 849.603 1491.65 849.632L1490.96 849.375C1490.99 849.231 1445.99 809.014 1435.55 803.661C1432.85 802.287 1417.37 794.702 1415.79 795.503C1412.79 797.02 1384.59 787.345 1383.65 792.841C1382.56 799.196 1346.81 786.916 1342.37 789.177C1341.31 789.721 1332.75 785.971 1331.41 785.971C1329.12 785.971 1309 775.695 1305.79 774.121C1302.58 772.546 1283.32 761.068 1282.72 758.549C1281.26 752.652 1234.97 716.557 1241.53 707.569C1249.63 696.462 1178.04 639.872 1175.92 627.649C1174.75 620.894 1123.45 589.464 1115.47 584.083C1091.82 568.11 923.253 509.43 905.849 532.043C898.092 542.119 820.663 513.437 812.848 519.763C808.211 523.513 772.917 508.972 768.538 509.745C764.645 510.432 737.165 497.064 733.387 495.433C714.208 487.16 610.216 408.958 615.053 388.835C619.919 368.626 507.797 283.898 489.363 271.933C482.951 267.753 441.732 246.772 436.951 247.831C429.309 249.548 371.001 228.595 365.705 237.154C361.583 243.823 310.574 225.217 304.735 229.74C298.123 234.893 240.187 208.73 230.97 206.096C220.379 203.062 166.908 163.99 168.396 153.341C170.4 139.029 67.1803 63.6322 43.2788 51.8675L43.9658 50.5508Z" fill="#6022B2"/>
</g>
<g opacity="0.2727">
<path opacity="0.2727" d="M47.2588 50.3789C83.3542 68.1547 174.523 146.729 171.518 168.312C169.228 184.771 215.571 224.015 231.142 228.509C261.799 237.325 360.382 262.944 372.92 242.621C380.906 229.683 436.065 243.451 447.687 240.846C454.957 239.215 495.375 258.994 505.079 265.32C532.959 283.44 630.111 371.975 622.783 402.403C615.541 432.43 704.477 513.008 732.958 525.288C738.826 527.807 765.218 539.743 770.686 538.799C789.978 535.507 896.519 561.87 914.466 538.512C940.658 504.449 1102.19 542.491 1137.97 566.679C1150.02 574.808 1198.79 606.667 1200.57 616.915C1203.8 635.406 1262.23 693.743 1250.03 710.431C1240.24 723.827 1277.65 760.438 1279.8 769.111C1280.69 772.775 1298.49 783.881 1303.22 786.2C1310.74 789.893 1338.17 802.516 1342.32 800.398C1348.79 797.077 1380.73 803.833 1382.36 794.387C1383.79 786.028 1409.84 791.61 1414.54 789.263C1417.06 788.003 1432.68 795.188 1436.83 797.306C1451.15 804.634 1491.77 845.911 1491.42 849.861C1491.39 850.319 1490.85 851.492 1490.85 851.521L1490.08 851.263C1490.1 851.035 1451.32 806.323 1435.6 798.308C1431.57 796.247 1416.54 789.32 1414.14 790.522C1409.61 792.784 1384.02 787.374 1382.62 795.617C1380.99 805.149 1348.53 798.251 1341.89 801.629C1340.31 802.43 1331.98 799.253 1329.98 799.253C1326.54 799.253 1306.99 789.635 1302.16 787.259C1297.32 784.883 1279.08 773.462 1278.17 769.712C1275.99 760.867 1238.3 724.028 1248.14 710.545C1260.31 693.915 1202.29 635.921 1199.08 617.573C1197.3 607.44 1148.99 575.896 1137.05 567.824C1101.56 543.865 940.744 505.995 914.638 539.886C902.988 555 829.709 535.335 817.944 544.81C810.96 550.42 776.868 538.884 770.285 540.058C764.445 541.089 737.71 528.923 732.042 526.461C703.275 514.038 613.623 432.917 620.894 402.718C628.193 372.433 531.585 284.355 503.934 266.379C494.316 260.139 454.356 240.531 447.2 242.163C435.75 244.739 380.849 231.057 372.92 243.909C366.737 253.899 318.791 241.591 310.06 248.375C300.128 256.103 243.938 233.604 230.083 229.625C214.197 225.046 167.453 184.714 169.657 168.713C172.634 147.244 82.4096 69.3569 46.5718 51.6956L47.2588 50.3789Z" fill="#9857F8"/>
</g>
<g opacity="0.3636">
<path opacity="0.3636" d="M50.5491 50.207C98.6955 73.9081 176.726 154.973 172.718 183.769C169.656 205.724 209.386 246.027 230.139 251.981C271.015 263.717 363.214 276.541 379.96 249.433C390.608 232.201 442.333 238.642 457.818 235.15C467.522 232.974 506.652 251.323 519.619 259.738C556.802 283.869 638.324 375.782 628.563 416.343C618.917 456.388 693.598 539.886 731.583 556.288C739.398 559.666 765.102 570.371 772.373 569.112C798.078 564.704 899.179 577.527 923.138 546.412C958.089 501.014 1111.8 518.16 1159.52 550.391C1175.58 561.24 1221.35 593.185 1223.72 606.839C1228.05 631.513 1272.81 691.224 1256.56 713.494C1243.5 731.384 1272.36 768.71 1275.19 780.246C1276.39 785.112 1293.2 796.161 1299.49 799.253C1309.54 804.205 1336.13 815.597 1341.66 812.763C1350.3 808.355 1379.01 809.786 1381.16 797.192C1383.05 786.057 1406.49 787.316 1412.73 784.167C1416.08 782.479 1431.25 788.976 1436.78 791.81C1455.84 801.571 1490.99 846.254 1490.53 851.492C1490.48 852.093 1489.99 853.238 1489.99 853.267L1489.13 853.009C1489.16 852.723 1456.56 803.518 1435.6 792.812C1430.22 790.064 1415.62 783.824 1412.45 785.427C1406.41 788.432 1383.42 787.259 1381.53 798.279C1379.36 810.989 1350.19 809.472 1341.31 813.994C1339.22 815.082 1331.09 812.477 1328.43 812.477C1323.85 812.477 1304.87 803.518 1298.43 800.369C1291.99 797.192 1274.76 785.856 1273.5 780.818C1270.61 769.025 1241.53 731.47 1254.67 713.465C1270.87 691.281 1226.44 631.885 1222.18 607.44C1219.83 593.929 1174.49 562.27 1158.55 551.508C1111.23 519.563 958.146 502.474 923.339 547.701C907.824 567.852 838.639 557.204 822.981 569.827C813.678 577.327 780.76 568.768 772.001 570.314C764.215 571.688 738.195 560.696 730.638 557.433C692.253 540.859 616.971 456.818 626.674 416.543C636.407 376.154 555.342 284.727 518.474 260.769C505.65 252.439 466.95 234.262 457.389 236.409C442.104 239.844 390.665 233.432 380.074 250.578C371.859 263.889 326.976 257.849 315.297 266.923C302.044 277.228 247.571 258.364 229.137 253.069C207.955 246.972 167.91 205.352 170.886 184.026C174.865 155.402 97.6364 74.9958 49.8335 51.4665L50.5491 50.207Z" fill="#9857F8"/>
</g>
<g opacity="0.4545">
<path opacity="0.4545" d="M53.8417 50.0352C114.01 79.6329 178.959 163.216 173.95 199.169C170.143 226.62 203.233 267.982 229.167 275.424C280.261 290.109 366.078 290.08 387.002 256.189C400.313 234.634 448.573 233.776 467.952 229.425C480.089 226.706 517.959 243.623 534.161 254.156C580.618 284.327 646.54 379.589 634.346 430.283C622.295 480.347 682.722 566.765 730.21 587.26C739.971 591.467 764.96 600.971 774.063 599.396C806.208 593.901 901.871 593.185 931.812 554.284C975.493 497.522 1121.45 493.801 1181.1 534.075C1201.17 547.615 1243.91 579.703 1246.91 596.763C1252.29 627.592 1283.44 688.705 1263.08 716.528C1246.77 738.884 1267.06 776.925 1270.61 791.381C1272.1 797.478 1287.96 808.47 1295.83 812.334C1308.37 818.517 1334.13 828.679 1341.09 825.129C1351.88 819.605 1377.38 815.712 1380.04 799.997C1382.42 786.057 1403.2 783.023 1411.04 779.101C1415.22 777.011 1429.94 782.765 1436.86 786.314C1460.71 798.508 1490.36 846.598 1489.76 853.153C1489.7 853.897 1489.27 855.013 1489.25 855.07L1488.33 854.813C1488.39 854.441 1461.94 800.77 1435.77 787.373C1429.05 783.938 1414.91 778.357 1410.93 780.36C1403.4 784.139 1382.99 787.202 1380.62 800.97C1377.9 816.857 1352.02 820.721 1340.91 826.389C1338.28 827.734 1330.41 825.73 1327.06 825.73C1321.33 825.73 1302.93 817.429 1294.89 813.479C1286.84 809.529 1270.58 798.222 1269.04 791.925C1265.4 777.183 1244.94 738.884 1261.37 716.385C1281.63 688.648 1250.75 627.849 1245.42 597.307C1242.47 580.418 1200.11 548.645 1180.22 535.192C1121.08 495.261 975.722 498.982 932.242 555.515C912.834 580.733 847.799 579.044 828.22 594.845C816.599 604.205 784.854 598.652 773.919 600.599C764.187 602.316 738.883 592.527 729.437 588.462C681.462 567.766 620.549 480.777 632.658 430.426C644.823 379.932 579.273 285.157 533.187 255.216C517.158 244.796 479.688 228.051 467.752 230.713C448.659 235.007 400.627 235.865 387.403 257.276C377.127 273.936 335.306 274.165 320.737 285.5C304.163 298.381 251.437 283.182 228.394 276.541C201.916 268.927 168.597 226.019 172.318 199.34C177.299 163.56 113.037 80.6634 53.2979 51.2374L53.8417 50.0352Z" fill="#9857F8"/>
</g>
<g opacity="0.5455">
<path opacity="0.5455" d="M57.1631 49.835C129.354 85.3866 181.193 171.432 175.182 214.598C170.602 247.544 197.08 289.937 228.194 298.897C289.508 316.529 368.97 303.648 394.045 263.002C409.988 237.154 454.843 228.967 478.086 223.757C492.627 220.494 529.238 235.98 548.674 248.603C604.435 284.813 654.728 383.425 640.101 444.28C625.645 504.363 671.845 593.7 728.779 618.317C740.516 623.384 764.76 631.628 775.666 629.767C814.224 623.155 904.448 608.928 940.4 562.242C992.812 494.144 1131.01 469.499 1202.57 517.845C1226.65 534.104 1266.38 566.307 1269.95 586.773C1276.42 623.785 1293.91 686.272 1269.5 719.677C1249.89 746.498 1261.65 785.284 1265.92 802.63C1267.72 809.93 1282.58 820.864 1292.02 825.53C1307.08 832.944 1332.01 841.875 1340.34 837.638C1353.31 831.026 1375.55 821.809 1378.78 802.917C1381.65 786.2 1399.77 778.843 1409.18 774.12C1414.22 771.601 1428.45 776.668 1436.75 780.933C1465.34 795.589 1489.53 847.056 1488.82 854.899C1488.73 855.815 1488.36 856.874 1488.36 856.931L1487.36 856.702C1487.41 856.273 1467.15 798.079 1435.75 782.021C1427.68 777.899 1413.99 773.004 1409.21 775.38C1400.17 779.903 1382.33 787.23 1379.53 803.747C1376.27 822.811 1353.68 832.056 1340.37 838.84C1337.22 840.443 1329.55 839.012 1325.54 839.012C1318.67 839.012 1300.84 831.369 1291.16 826.618C1281.52 821.866 1266.26 810.617 1264.4 803.088C1260.05 785.399 1248.2 746.355 1267.89 719.39C1292.22 686.1 1274.91 623.928 1268.49 587.26C1264.94 566.994 1225.59 535.106 1201.68 518.99C1130.72 471.073 993.098 495.604 940.916 563.416C917.644 593.672 856.702 601 833.23 619.949C819.29 631.198 788.719 628.622 775.581 630.969C763.902 633.03 739.342 624.443 727.978 619.548C670.414 594.702 623.842 504.764 638.383 444.366C652.953 383.768 602.975 285.643 547.672 249.748C528.408 237.239 492.227 221.897 477.886 225.131C454.958 230.284 410.361 238.413 394.503 264.118C382.165 284.098 343.408 290.624 325.918 304.221C306.053 319.678 255.044 308.114 227.364 300.156C195.562 291.025 168.999 246.8 173.464 214.827C179.447 171.918 128.152 86.4743 56.4761 51.1803L57.1631 49.835Z" fill="#9857F8"/>
</g>
<g opacity="0.6364">
<path opacity="0.6364" d="M60.4533 49.6641C144.667 91.1409 183.395 179.676 176.382 230.056C171.03 268.47 190.895 311.95 227.22 322.398C298.752 342.951 371.831 317.246 401.113 269.815C419.719 239.645 461.139 224.159 488.246 218.062C505.221 214.255 540.572 228.31 563.242 243.051C628.306 285.301 662.999 387.261 645.91 458.25C629.05 528.351 660.995 620.637 727.433 649.318C741.115 655.215 764.644 662.257 777.382 660.081C822.38 652.381 907.166 624.616 949.072 570.143C1010.21 490.682 1140.66 445.169 1224.15 501.53C1252.26 520.508 1288.96 552.797 1293.14 576.698C1300.67 619.864 1304.53 683.725 1276.05 722.712C1253.18 753.998 1256.38 793.529 1261.37 813.766C1263.45 822.296 1277.37 833.174 1288.36 838.584C1305.93 847.228 1330.04 854.957 1339.74 850.005C1354.85 842.276 1373.89 827.764 1377.64 805.723C1380.96 786.229 1396.47 774.551 1407.44 769.055C1413.3 766.135 1427.04 770.486 1436.75 775.438C1470.12 792.527 1488.82 847.371 1487.99 856.56C1487.9 857.619 1487.56 858.678 1487.56 858.735L1486.47 858.506C1486.55 857.991 1472.44 795.332 1435.8 776.583C1426.39 771.774 1413.13 767.538 1407.55 770.343C1397.02 775.638 1381.76 787.203 1378.47 806.467C1374.66 828.708 1355.37 843.335 1339.82 851.264C1336.16 853.154 1328.72 852.295 1324.02 852.295C1316.01 852.295 1298.75 845.31 1287.47 839.786C1276.19 834.233 1261.97 823.069 1259.79 814.253C1254.72 793.615 1251.46 753.826 1274.48 722.368C1302.84 683.525 1299.12 619.95 1291.65 577.156C1287.53 553.512 1251.15 521.51 1223.27 502.704C1140.46 446.8 1010.59 492.141 949.702 571.26C922.537 606.554 865.746 622.898 838.352 644.996C822.094 658.106 792.725 658.536 777.382 661.255C763.757 663.659 739.913 656.274 726.66 650.549C659.507 621.553 627.275 528.695 644.25 458.221C661.253 387.519 626.789 286.045 562.269 244.167C539.799 229.569 504.877 215.657 488.16 219.407C461.425 225.418 420.235 240.818 401.743 270.817C387.345 294.146 351.679 306.912 331.27 322.799C308.084 340.832 258.792 332.932 226.533 323.658C189.435 313.009 169.598 267.496 174.78 230.17C181.735 180.106 143.464 92.1714 59.7949 50.9808L60.4533 49.6641Z" fill="#9857F8"/>
</g>
<g opacity="0.7273">
<path opacity="0.7273" d="M63.7455 49.4912C160.01 96.8934 185.629 187.919 177.614 245.483C171.488 289.393 184.713 333.933 226.247 345.841C307.998 369.341 374.693 330.784 408.155 276.569C429.423 242.105 467.379 219.292 498.38 212.336C517.787 207.985 551.85 220.608 577.784 237.44C652.122 285.729 671.214 391.039 651.693 472.16C632.4 552.252 650.118 647.485 726.059 680.26C741.688 687.016 764.502 692.827 779.072 690.336C830.481 681.549 909.828 640.243 957.746 577.985C1027.62 487.188 1150.27 420.751 1245.71 485.185C1277.82 506.853 1311.52 539.285 1316.3 566.593C1324.91 615.913 1315.12 681.176 1282.58 725.745C1256.44 761.497 1251.09 801.771 1256.79 824.871C1259.19 834.604 1272.1 845.424 1284.69 851.635C1304.76 861.511 1328.06 868.008 1339.17 862.341C1356.46 853.524 1372.26 833.659 1376.55 808.498C1380.36 786.228 1393.21 770.227 1405.75 763.958C1412.45 760.609 1425.73 764.273 1436.81 769.941C1474.93 789.463 1488.16 847.714 1487.21 858.19C1487.1 859.393 1486.81 860.423 1486.81 860.48L1485.64 860.251C1485.72 859.65 1477.8 792.497 1435.95 771.086C1425.18 765.59 1412.39 762.012 1406.01 765.218C1393.95 771.258 1381.3 787.087 1377.55 809.099C1373.2 834.518 1357.2 854.526 1339.45 863.6C1335.25 865.747 1328.03 865.49 1322.68 865.49C1313.52 865.49 1296.83 859.164 1283.95 852.837C1271.07 846.511 1257.82 835.377 1255.35 825.329C1249.54 801.743 1254.92 761.239 1281.2 725.258C1313.63 680.862 1323.45 615.913 1314.92 566.993C1310.2 539.972 1276.79 507.855 1244.94 486.358C1150.3 422.468 1028.16 488.62 958.576 579.044C927.547 619.376 874.878 644.737 843.562 669.984C824.985 684.984 796.79 688.39 779.272 691.51C763.7 694.258 740.572 688.075 725.458 681.52C648.716 648.373 630.825 552.595 650.204 472.046C669.64 391.268 650.691 286.445 576.983 238.556C551.306 221.897 517.615 209.359 498.523 213.653C467.952 220.523 430.225 243.193 409.043 277.485C392.584 304.135 359.98 323.199 336.68 341.318C310.174 361.927 262.628 357.662 225.732 347.071C183.339 334.877 170.229 288.105 176.154 245.454C184.112 188.234 158.807 97.8093 63.2017 50.7507L63.7455 49.4912Z" fill="#9857F8"/>
</g>
<g opacity="0.8182">
<path opacity="0.8182" d="M67.0377 49.3198C175.353 102.647 187.833 196.163 178.816 260.912C171.946 310.318 178.53 355.888 225.245 369.313C317.216 395.762 377.528 344.352 415.169 283.382C439.099 244.596 473.62 214.483 508.485 206.64C530.296 201.745 563.129 212.937 592.268 231.887C675.909 286.216 679.373 394.875 657.389 486.158C635.692 576.268 639.155 674.422 724.599 711.318C742.175 718.904 764.273 723.513 780.646 720.707C838.496 710.803 912.405 655.987 966.305 585.943C1044.91 483.782 1159.81 396.478 1267.18 468.955C1303.3 493.343 1333.99 525.86 1339.34 556.603C1349.04 612.106 1325.6 678.744 1288.99 728.865C1259.59 769.083 1245.68 810.102 1252.06 836.093C1254.75 847.056 1266.72 857.819 1280.86 864.774C1303.44 875.881 1325.91 881.176 1338.39 874.793C1357.83 864.86 1370.4 839.699 1375.23 811.39C1379.5 786.315 1389.72 766.02 1403.83 758.95C1411.39 755.171 1424.18 758.148 1436.63 764.503C1479.54 786.458 1487.27 848.115 1486.21 859.908C1486.1 861.254 1485.87 862.255 1485.84 862.341L1484.58 862.112C1484.67 861.454 1482.92 789.807 1435.83 765.705C1423.72 759.493 1411.39 756.631 1404.2 760.209C1390.63 766.993 1380.59 787.088 1376.35 811.848C1371.46 840.444 1358.72 865.833 1338.77 876.024C1334.04 878.428 1327.06 878.743 1321.02 878.743C1310.71 878.743 1294.57 873.076 1280.09 865.948C1265.6 858.82 1253.35 847.743 1250.57 836.436C1244.05 809.901 1258.02 768.653 1287.59 728.178C1324.05 678.257 1347.47 611.877 1337.85 556.861C1332.53 526.461 1302.13 494.259 1266.29 470.043C1159.83 398.167 1045.42 485.128 967.135 586.831C932.213 632.2 883.666 666.55 848.458 694.974C827.533 711.834 800.54 718.246 780.847 721.738C763.328 724.829 740.915 719.82 723.912 712.492C637.581 675.223 634.032 576.497 655.843 485.872C677.713 394.989 674.306 286.817 591.352 232.946C562.47 214.197 530.039 203.091 508.542 207.928C474.164 215.657 439.843 245.598 416.027 284.155C397.507 314.125 367.996 339.458 341.747 359.867C311.92 383.053 266.092 382.423 224.615 370.515C176.927 356.804 170.544 308.744 177.213 260.74C186.173 196.364 173.836 103.42 66.2935 50.4934L67.0377 49.3198Z" fill="#9857F8"/>
</g>
<g opacity="0.9091">
<path opacity="0.9091" d="M70.328 49.1484C190.665 108.401 190.064 204.408 180.046 276.37C172.403 331.271 172.374 377.901 224.27 392.814C326.46 422.183 380.417 357.949 422.237 290.195C448.83 247.115 479.916 209.675 518.645 200.973C542.89 195.534 574.434 205.295 606.837 226.334C699.781 286.703 687.615 398.711 663.198 500.127C639.097 600.256 628.305 701.358 723.224 742.319C742.775 750.763 764.128 754.141 782.334 751.021C846.596 740.029 915.065 671.645 974.976 593.844C1062.31 480.348 1169.45 372.119 1288.73 452.668C1328.86 479.775 1356.54 512.407 1362.49 546.556C1373.26 608.213 1336.19 676.254 1295.48 731.957C1262.82 776.669 1240.35 818.375 1247.45 847.285C1250.46 859.451 1261.42 870.156 1277.17 877.913C1302.27 890.279 1323.91 894.315 1337.76 887.245C1359.37 876.225 1368.71 845.739 1374.06 814.281C1378.81 786.43 1386.4 761.812 1402.05 753.969C1410.44 749.79 1422.78 752.023 1436.63 759.122C1484.29 783.538 1486.55 848.573 1485.38 861.655C1485.24 863.172 1485.06 864.116 1485.06 864.202L1483.72 864.002C1483.83 863.258 1488.24 787.145 1435.92 760.353C1422.46 753.454 1410.56 751.25 1402.6 755.258C1387.54 762.814 1380.07 787.145 1375.38 814.653C1369.97 846.426 1360.49 877.198 1338.31 888.533C1333.07 891.224 1326.28 892.111 1319.62 892.111C1308.17 892.111 1292.59 887.131 1276.51 879.202C1260.42 871.273 1249.17 860.252 1246.08 847.686C1238.84 818.203 1261.42 776.211 1294.28 731.27C1334.81 675.796 1371.8 608.013 1361.12 546.9C1355.22 513.123 1327.77 480.806 1287.96 453.899C1169.68 374.036 1063 481.779 976.036 594.817C937.249 645.225 892.824 688.591 853.666 720.164C830.423 738.913 804.603 748.302 782.706 752.195C763.241 755.63 741.572 751.823 722.652 743.665C626.702 702.245 637.551 600.599 661.767 499.927C686.069 398.94 698.178 287.419 606.035 227.565C573.947 206.726 542.775 197.051 518.874 202.404C480.689 210.991 449.774 248.203 423.325 291.054C402.773 324.373 376.295 355.974 347.155 378.645C314.037 404.407 269.927 407.441 223.813 394.188C170.829 378.96 171.143 329.583 178.586 276.284C188.547 204.751 189.205 109.317 69.6982 50.4938L70.328 49.1484Z" fill="#9857F8"/>
</g>
<path d="M1318.13 905.364C1305.53 905.364 1290.53 901.042 1272.84 892.311C1255.16 883.609 1244.88 872.646 1241.47 858.82C1233.49 826.389 1264.72 783.681 1300.84 734.218C1345.44 673.191 1395.96 604.034 1384.22 536.795C1377.73 499.64 1353.28 467.209 1309.48 437.611C1179.36 349.763 1080.43 478.315 984.768 602.66C942.089 658.106 901.786 710.488 858.734 745.21C810.474 784.139 765.505 793.786 721.28 774.693C615.741 729.123 640.931 624.529 667.58 513.81C694.315 402.718 721.967 287.848 620.579 222.012C585.285 199.083 555.372 190.811 529.095 196.708C487.074 206.154 459.595 250.665 430.512 297.781C407.899 334.42 384.513 372.319 352.424 397.251C315.985 425.589 273.621 432.258 222.899 417.689C164.619 400.943 171.661 350.278 179.847 291.626C190.811 212.938 204.436 115.013 72.9922 50.2933L73.6219 48.9766C205.982 114.155 192.27 212.651 181.25 291.798C172.834 352.167 166.194 399.884 223.299 416.286C335.708 448.603 383.282 371.517 429.281 297.008C458.535 249.606 486.158 204.866 528.78 195.305C555.458 189.322 585.743 197.652 621.38 220.781C723.598 287.161 695.832 402.546 668.983 514.096C642.476 624.243 617.43 728.264 721.852 773.348C819.233 815.369 899.095 711.633 983.623 601.773C1079.72 476.913 1179.07 347.816 1310.29 436.409C1354.42 466.207 1379.1 498.953 1385.65 536.537C1397.5 604.377 1346.78 673.792 1302.01 735.048C1266.09 784.225 1235.06 826.675 1242.88 858.477C1246.17 871.873 1256.19 882.522 1273.47 891.023C1301.07 904.62 1321.91 907.453 1337.16 899.668C1360.92 887.531 1367.05 851.75 1372.94 817.115C1378.18 786.486 1383.11 757.547 1400.34 748.902C1409.56 744.294 1421.43 745.84 1436.66 753.625C1495.11 783.567 1484.38 865.175 1484.27 866.005L1482.83 865.805C1482.95 865.003 1493.54 784.368 1435.98 754.914C1421.18 747.328 1409.73 745.782 1400.94 750.191C1384.37 758.492 1379.47 787.088 1374.32 817.344C1368.36 852.294 1362.18 888.447 1337.79 900.927C1332.01 903.875 1325.49 905.364 1318.13 905.364Z" fill="#9857F8"/>
</g>
<mask id="mask1" mask-type="alpha" maskUnits="userSpaceOnUse" x="0" y="152" width="1491" height="974">
<path d="M0 152.684H1490.36V1125.92H0V152.684Z" fill="url(#paint1_linear)"/>
</mask>
<g mask="url(#mask1)">
<g opacity="0.7">
<g opacity="0.0909">
<path opacity="0.0909" d="M-17.0317 347.414C-16.9458 347.385 65.3496 383.796 70.6451 386.515C75.0247 388.748 139.659 429.252 139.773 434.175C139.888 439.957 230.542 496.777 237.898 500.412C239.701 501.299 260.483 512.291 261.284 511.747C262.83 510.631 306.139 531.241 305.624 527.29C305.051 522.997 355.058 546.641 357.176 545.352C358.837 544.322 412.593 573.519 417.374 576.725C429.167 584.682 591.296 689.992 586.859 700.984C584.855 705.936 651.436 748.615 651.15 752.565C651.093 753.596 664.689 762.068 664.861 762.927C665.376 765.761 708.57 790.779 711.691 792.124C720.593 795.96 792.326 831.884 794.244 829.794C795.16 828.792 813.537 837.723 814.853 837.666C814.882 837.666 815.397 837.923 815.426 837.923C817.544 837.923 883.18 874.763 888.447 879.744C890.823 881.977 930.038 903.502 932.271 903.244C936.937 902.701 1030.48 946.496 1034.66 940.199C1040.59 931.296 1192.84 1002.03 1203.17 1005C1208.47 1006.52 1267.86 1043.96 1267.03 1048.69C1265.95 1055.07 1383.02 1128.81 1394.99 1134.7L1394.3 1135.96C1382.25 1130.04 1264.03 1055.61 1265.15 1049.17C1265.98 1044.33 1207.35 1007.58 1202.17 1006.09C1191.95 1003.14 1040.7 932.928 1034.78 941.773C1030.57 948.099 936.364 903.989 931.641 904.504C929.38 904.762 889.535 882.921 887.13 880.631C881.949 875.736 816.857 839.183 814.796 839.183C814.767 839.183 814.309 838.954 814.281 838.954C813.021 839.011 795.045 830.309 794.158 831.282C792.211 833.401 719.591 797.048 710.574 793.183C707.483 791.838 664.718 767.135 664.117 764.358C663.916 763.414 648.974 754.139 649.06 752.995C649.346 749.044 582.565 706.222 584.569 701.27C589.006 690.336 427.736 585.57 416.028 577.669C411.305 574.492 358.378 545.725 356.747 546.726C354.715 547.986 305.366 524.657 305.91 528.922C306.425 532.901 262.486 512.005 260.884 513.15C260.053 513.751 238.585 502.387 236.724 501.471C229.311 497.836 137.77 440.444 137.655 434.633C137.569 429.738 73.3931 389.549 69.0994 387.345C63.8611 384.655 -17.5183 348.674 -17.6328 348.702L-17.0317 347.414Z" fill="#9857F8"/>
</g>
<g opacity="0.1818">
<path opacity="0.1818" d="M-14.2255 338.626C-14.0252 338.54 70.2453 366.821 80.865 372.26C89.6241 376.725 147.904 418.317 148.104 428.164C148.333 439.728 230.084 498.093 244.74 505.307C248.347 507.081 268.441 517.157 270.044 516.041C273.136 513.808 311.607 528.263 310.548 520.363C309.432 511.776 353.8 528.178 358.007 525.573C361.328 523.512 413.167 550.963 422.699 557.403C446.257 573.318 586.631 681.805 577.7 703.76C573.693 713.636 631.514 757.202 630.971 765.074C630.827 767.106 643.136 775.779 643.451 777.497C644.481 783.164 685.3 807.867 691.569 810.587C709.373 818.287 776.555 847.713 780.362 843.533C782.165 841.53 799.597 848.6 802.231 848.514C802.317 848.514 802.803 848.743 802.861 848.743C807.126 848.743 869.699 884.237 880.233 894.199C884.984 898.693 922.74 919.102 927.177 918.615C936.508 917.556 1025.04 950.417 1033.46 937.794C1045.34 919.99 1189.75 972.544 1210.39 978.469C1220.98 981.503 1273.65 1019.69 1272.04 1029.13C1269.87 1041.9 1373.75 1117.01 1397.68 1128.81L1396.99 1130.06C1372.89 1118.19 1268.01 1042.42 1270.21 1029.56C1271.87 1019.86 1219.83 982.591 1209.47 979.614C1189.01 973.746 1045.51 921.592 1033.72 939.311C1025.27 951.963 936.108 918.845 926.662 919.904C922.139 920.419 883.782 899.666 878.973 895.143C868.611 885.354 806.439 850.06 802.317 850.06C802.231 850.06 801.802 849.859 801.716 849.859C799.197 849.945 782.194 843.047 780.419 844.993C776.555 849.258 708.514 819.432 690.538 811.674C684.355 809.012 643.88 784.596 642.735 779.071C642.334 777.211 628.852 767.707 628.995 765.446C629.539 757.546 571.546 713.865 575.582 703.961C584.456 682.091 444.854 574.148 421.468 558.348C412.022 551.964 360.984 524.914 357.778 526.918C353.714 529.437 309.918 513.264 311.035 521.794C312.094 529.78 273.078 515.096 269.844 517.415C268.184 518.617 247.402 508.226 243.71 506.394C228.911 499.095 146.358 440.214 146.129 428.593C145.928 418.832 88.0784 377.555 79.4911 373.176C68.9859 367.795 -14.4259 339.914 -14.5977 339.972L-14.2255 338.626Z" fill="#6022B2"/>
</g>
<g opacity="0.2727">
<path opacity="0.2727" d="M-11.3936 329.812C-11.1074 329.697 75.1955 349.82 91.0821 357.949C104.192 364.676 156.117 407.298 156.432 422.068C156.775 439.415 229.596 499.297 251.608 510.117C257.018 512.779 276.426 521.939 278.801 520.25C283.467 516.901 317.044 525.174 315.469 513.323C313.781 500.442 352.51 509.602 358.836 505.68C363.816 502.589 413.709 528.294 428.021 537.969C463.372 561.842 581.963 673.477 568.567 706.424C562.556 721.251 611.647 765.677 610.817 777.47C610.617 780.533 621.58 789.378 622.066 791.954C623.612 800.455 662.055 824.872 671.472 828.937C698.208 840.472 760.809 863.458 766.534 857.16C769.254 854.155 785.713 859.393 789.634 859.25C789.749 859.25 790.235 859.451 790.35 859.451C796.733 859.451 856.243 893.628 872.073 908.57C879.2 915.297 915.496 934.618 922.166 933.874C936.163 932.271 1019.72 954.198 1032.34 935.305C1050.15 908.599 1186.74 942.977 1217.71 951.879C1233.6 956.43 1279.57 995.359 1277.14 1009.5C1273.85 1028.68 1364.53 1105.16 1400.42 1122.82L1399.74 1124.08C1363.58 1106.28 1272.04 1029.14 1275.33 1009.84C1277.82 995.302 1232.37 957.489 1216.83 953.024C1186.14 944.208 1050.4 910.116 1032.68 936.737C1020.03 955.715 935.905 933.588 921.708 935.191C914.924 935.964 878.055 916.327 870.842 909.515C855.299 894.83 796.075 860.767 789.863 860.767C789.749 860.767 789.319 860.595 789.205 860.595C785.426 860.739 769.368 855.643 766.706 858.563C760.895 864.946 697.463 841.703 670.499 830.053C661.196 826.046 623.068 801.944 621.351 793.7C620.778 790.895 608.699 781.191 608.928 777.813C609.758 765.963 560.524 721.423 566.563 706.567C579.903 673.763 461.941 562.643 426.847 538.971C412.678 529.41 363.559 504.049 358.721 507.054C352.595 510.833 314.382 501.845 316.071 514.611C317.645 526.576 283.582 518.132 278.716 521.624C276.225 523.399 256.16 513.981 250.606 511.262C228.394 500.328 154.857 439.93 154.514 422.469C154.228 407.813 102.675 365.506 89.7653 358.894C74.0219 350.851 -11.4223 331.014 -11.7085 331.128L-11.3936 329.812Z" fill="#9857F8"/>
</g>
<g opacity="0.3636">
<path opacity="0.3636" d="M-8.58723 320.994C-8.21511 320.822 80.0914 332.787 101.302 343.636C118.792 352.595 164.362 396.305 164.734 415.999C165.192 439.127 229.111 500.527 258.422 514.954C265.664 518.503 284.356 526.718 287.533 524.457C293.745 520.02 322.455 522.11 320.394 506.309C318.133 489.134 351.223 491.023 359.667 485.814C366.308 481.721 414.254 505.651 433.346 518.532C480.462 550.362 577.299 665.146 559.437 709.085C551.394 728.864 591.754 774.148 590.666 789.863C590.38 793.956 600.055 802.973 600.656 806.437C602.717 817.801 638.784 841.902 651.35 847.312C686.988 862.684 745.038 879.229 752.681 870.813C756.316 866.806 771.774 870.212 777.041 870.012C777.184 870.012 777.67 870.184 777.813 870.184C786.343 870.184 842.762 903.044 863.887 922.967C873.391 931.926 908.198 950.189 917.1 949.187C935.763 947.069 1014.34 958.061 1031.14 932.842C1054.87 897.234 1183.65 913.435 1224.93 925.314C1246.08 931.411 1285.35 971.056 1282.15 989.92C1277.77 1015.48 1355.26 1093.34 1403.09 1116.9L1402.43 1118.16C1354.22 1094.43 1275.99 1015.91 1280.4 990.206C1283.72 970.827 1244.85 932.47 1224.13 926.516C1183.19 914.752 1055.24 898.751 1031.6 934.216C1014.71 959.549 935.62 948.386 916.728 950.532C907.683 951.563 872.303 933.043 862.685 923.94C841.961 904.361 785.656 871.529 777.384 871.529C777.241 871.529 776.812 871.357 776.668 871.386C771.63 871.586 756.517 868.266 752.967 872.187C745.21 880.689 686.415 864.001 650.434 848.457C638.04 843.105 602.231 819.346 599.912 808.326C599.139 804.576 588.491 794.672 588.806 790.178C589.922 774.377 549.447 728.979 557.491 709.142C575.266 665.404 478.974 551.135 432.201 519.562C413.309 506.796 366.107 483.152 359.638 487.159C351.48 492.197 318.848 490.394 321.081 507.397C323.171 523.341 294.031 521.165 287.59 525.774C284.27 528.149 264.92 519.705 257.506 516.041C227.908 501.471 163.36 439.557 162.902 416.285C162.501 396.734 117.303 353.368 100.071 344.581C79.0896 333.846 -8.41548 322.11 -8.7876 322.253L-8.58723 320.994Z" fill="#9857F8"/>
</g>
<g opacity="0.4545">
<path opacity="0.4545" d="M-5.75306 312.207C-5.29507 312.007 85.0438 315.814 111.55 329.382C133.419 340.574 172.606 385.343 173.093 409.96C173.665 438.871 228.653 501.787 265.321 519.849C274.366 524.286 292.371 531.585 296.321 528.751C304.078 523.198 327.923 519.134 325.346 499.383C322.541 477.914 349.992 472.562 360.526 466.035C368.827 460.911 414.827 483.124 438.699 499.211C497.609 538.999 572.662 656.961 550.335 711.891C540.288 736.594 571.889 782.765 570.515 802.43C570.172 807.525 578.501 816.743 579.274 821.065C581.851 835.263 615.542 859.049 631.228 865.833C675.767 885.069 729.267 895.116 738.799 884.64C743.35 879.659 757.834 881.176 764.418 880.947C764.618 880.947 765.076 881.09 765.276 881.09C775.925 881.09 829.309 912.606 855.672 937.509C867.552 948.73 900.899 965.876 912.005 964.617C935.334 961.955 1008.93 962.04 1029.94 930.496C1059.62 885.985 1180.56 884.01 1232.17 898.838C1258.62 906.452 1291.19 946.812 1287.16 970.399C1281.69 1002.34 1345.95 1081.58 1405.78 1111.03L1405.12 1112.29C1344.86 1082.64 1279.97 1002.74 1285.47 970.599C1289.62 946.383 1257.33 907.482 1231.43 900.04C1180.27 885.327 1060.05 887.416 1030.51 931.756C1009.41 963.414 935.363 963.243 911.719 965.933C900.413 967.221 866.521 949.789 854.499 938.454C828.594 913.98 775.209 882.407 764.876 882.407C764.704 882.407 764.274 882.264 764.074 882.264C757.777 882.493 743.608 880.976 739.171 885.871C729.496 896.519 675.281 886.357 630.312 866.95C614.826 860.252 581.335 836.808 578.444 823.04C577.471 818.345 568.254 808.241 568.655 802.602C570.029 782.851 538.341 736.565 548.388 711.805C570.601 657.104 495.977 539.686 437.526 500.213C413.911 484.269 368.598 462.314 360.526 467.295C350.336 473.592 323.257 478.945 326.033 500.213C328.638 520.164 304.451 524.2 296.378 529.982C292.228 532.959 273.593 525.46 264.319 520.908C227.308 502.674 171.805 439.243 171.204 410.16C170.717 385.743 131.816 341.318 110.291 330.298C84.0706 316.873 -5.46681 313.209 -5.9248 313.438L-5.75306 312.207Z" fill="#9857F8"/>
</g>
<g opacity="0.5455">
<path opacity="0.5455" d="M-2.94733 303.39C-2.37484 303.133 89.9391 298.782 121.741 315.069C147.99 328.494 180.822 374.35 181.394 403.891C182.081 438.584 228.138 503.017 272.134 524.686C282.983 530.01 300.301 536.393 305.052 532.987C314.355 526.318 333.333 516.099 330.242 492.398C326.864 466.636 348.676 454.041 361.328 446.226C371.289 440.072 415.371 460.539 443.995 479.86C514.698 527.606 567.94 648.716 541.176 714.638C529.125 744.293 551.996 791.323 550.335 814.91C549.906 821.035 556.948 830.424 557.864 835.605C560.955 852.637 592.27 876.138 611.105 884.267C664.547 907.338 713.495 910.945 724.945 898.35C730.383 892.368 743.923 892.053 751.795 891.766C752.024 891.766 752.482 891.881 752.711 891.881C765.477 891.881 815.799 922.08 847.458 951.964C861.713 965.417 893.6 981.476 906.939 979.987C934.934 976.81 1003.55 965.933 1028.77 928.12C1064.37 874.706 1177.5 854.555 1239.41 872.359C1271.16 881.49 1297.03 922.595 1292.17 950.905C1285.61 989.233 1336.68 1069.84 1408.44 1105.16L1407.78 1106.42C1335.48 1070.81 1283.92 989.605 1290.51 950.991C1295.49 921.908 1269.78 882.492 1238.7 873.561C1177.33 855.929 1064.86 876.08 1029.39 929.293C1004.06 967.278 935.049 978.098 906.682 981.333C893.114 982.878 860.711 966.562 846.284 952.937C815.169 923.568 764.762 893.226 752.339 893.226C752.109 893.226 751.709 893.112 751.48 893.112C743.923 893.398 730.698 893.684 725.374 899.552C713.753 912.319 664.175 908.712 610.218 885.412C591.641 877.397 560.44 854.268 557.005 837.723C555.831 832.113 548.045 821.808 548.532 815.024C550.192 791.323 527.264 744.179 539.315 714.466C565.964 648.83 513.038 528.264 442.85 480.891C414.512 461.769 371.117 441.532 361.442 447.486C349.22 455.043 327.694 467.58 331.043 493.085C334.192 517.015 314.928 527.291 305.224 534.247C300.243 537.825 282.324 531.298 271.189 525.831C226.764 503.962 180.278 439.013 179.562 404.12C178.961 374.808 146.387 329.324 120.567 316.128C89.0804 300.012 -2.48934 304.449 -3.0332 304.707L-2.94733 303.39Z" fill="#9857F8"/>
</g>
<g opacity="0.6364">
<path opacity="0.6364" d="M-0.114746 294.575C0.543617 294.289 94.8899 281.78 131.987 300.786C162.587 316.444 189.065 363.36 189.751 397.823C190.553 438.298 227.708 504.249 279.003 529.525C291.655 535.765 308.285 541.203 313.81 537.225C324.687 529.439 338.771 513.066 335.164 485.414C331.214 455.359 347.387 435.522 362.157 426.391C373.778 419.206 415.914 437.926 449.318 460.482C531.786 516.157 563.272 640.473 532.043 717.359C517.989 751.966 532.1 799.854 530.183 827.362C529.696 834.519 535.392 844.108 536.48 850.119C540.087 869.984 569.026 893.199 591.01 902.673C653.382 929.581 697.75 926.718 711.118 912.034C717.473 905.049 730.01 902.903 739.227 902.559C739.485 902.559 739.943 902.645 740.229 902.645C755.142 902.645 802.401 931.527 839.327 966.392C855.958 982.078 886.357 997.048 901.929 995.302C934.589 991.581 998.193 969.798 1027.62 925.659C1069.15 863.315 1174.46 825.015 1246.71 845.768C1283.75 856.416 1302.9 898.265 1297.26 931.269C1289.62 975.981 1327.46 1057.96 1411.22 1099.18L1410.56 1100.47C1326.2 1058.93 1287.96 976.353 1295.66 931.327C1301.47 897.407 1282.35 857.447 1246.08 847.027C1174.46 826.446 1069.75 864.689 1028.39 926.747C998.851 971.057 934.876 992.869 901.786 996.648C885.956 998.451 855.042 983.251 838.211 967.365C801.915 933.101 754.427 903.99 739.943 903.99C739.685 903.99 739.256 903.904 739.027 903.904C730.21 904.248 717.959 906.337 711.719 913.15C698.151 928.063 653.182 930.983 590.237 903.819C568.568 894.458 539.686 871.645 535.65 852.352C534.276 845.797 527.921 835.291 528.494 827.391C530.44 799.74 516.271 751.737 530.354 717.072C561.469 640.502 530.183 516.758 448.317 461.484C415.255 439.157 373.75 420.637 362.472 427.593C348.217 436.409 332.273 456.103 336.166 485.872C339.83 513.81 325.517 530.298 314.211 538.398C308.4 542.577 291.168 537.024 278.201 530.612C226.391 505.108 188.893 438.642 188.063 397.909C187.376 363.703 161.098 317.188 130.985 301.76C94.2316 283.068 0.62949 295.577 -0.000248246 295.863L-0.114746 294.575Z" fill="#9857F8"/>
</g>
<g opacity="0.7273">
<path opacity="0.7273" d="M2.69092 285.786C3.43515 285.443 99.7852 264.805 142.207 286.502C177.186 304.421 197.309 352.396 198.082 391.783C198.998 438.012 227.221 505.508 285.873 534.39C300.328 541.518 316.272 546.012 322.598 541.489C335.021 532.587 344.238 510.059 340.116 478.458C335.622 444.108 346.156 417.001 363.016 406.582C376.298 398.367 416.487 415.341 454.672 441.103C548.932 504.735 558.636 632.2 522.941 720.077C506.883 759.636 512.235 808.384 510.06 839.813C509.487 847.971 513.896 857.761 515.127 864.631C519.248 887.33 545.812 910.258 570.944 921.078C642.219 951.85 682.036 942.518 697.293 925.744C704.563 917.758 716.128 913.779 726.633 913.407C726.948 913.407 727.377 913.464 727.721 913.464C744.752 913.464 788.948 941.03 831.169 980.875C850.176 998.794 879.116 1012.71 896.891 1010.7C934.218 1006.47 992.841 973.748 1026.47 923.311C1073.96 852.065 1171.43 795.589 1253.98 819.318C1296.32 831.484 1308.77 874.077 1302.3 911.804C1293.54 962.927 1318.22 1046.25 1413.91 1093.37L1413.25 1094.66C1316.84 1047.2 1291.94 963.242 1300.73 911.776C1307.37 873.018 1294.83 832.514 1253.38 820.607C1171.54 797.077 1074.59 853.41 1027.3 924.342C993.556 974.978 934.59 1007.78 896.777 1012.1C878.686 1014.17 849.289 1000.08 830.025 981.906C788.548 942.747 744.008 914.896 727.434 914.896C727.148 914.896 726.719 914.838 726.432 914.838C716.357 915.21 705.05 919.103 697.923 926.918C682.437 943.949 642.048 953.424 570.114 922.367C545.325 911.661 518.79 889.191 514.182 867.121C512.608 859.622 507.713 848.916 508.343 839.899C510.547 808.298 505.165 759.436 521.252 719.791C556.804 632.286 547.186 505.394 453.641 442.219C415.857 416.715 376.269 399.884 363.359 407.841C347.044 417.917 336.681 444.796 341.147 478.801C345.326 510.718 335.937 533.446 323.028 542.72C316.358 547.5 299.87 542.892 285.043 535.592C225.819 506.424 197.337 438.469 196.421 391.926C195.649 352.854 175.669 305.251 141.262 287.647C99.2986 266.15 3.66415 286.731 2.91991 287.075L2.69092 285.786Z" fill="#9857F8"/>
</g>
<g opacity="0.8182">
<path opacity="0.8182" d="M5.49707 276.971C6.32718 276.599 104.71 247.774 152.398 272.191C191.757 292.342 205.496 341.376 206.384 385.715C207.414 437.726 226.707 506.768 292.687 539.228C308.945 547.243 324.202 550.821 331.33 545.726C345.298 535.708 349.649 506.997 345.012 471.446C339.946 432.803 344.84 398.453 363.818 386.717C378.76 377.471 417.031 392.7 459.939 421.696C565.965 493.286 553.914 623.928 513.754 722.769C495.691 767.251 492.314 816.886 489.823 852.266C489.194 861.454 492.257 871.416 493.659 879.173C498.296 904.706 522.484 927.319 550.736 939.513C630.914 974.12 666.179 958.348 683.354 939.456C691.54 930.468 702.131 924.629 713.953 924.228C714.297 924.228 714.755 924.256 715.098 924.256C734.248 924.256 775.381 950.477 822.869 995.302C844.252 1015.48 871.731 1028.28 891.711 1026.02C933.703 1021.24 987.346 977.584 1025.16 920.85C1078.57 840.702 1168.22 766.049 1261.11 792.756C1308.74 806.438 1314.47 849.776 1307.22 892.197C1297.38 949.704 1308.83 1034.4 1416.48 1087.42L1415.85 1088.7C1307.4 1035.32 1295.8 949.99 1305.71 892.111C1313.18 848.516 1307.2 807.469 1260.6 794.072C1168.54 767.595 1079.34 842.018 1026.13 921.795C988.147 978.758 934.247 1022.58 891.711 1027.39C871.359 1029.71 843.45 1016.71 821.81 996.304C775.152 952.251 733.532 925.63 714.926 925.63C714.612 925.63 714.182 925.602 713.867 925.602C702.532 926.031 692.17 931.699 684.184 940.515C666.751 959.665 630.999 975.695 550.049 940.773C522.169 928.75 497.953 906.567 492.772 881.749C491.026 873.305 487.533 862.399 488.249 852.266C490.739 816.714 494.117 766.965 512.208 722.397C552.196 623.957 564.247 493.887 458.995 422.841C416.487 394.131 378.789 379.017 364.276 387.977C345.928 399.312 341.119 433.346 346.157 471.617C350.852 507.513 346.415 536.509 331.874 546.928C324.374 552.281 308.602 548.675 291.914 540.459C225.305 507.656 205.811 438.155 204.781 385.801C203.893 341.834 190.24 293.201 151.539 273.364C104.309 249.205 6.64205 277.887 5.81194 278.259L5.49707 276.971Z" fill="#9857F8"/>
</g>
<g opacity="0.9091">
<path opacity="0.9091" d="M8.33008 268.154C9.27469 267.725 109.632 230.77 162.645 257.906C206.383 280.291 213.768 330.384 214.741 379.646C215.886 437.439 226.277 507.999 299.584 544.094C317.646 552.996 332.216 555.658 340.117 549.991C355.631 538.856 355.144 503.991 349.963 464.489C344.353 421.553 343.58 379.961 364.676 366.908C381.279 356.661 417.603 370.114 465.291 402.346C583.11 481.893 549.247 615.684 504.65 725.516C484.556 774.951 472.448 825.444 469.7 864.745C468.984 874.964 470.759 885.097 472.304 893.713C477.457 922.08 499.297 944.407 530.67 957.975C619.749 996.447 650.463 974.177 669.556 953.195C678.63 943.205 688.248 935.534 701.415 935.076C701.787 935.076 702.245 935.076 702.646 935.076C723.942 935.076 762.013 959.979 814.768 1009.79C838.526 1032.2 864.517 1043.91 886.758 1041.42C933.416 1036.12 982.078 981.533 1024.1 918.474C1083.44 829.423 1165.27 736.594 1268.47 766.249C1321.36 781.448 1320.42 825.53 1312.35 872.674C1301.41 936.564 1299.67 1022.67 1419.29 1081.55L1418.66 1082.84C1298.15 1023.5 1299.9 936.822 1310.92 872.503C1319.22 824.042 1319.82 782.479 1268.04 767.594C1165.73 738.197 1084.3 830.654 1025.19 919.332C982.994 982.65 934.103 1037.44 886.844 1042.79C864.231 1045.37 837.811 1033.49 813.766 1010.79C761.927 961.84 723.227 936.478 702.56 936.478C702.188 936.478 701.787 936.45 701.444 936.478C688.849 936.965 679.431 944.436 670.558 954.197C651.179 975.494 620.035 998.078 530.097 959.235C499.126 945.867 477.199 923.998 471.446 896.461C469.499 887.101 467.438 875.966 468.24 864.688C470.988 825.186 483.125 774.578 503.248 725.058C547.673 615.684 581.421 482.465 464.461 403.49C417.231 371.603 381.45 358.178 365.335 368.139C344.954 380.734 345.727 421.953 351.28 464.489C356.49 504.392 357.005 539.6 340.832 551.164C332.502 557.118 317.446 554.456 298.897 545.325C224.874 508.886 214.398 437.868 213.253 379.704C212.28 330.842 204.952 281.149 161.9 259.109C109.432 232.259 9.73268 269.013 8.78807 269.442L8.33008 268.154Z" fill="#9857F8"/>
</g>
<g opacity="0.7">
<path opacity="0.7" d="M1421.35 1076.94C1288.79 1011.67 1303.87 923.626 1315.98 852.895C1325.11 799.596 1332.3 757.489 1275.34 741.116C1162.81 708.77 1089.13 819.318 1024.13 916.87C977.699 986.514 933.875 1052.29 881.864 1058.19C856.989 1061.02 832.057 1050.26 805.608 1025.27C748.588 971.457 712.836 947.298 690.08 947.298C689.679 947.298 689.278 947.298 688.906 947.327C675.052 947.842 666.608 957.116 656.818 967.879C635.493 991.294 608.987 1020.43 510.06 977.726C464.404 958.032 444.739 926.059 448.174 877.14C451.208 833.688 472.104 782.221 494.26 727.748C543.122 607.44 598.539 471.044 469.9 384.197C417.947 349.132 384.084 337.396 366.337 348.359C343.924 362.214 350.25 410.589 356.375 457.39C362.129 501.271 367.539 542.72 349.792 555.458C340.632 562.013 326.291 560.324 305.882 550.277C224.445 510.174 223.014 437.668 221.726 373.663C220.638 319.935 219.636 269.184 172.291 244.939C114.584 215.399 12.8243 260.253 11.8225 260.711L11.25 259.394C12.2805 258.936 114.642 213.824 172.95 243.651C221.039 268.268 222.069 319.449 223.157 373.635C224.445 437.21 225.876 509.286 306.512 548.988C326.377 558.778 340.26 560.495 348.962 554.284C366.022 542.061 360.669 501.014 354.973 457.562C348.79 410.331 342.378 361.469 365.593 347.129C383.855 335.85 418.233 347.587 470.702 382.995C600.313 470.5 544.667 607.44 495.605 728.264C473.507 782.65 452.668 834.003 449.634 877.226C446.256 925.458 465.664 956.973 510.661 976.409C608.672 1018.72 634.806 990.006 655.816 966.935C665.806 955.943 674.451 946.468 688.906 945.924C689.336 945.924 689.765 945.896 690.194 945.896C713.609 945.896 748.617 969.482 806.667 1024.27C832.801 1048.92 857.333 1059.56 881.778 1056.79C933.102 1050.95 976.783 985.455 1023.01 916.098C1088.3 818.145 1162.3 707.139 1275.82 739.771C1334.02 756.487 1326.37 801.285 1317.47 853.152C1305.45 923.425 1290.48 1010.9 1422.07 1075.68L1421.35 1076.94Z" fill="#9857F8"/>
</g>
</g>
<path opacity="0.4" d="M655.186 348.131L606.754 348.789C607.011 346.928 606.267 344.152 604.549 341.203C601.716 336.395 597.336 332.988 594.76 333.618C592.184 334.248 592.384 338.627 595.218 343.436C597.909 347.987 601.973 351.279 604.607 351.079L639.586 350.592C639.586 350.592 640.588 352.224 637.84 355.659C633.26 361.384 619.406 355.401 619.406 355.401C619.406 355.401 624.215 361.384 635.321 361.241C646.37 361.126 642.362 348.302 655.186 348.131Z" fill="#E0B9FF"/>
<path opacity="0.4" d="M1304.04 458.593L1248.34 511.405C1246.65 508.342 1242.82 504.964 1237.69 502.417C1229.25 498.238 1220.52 497.837 1218.17 501.53C1215.82 505.222 1220.75 511.577 1229.19 515.756C1237.18 519.706 1245.45 520.279 1248.28 517.187L1288.5 479.059C1288.5 479.059 1291.39 480.433 1291.88 488.534C1292.65 502.016 1270.15 507.884 1270.15 507.884C1270.15 507.884 1282.15 511.72 1294.88 499.612C1307.62 487.503 1289.3 472.562 1304.04 458.593Z" fill="#E0B9FF"/>
<path opacity="0.3" d="M647.829 416.801L675.08 423.413L675.337 421.781L650.377 415.742C651.321 414.568 651.894 412.622 651.779 410.36C651.608 406.668 649.661 403.605 647.486 403.519C645.31 403.433 643.679 406.324 643.85 410.017C644.051 413.48 645.797 416.4 647.829 416.801Z" fill="#E0B9FF"/>
<path opacity="0.5" d="M1248.74 639.958L1300.7 636.323L1299.72 633.174L1252.15 636.523C1252.78 633.833 1252.06 629.94 1249.95 625.875C1246.48 619.234 1240.61 614.74 1236.81 615.828C1233 616.916 1232.74 623.184 1236.18 629.797C1239.5 636.094 1244.97 640.445 1248.74 639.958Z" fill="#E0B9FF"/>
<path opacity="0.3" d="M1303.87 690.508L1274.25 679.745L1273.76 682.178L1300.87 692.025C1299.67 693.714 1298.78 696.605 1298.64 699.954C1298.38 705.421 1300.15 710.058 1302.56 710.259C1304.99 710.488 1307.17 706.223 1307.42 700.727C1307.65 695.546 1306.11 691.138 1303.87 690.508Z" fill="#E0B9FF"/>
<path opacity="0.5" d="M627.076 303.362L669.87 294.747L671.874 294.346L676.769 293.344L646.341 268.612L645.883 268.698L639.442 269.986L604.892 276.942C604.606 274.795 602.774 271.847 599.626 268.956C594.502 264.233 587.918 261.456 584.884 262.744C581.878 264.032 583.567 268.927 588.691 273.65C593.557 278.144 599.711 280.864 602.917 280.034L642.076 272.162L667.179 292.571L628.994 300.242C628.708 298.096 626.876 295.147 623.727 292.256C618.604 287.533 612.02 284.757 608.986 286.045C605.98 287.333 607.669 292.228 612.793 296.951C617.688 301.445 623.871 304.193 627.076 303.362Z" fill="#E0B9FF"/>
<path opacity="0.5" d="M1330.75 601.543L1378.18 603.289L1380.39 603.375L1385.83 603.576L1359.26 559.666L1358.75 559.637L1351.62 559.379L1313.32 557.948C1313.52 554.885 1312.23 550.22 1309.6 545.239C1305.25 537.081 1298.89 531.127 1295.4 531.957C1291.91 532.787 1292.57 540.087 1296.92 548.244C1301.04 556.002 1306.97 561.727 1310.54 561.612L1353.94 563.215L1375.87 599.454L1333.56 597.879C1333.76 594.817 1332.47 590.151 1329.84 585.17C1325.49 577.012 1319.13 571.058 1315.64 571.888C1312.15 572.718 1312.81 580.018 1317.16 588.176C1321.22 595.933 1327.15 601.658 1330.75 601.543Z" fill="#9A31EF"/>
<path opacity="0.3" d="M540.258 210.389L520.45 240.645L522.282 241.733L540.43 214.053C541.403 215.771 543.464 217.402 546.184 218.347C550.62 219.893 555.114 219.005 556.174 216.372C557.261 213.738 554.513 210.361 550.077 208.815C545.84 207.327 541.604 208.071 540.258 210.389Z" fill="#E0B9FF"/>
<path opacity="0.5" d="M726.747 597.937L705.822 632.344C704.391 630.626 701.758 628.851 698.552 627.621C693.313 625.617 688.562 625.875 687.903 628.193C687.274 630.512 690.995 634.004 696.262 635.979C701.242 637.868 705.765 637.725 706.767 635.75L721.881 610.904C721.881 610.904 723.684 611.534 725.316 616.314C728.035 624.243 716.929 628.995 716.929 628.995C716.929 628.995 724.028 630.598 728.808 622.697C733.617 614.825 721.222 607.04 726.747 597.937Z" fill="#E0B9FF"/>
<path opacity="0.5" d="M1286.96 851.206L1306.02 822.21L1304.28 821.265L1286.81 847.8C1285.9 846.226 1283.92 844.795 1281.35 844.05C1277.11 842.791 1272.82 843.821 1271.79 846.312C1270.76 848.802 1273.33 851.836 1277.57 853.096C1281.61 854.298 1285.64 853.439 1286.96 851.206Z" fill="#E0B9FF"/>
<path opacity="0.4" d="M747.214 749.675L757.118 714.954L757.576 713.322L758.721 709.344L725.459 699.897L725.345 700.27L723.857 705.508L715.87 733.531C713.924 731.327 710.689 729.152 706.968 727.806C700.9 725.602 695.89 726.404 695.776 729.61C695.661 732.816 700.499 737.224 706.567 739.428C712.321 741.518 717.13 740.888 717.702 738.111L726.748 706.338L754.199 714.124L745.354 745.096C743.407 742.891 740.172 740.716 736.451 739.371C730.383 737.167 725.374 737.968 725.259 741.174C725.145 744.38 729.982 748.788 736.051 750.992C741.833 753.082 746.642 752.481 747.214 749.675Z" fill="#E0B9FF"/>
<path opacity="0.3" d="M1340.34 884.926L1338.05 862.657L1337.94 861.626L1337.68 859.05L1318.42 863.029L1318.44 863.258L1318.79 866.607L1320.65 884.583C1319.16 883.896 1317.01 883.581 1314.81 883.839C1311.17 884.297 1308.77 886.157 1309.4 887.989C1310.03 889.821 1313.46 890.938 1317.1 890.48C1320.53 890.05 1322.88 888.361 1322.59 886.615L1320.48 866.235L1336.36 862.943L1338.42 882.808C1336.94 882.121 1334.79 881.806 1332.58 882.064C1328.95 882.522 1326.54 884.382 1327.17 886.214C1327.8 888.046 1331.24 889.163 1334.87 888.705C1338.28 888.361 1340.66 886.672 1340.34 884.926Z" fill="#E0B9FF"/>
</g>
</g>
<defs>
<linearGradient id="paint0_linear" x1="24.1243" y1="99.0671" x2="1431.28" y2="850.572" gradientUnits="userSpaceOnUse">
<stop/>
<stop offset="0.2102" stop-color="#606060"/>
<stop offset="0.3081" stop-color="#888888"/>
<stop offset="0.4962" stop-color="#555354"/>
<stop offset="0.6288" stop-color="#2F2B2C"/>
<stop offset="0.7431" stop-color="#231F20"/>
<stop offset="0.7533" stop-color="#2A2627"/>
<stop offset="0.7686" stop-color="#3E3A3B"/>
<stop offset="0.787" stop-color="#5E5C5C"/>
<stop offset="0.8076" stop-color="#8A8989"/>
<stop offset="0.8204" stop-color="#A9A9A9"/>
<stop offset="0.8441" stop-color="#A4A4A4"/>
<stop offset="0.8722" stop-color="#969696"/>
<stop offset="0.9025" stop-color="#7E7E7E"/>
<stop offset="0.9343" stop-color="#5D5D5D"/>
<stop offset="0.9672" stop-color="#323232"/>
<stop offset="1"/>
</linearGradient>
<linearGradient id="paint1_linear" x1="1470.85" y1="1026.85" x2="63.6944" y2="275.345" gradientUnits="userSpaceOnUse">
<stop stop-color="#090909"/>
<stop offset="0.1983" stop-color="#414042"/>
<stop offset="0.3535" stop-color="#151415"/>
<stop offset="0.5215" stop-color="#BCBEC0"/>
<stop offset="0.5968" stop-color="#231F20"/>
<stop offset="0.6007" stop-color="#2E2B2C"/>
<stop offset="0.6116" stop-color="#474647"/>
<stop offset="0.624" stop-color="#5C5C5E"/>
<stop offset="0.6383" stop-color="#6C6D70"/>
<stop offset="0.6557" stop-color="#78797C"/>
<stop offset="0.6793" stop-color="#7E8083"/>
<stop offset="0.7375" stop-color="#808285"/>
<stop offset="0.9047" stop-color="#231F20"/>
<stop offset="0.9371" stop-color="#1C1919"/>
<stop offset="0.9853" stop-color="#080707"/>
<stop offset="1"/>
</linearGradient>
</defs>
</svg>
