<svg width="60" height="60" viewBox="0 0 60 60" fill="none" xmlns="http://www.w3.org/2000/svg">
<path d="M30 0C13.431 0 0 13.431 0 30C0 46.569 13.431 60 30 60C46.569 60 60 46.569 60 30C60 13.431 46.569 0 30 0ZM49.3548 26.0685V26.9069C49.3548 27.6169 48.9532 28.2665 48.3181 28.5835L46.4565 29.5149C46.1608 29.6629 45.8313 29.73 45.5013 29.7094C45.1714 29.6887 44.8528 29.5812 44.5778 29.3976L42.375 27.929C42.1374 27.7708 41.8668 27.6688 41.5838 27.6308C41.3008 27.5929 41.0129 27.62 40.7419 27.7101L40.4214 27.8165C39.248 28.2073 38.769 29.6056 39.4548 30.6351L41.0564 33.0375C41.4036 33.5589 41.9891 33.8722 42.6157 33.8722H43.6089C44.6444 33.8722 45.4839 34.7117 45.4839 35.7472V37.1189C45.4839 37.5242 45.352 37.9198 45.1089 38.2439L42.8419 41.2657C42.6702 41.4956 42.5528 41.7617 42.4996 42.0435L41.9794 44.8052C41.9044 45.2032 41.7024 45.5661 41.4036 45.8407C40.2572 46.8905 39.2418 48.0749 38.3794 49.3681L36.8032 51.7331C36.4967 52.1929 36.0813 52.57 35.5941 52.8308C35.1068 53.0916 34.5627 53.2281 34.0101 53.2282C32.7387 53.2282 31.5762 52.5097 31.0077 51.3726C30.3449 50.0471 29.9999 48.5855 30 47.1036V43.4879C30 42.4524 29.1605 41.6129 28.125 41.6129H24.9944C23.2415 41.6129 21.5613 40.9161 20.3214 39.6774C19.0824 38.4378 18.3862 36.757 18.3859 35.0044V33.3036C18.3859 31.2242 19.3657 29.2657 21.029 28.0173L24.3653 25.5145C25.5094 24.6566 26.9007 24.1927 28.3306 24.1923H28.4383C29.4641 24.1923 30.4766 24.4306 31.3935 24.8903L33.1742 25.7806C33.6194 26.0032 34.1335 26.0395 34.6052 25.8823L40.3282 23.9746C41.094 23.7194 41.6105 23.0032 41.6105 22.1964C41.6105 21.1609 40.771 20.3214 39.7355 20.3214H38.5149C38.0177 20.3214 37.5411 20.1242 37.1891 19.7722L36.352 18.9351C36.1779 18.7609 35.9712 18.6228 35.7438 18.5286C35.5163 18.4343 35.2724 18.3858 35.0262 18.3859H24.1331C23.0976 18.3859 22.2581 17.5464 22.2581 16.5109V15.9786C22.2581 15.1185 22.8435 14.3685 23.6782 14.1593L25.4262 13.7226C25.8786 13.6089 26.273 13.3319 26.5319 12.9435L27.5093 11.4786C27.8565 10.9573 28.4419 10.644 29.0685 10.644H31.9972C33.0327 10.644 33.8722 9.80443 33.8722 8.76895V6.14395C43.4552 7.69718 51.1524 14.8815 53.4593 24.1935H51.2298C50.1944 24.1935 49.3548 25.0331 49.3548 26.0685Z" fill="url(#paint0_linear)"/>
<defs>
<linearGradient id="paint0_linear" x1="-10.8429" y1="6.31579" x2="72.2208" y2="10.5807" gradientUnits="userSpaceOnUse">
<stop stop-color="#A267E6"/>
<stop offset="1" stop-color="#7566E6"/>
</linearGradient>
</defs>
</svg>
