<svg width="60" height="60" viewBox="0 0 60 60" fill="none" xmlns="http://www.w3.org/2000/svg">
<path fill-rule="evenodd" clip-rule="evenodd" d="M30 60C46.5686 60 60 46.5686 60 30C60 13.4314 46.5686 0 30 0C13.4315 0 0 13.4314 0 30C0 46.5686 13.4315 60 30 60ZM34.4358 38.9988C38.0963 35.318 38.1475 29.325 34.4133 25.5869C34.1667 25.3403 33.9069 25.1077 33.635 24.8898C33.4712 24.7584 33.303 24.6324 33.1307 24.5121C32.7305 24.2329 32.1892 24.2753 31.8442 24.6204L30.5283 25.9363C30.0064 26.4581 29.7724 27.1387 29.7972 27.7991C29.8032 27.9552 29.8455 28.1077 29.9209 28.2445C29.9963 28.3813 30.1026 28.4985 30.2313 28.587C30.3146 28.6444 30.4087 28.7131 30.5084 28.7928C30.6263 28.8873 30.7523 28.9974 30.8777 29.1226C32.6322 30.8771 32.6396 33.725 30.8777 35.4869L26.6777 39.6863C24.9127 41.4512 22.0339 41.4406 20.2823 39.6544C18.548 37.8856 18.6029 35.0336 20.3546 33.282L21.1725 32.464C21.4443 32.1921 21.533 31.7897 21.4089 31.4258C21.0424 30.3511 20.8438 29.2383 20.8033 28.1307C20.7715 27.2616 19.7124 26.8528 19.0974 27.4678L16.7783 29.787C13.0739 33.4907 13.0739 39.5182 16.7783 43.2219C20.4821 46.9258 26.5089 46.9263 30.2133 43.2219L34.4133 39.022L34.4249 39.0104L34.4358 38.9988ZM29.7867 16.7781C33.4911 13.0737 39.5179 13.0742 43.2217 16.7781C46.9261 20.4818 46.9261 26.5093 43.2217 30.213L40.9026 32.5321C40.2876 33.1471 39.2285 32.7384 39.1967 31.8693C39.1561 30.7616 38.9575 29.6488 38.5911 28.5742C38.4669 28.2103 38.5556 27.8079 38.8275 27.5359L39.6454 26.718C41.3971 24.9664 41.452 22.1143 39.7177 20.3455C37.9661 18.5593 35.0872 18.5487 33.3223 20.3136L29.1223 24.5131C27.3604 26.2749 27.3677 29.1228 29.1223 30.8773C29.3536 31.1083 29.5866 31.2876 29.7686 31.413C29.8973 31.5013 30.0037 31.6187 30.079 31.7554C30.1544 31.8922 30.1968 32.0447 30.2028 32.2008C30.2275 32.8612 29.9935 33.5417 29.4717 34.0637L28.1558 35.3796C27.8108 35.7246 27.2694 35.7671 26.8693 35.4878C26.588 35.2914 26.3176 35.08 26.0593 34.8546C25.8969 34.7129 25.7393 34.5657 25.5867 34.4131C21.8525 30.675 21.9039 24.682 25.5642 21.0012C25.5701 20.9948 25.5769 20.9879 25.5834 20.9813L25.5867 20.978L29.7867 16.7781Z" fill="url(#paint0_linear)"/>
<defs>
<linearGradient id="paint0_linear" x1="0" y1="0" x2="70.6789" y2="17.9491" gradientUnits="userSpaceOnUse">
<stop stop-color="#A267E6"/>
<stop offset="1" stop-color="#7566E6"/>
</linearGradient>
</defs>
</svg>
