<svg width="100" height="100" viewBox="0 0 100 100" fill="none" xmlns="http://www.w3.org/2000/svg">
<path d="M39.6518 72.4189L40.0054 72.7717L40.3586 72.4186L73.8886 38.8886L74.2421 38.535L73.8886 38.1814L66.8186 31.1114L66.465 30.7579L66.1115 31.1114L39.9947 57.2282L28.8532 46.1061L28.4992 45.7527L28.1459 46.1069L21.0859 53.1869L20.733 53.5409L21.0868 53.8939L39.6518 72.4189ZM0.5 50C0.5 22.7061 22.7061 0.5 50 0.5C77.2939 0.5 99.5 22.7061 99.5 50C99.5 77.2939 77.2939 99.5 50 99.5C22.7061 99.5 0.5 77.2939 0.5 50Z" fill="url(#paint0_linear)" stroke="url(#paint1_linear)"/>
<defs>
<linearGradient id="paint0_linear" x1="96.3658" y1="92.7279" x2="-71.9231" y2="-46.474" gradientUnits="userSpaceOnUse">
<stop stop-color="#DEC6F6"/>
<stop offset="1" stop-color="white" stop-opacity="0"/>
</linearGradient>
<linearGradient id="paint1_linear" x1="50" y1="45" x2="9" y2="91" gradientUnits="userSpaceOnUse">
<stop stop-color="#C5ABE7" stop-opacity="0"/>
<stop offset="1" stop-color="white"/>
</linearGradient>
</defs>
</svg>
